<svg width="42" height="42" viewBox="0 0 42 42" fill="none" xmlns="http://www.w3.org/2000/svg">
<rect width="42" height="42" rx="6" fill="#F2D851"/>
<path fill-rule="evenodd" clip-rule="evenodd" d="M6 0C2.68629 0 0 2.68629 0 6V36C0 39.3137 2.68629 42 6 42H36C39.3137 42 42 39.3137 42 36V6C42 2.68629 39.3137 0 36 0H6ZM31.6027 3L26.6712 4.45946L23 3.5L17.7945 3L10.8904 4.45946L4.9726 7.37838L3.9863 10.7838L4.9726 17.1081L3 21L4.9726 27.3243V36.5H9L13.3562 39L17.7945 37.0541L21.2466 38.027L26.6712 38.5135L31.6027 37.0541L34.5616 38.5135L37.5205 35.1081V30.2432L39 25.8649L38.5068 21V14.1892L36.5342 10.2973V5L33.5753 4.45946L31.6027 3Z" fill="#766611"/>
<path d="M14.0893 28V18.329H11.8093V15.308L17.5853 14.548L17.7753 15.688L17.5853 17.588V28H14.0893ZM25.3429 28.19C24.2662 28.19 23.2972 27.9683 22.4359 27.525C21.5872 27.0817 20.9159 26.3597 20.4219 25.359C19.9279 24.3457 19.6809 22.984 19.6809 21.274C19.6809 19.5767 19.9279 18.2277 20.4219 17.227C20.9159 16.2137 21.5872 15.4853 22.4359 15.042C23.2972 14.586 24.2662 14.358 25.3429 14.358C26.4322 14.358 27.4012 14.586 28.2499 15.042C29.0986 15.498 29.7699 16.2327 30.2639 17.246C30.7579 18.2467 31.0049 19.5893 31.0049 21.274C31.0049 22.9587 30.7579 24.3077 30.2639 25.321C29.7699 26.3343 29.0986 27.069 28.2499 27.525C27.4012 27.9683 26.4322 28.19 25.3429 28.19ZM25.3429 24.884C26.0269 24.884 26.5399 24.618 26.8819 24.086C27.2366 23.554 27.4139 22.6167 27.4139 21.274C27.4139 19.9313 27.2366 18.994 26.8819 18.462C26.5399 17.93 26.0269 17.664 25.3429 17.664C24.6716 17.664 24.1586 17.9363 23.8039 18.481C23.4492 19.0257 23.2719 19.9567 23.2719 21.274C23.2719 22.5913 23.4492 23.5223 23.8039 24.067C24.1586 24.6117 24.6716 24.884 25.3429 24.884Z" fill="#766611"/>
</svg>
