<svg width="42" height="42" viewBox="0 0 42 42" fill="none" xmlns="http://www.w3.org/2000/svg">
<rect width="42" height="42" rx="6" fill="#B02323"/>
<path fill-rule="evenodd" clip-rule="evenodd" d="M6 0C2.68629 0 0 2.68629 0 6V36C0 39.3137 2.68629 42 6 42H36C39.3137 42 42 39.3137 42 36V6C42 2.68629 39.3137 0 36 0H6ZM31.6027 3L26.6712 4.45946L23 3.5L17.7945 3L10.8904 4.45946L4.9726 7.37838L3.9863 10.7838L4.9726 17.1081L3 21L4.9726 27.3243V36.5H9L13.3562 39L17.7945 37.0541L21.2466 38.027L26.6712 38.5135L31.6027 37.0541L34.5616 38.5135L37.5205 35.1081V30.2432L39 25.8649L38.5068 21V14.1892L36.5342 10.2973V5L33.5753 4.45946L31.6027 3Z" fill="#4B0000"/>
<path d="M14.2108 28V18.329H11.9308V15.308L17.7068 14.548L17.8968 15.688L17.7068 17.588V28H14.2108ZM19.8025 28V25.359C19.8025 25.359 19.9228 25.283 20.1635 25.131C20.4041 24.979 20.7145 24.77 21.0945 24.504C21.4745 24.238 21.8861 23.9403 22.3295 23.611C22.7728 23.2817 23.1908 22.9397 23.5835 22.585C24.1535 22.091 24.6285 21.654 25.0085 21.274C25.3885 20.8813 25.6735 20.495 25.8635 20.115C26.0535 19.735 26.1485 19.298 26.1485 18.804C26.1485 17.9933 25.6101 17.588 24.5335 17.588C24.0015 17.588 23.4631 17.6577 22.9185 17.797C22.3865 17.9237 21.8925 18.0757 21.4365 18.253C20.9931 18.4303 20.6448 18.5823 20.3915 18.709V15.479C20.7588 15.2763 21.3478 15.0483 22.1585 14.795C22.9691 14.5417 23.9571 14.415 25.1225 14.415C26.7691 14.415 27.9725 14.7633 28.7325 15.46C29.4925 16.144 29.8725 17.1827 29.8725 18.576C29.8725 19.298 29.7395 19.944 29.4735 20.514C29.2075 21.084 28.8655 21.597 28.4475 22.053C28.0295 22.4963 27.5798 22.8827 27.0985 23.212C26.6298 23.5413 26.1801 23.82 25.7495 24.048C25.3188 24.2633 24.9641 24.4407 24.6855 24.58L24.7805 24.96L29.8725 24.58V28H19.8025Z" fill="#4B0000"/>
</svg>
