<svg width="42" height="42" viewBox="0 0 42 42" fill="none" xmlns="http://www.w3.org/2000/svg">
<rect width="42" height="42" rx="6" fill="#B02323"/>
<path fill-rule="evenodd" clip-rule="evenodd" d="M6 0C2.68629 0 0 2.68629 0 6V36C0 39.3137 2.68629 42 6 42H36C39.3137 42 42 39.3137 42 36V6C42 2.68629 39.3137 0 36 0H6ZM31.6027 3L26.6712 4.45946L23 3.5L17.7945 3L10.8904 4.45946L4.9726 7.37838L3.9863 10.7838L4.9726 17.1081L3 21L4.9726 27.3243V36.5H9L13.3562 39L17.7945 37.0541L21.2466 38.027L26.6712 38.5135L31.6027 37.0541L34.5616 38.5135L37.5205 35.1081V30.2432L39 25.8649L38.5068 21V14.1892L36.5342 10.2973V5L33.5753 4.45946L31.6027 3Z" fill="#4B0000"/>
<path d="M20.0092 28V18.329H17.7292V15.308L23.5052 14.548L23.6952 15.688L23.5052 17.588V28H20.0092Z" fill="#4B0000"/>
</svg>
