<svg width="42" height="42" viewBox="0 0 42 42" fill="none" xmlns="http://www.w3.org/2000/svg">
<rect width="42" height="42" rx="6" fill="#F2D851"/>
<path fill-rule="evenodd" clip-rule="evenodd" d="M6 0C2.68629 0 0 2.68629 0 6V36C0 39.3137 2.68629 42 6 42H36C39.3137 42 42 39.3137 42 36V6C42 2.68629 39.3137 0 36 0H6ZM31.6027 3L26.6712 4.45946L23 3.5L17.7945 3L10.8904 4.45946L4.9726 7.37838L3.9863 10.7838L4.9726 17.1081L3 21L4.9726 27.3243V36.5H9L13.3562 39L17.7945 37.0541L21.2466 38.027L26.6712 38.5135L31.6027 37.0541L34.5616 38.5135L37.5205 35.1081V30.2432L39 25.8649L38.5068 21V14.1892L36.5342 10.2973V5L33.5753 4.45946L31.6027 3Z" fill="#766611"/>
<path d="M15.9617 28V25.359C15.9617 25.359 16.082 25.283 16.3227 25.131C16.5633 24.979 16.8737 24.77 17.2537 24.504C17.6337 24.238 18.0453 23.9403 18.4887 23.611C18.932 23.2817 19.35 22.9397 19.7427 22.585C20.3127 22.091 20.7877 21.654 21.1677 21.274C21.5477 20.8813 21.8327 20.495 22.0227 20.115C22.2127 19.735 22.3077 19.298 22.3077 18.804C22.3077 17.9933 21.7693 17.588 20.6927 17.588C20.1607 17.588 19.6223 17.6577 19.0777 17.797C18.5457 17.9237 18.0517 18.0757 17.5957 18.253C17.1523 18.4303 16.804 18.5823 16.5507 18.709V15.479C16.918 15.2763 17.507 15.0483 18.3177 14.795C19.1283 14.5417 20.1163 14.415 21.2817 14.415C22.9283 14.415 24.1317 14.7633 24.8917 15.46C25.6517 16.144 26.0317 17.1827 26.0317 18.576C26.0317 19.298 25.8987 19.944 25.6327 20.514C25.3667 21.084 25.0247 21.597 24.6067 22.053C24.1887 22.4963 23.739 22.8827 23.2577 23.212C22.789 23.5413 22.3393 23.82 21.9087 24.048C21.478 24.2633 21.1233 24.4407 20.8447 24.58L20.9397 24.96L26.0317 24.58V28H15.9617Z" fill="#766611"/>
</svg>
