<svg width="42" height="42" viewBox="0 0 42 42" fill="none" xmlns="http://www.w3.org/2000/svg">
<rect width="42" height="42" rx="6" fill="#B1B1B1"/>
<path fill-rule="evenodd" clip-rule="evenodd" d="M6 0C2.68629 0 0 2.68629 0 6V36C0 39.3137 2.68629 42 6 42H36C39.3137 42 42 39.3137 42 36V6C42 2.68629 39.3137 0 36 0H6ZM31.6027 3L26.6712 4.45946L23 3.5L17.7945 3L10.8904 4.45946L4.9726 7.37838L3.9863 10.7838L4.9726 17.1081L3 21L4.9726 27.3243V36.5H9L13.3562 39L17.7945 37.0541L21.2466 38.027L26.6712 38.5135L31.6027 37.0541L34.5616 38.5135L37.5205 35.1081V30.2432L39 25.8649L38.5068 21V14.1892L36.5342 10.2973V5L33.5753 4.45946L31.6027 3Z" fill="#707070"/>
<path d="M20.3454 28.19C19.9401 28.19 19.5537 28.1773 19.1864 28.152C18.8317 28.1267 18.4961 28.0887 18.1794 28.038L15.7854 26.955L16.7354 23.934L20.5354 24.979C21.2701 24.979 21.8021 24.8587 22.1314 24.618C22.4607 24.3647 22.6254 24.048 22.6254 23.668C22.6254 23.326 22.5051 23.0853 22.2644 22.946C22.0237 22.8067 21.6184 22.737 21.0484 22.737H18.6924V19.678H20.8204C21.2511 19.678 21.5931 19.5893 21.8464 19.412C22.1124 19.2347 22.2454 18.9877 22.2454 18.671C22.2454 18.2657 22.1251 17.987 21.8844 17.835C21.6437 17.6703 21.3017 17.588 20.8584 17.588C20.2251 17.588 19.6171 17.6513 19.0344 17.778C18.4517 17.9047 17.9324 18.0567 17.4764 18.234C17.0204 18.3987 16.6467 18.5443 16.3554 18.671V15.441C16.6087 15.3143 16.9697 15.1687 17.4384 15.004C17.9071 14.8393 18.4644 14.6937 19.1104 14.567C19.7691 14.4403 20.4847 14.377 21.2574 14.377C22.6887 14.377 23.7717 14.6937 24.5064 15.327C25.2537 15.9477 25.6274 16.828 25.6274 17.968C25.6274 18.6267 25.4881 19.1713 25.2094 19.602C24.9434 20.02 24.6521 20.3557 24.3354 20.609C24.8674 20.8497 25.3107 21.2107 25.6654 21.692C26.0327 22.1607 26.2164 22.813 26.2164 23.649C26.2164 26.6763 24.2594 28.19 20.3454 28.19Z" fill="#707070"/>
</svg>
