<svg width="42" height="42" viewBox="0 0 42 42" fill="none" xmlns="http://www.w3.org/2000/svg">
<rect width="42" height="42" rx="6" fill="#B02323"/>
<path fill-rule="evenodd" clip-rule="evenodd" d="M6 0C2.68629 0 0 2.68629 0 6V36C0 39.3137 2.68629 42 6 42H36C39.3137 42 42 39.3137 42 36V6C42 2.68629 39.3137 0 36 0H6ZM31.6027 3L26.6712 4.45946L23 3.5L17.7945 3L10.8904 4.45946L4.9726 7.37838L3.9863 10.7838L4.9726 17.1081L3 21L4.9726 27.3243V36.5H9L13.3562 39L17.7945 37.0541L21.2466 38.027L26.6712 38.5135L31.6027 37.0541L34.5616 38.5135L37.5205 35.1081V30.2432L39 25.8649L38.5068 21V14.1892L36.5342 10.2973V5L33.5753 4.45946L31.6027 3Z" fill="#4B0000"/>
<path d="M21.2979 28.19C20.8166 28.19 20.3669 28.1773 19.9489 28.152C19.5436 28.1267 19.1636 28.0887 18.8089 28.038L16.0349 27.164L16.9849 23.763L20.9179 24.998C21.5892 24.998 22.1086 24.8903 22.4759 24.675C22.8559 24.447 23.0459 24.0543 23.0459 23.497C23.0459 23.079 22.9002 22.756 22.6089 22.528C22.3302 22.3 21.8362 22.186 21.1269 22.186H16.7949V14.548H26.0099V17.759L21.2599 17.569H20.4619V19.393H21.7349C23.4956 19.393 24.7749 19.7603 25.5729 20.495C26.3709 21.2297 26.7699 22.2557 26.7699 23.573C26.7699 24.5483 26.5419 25.3843 26.0859 26.081C25.6426 26.765 25.0092 27.2907 24.1859 27.658C23.3752 28.0127 22.4126 28.19 21.2979 28.19Z" fill="#4B0000"/>
</svg>
