<svg width="42" height="42" viewBox="0 0 42 42" fill="none" xmlns="http://www.w3.org/2000/svg">
<rect width="42" height="42" rx="6" fill="#F2D851"/>
<path fill-rule="evenodd" clip-rule="evenodd" d="M6 0C2.68629 0 0 2.68629 0 6V36C0 39.3137 2.68629 42 6 42H36C39.3137 42 42 39.3137 42 36V6C42 2.68629 39.3137 0 36 0H6ZM31.6027 3L26.6712 4.45946L23 3.5L17.7945 3L10.8904 4.45946L4.9726 7.37838L3.9863 10.7838L4.9726 17.1081L3 21L4.9726 27.3243V36.5H9L13.3562 39L17.7945 37.0541L21.2466 38.027L26.6712 38.5135L31.6027 37.0541L34.5616 38.5135L37.5205 35.1081V30.2432L39 25.8649L38.5068 21V14.1892L36.5342 10.2973V5L33.5753 4.45946L31.6027 3Z" fill="#766611"/>
<path d="M21.356 28.19C20.1274 28.19 19.0507 27.962 18.126 27.506C17.214 27.05 16.5047 26.3407 15.998 25.378C15.4914 24.4153 15.238 23.1803 15.238 21.673C15.238 20.267 15.4154 19.0953 15.77 18.158C16.1374 17.208 16.625 16.4607 17.233 15.916C17.8537 15.3587 18.544 14.9597 19.304 14.719C20.0767 14.4783 20.8684 14.358 21.679 14.358C22.325 14.358 22.952 14.4087 23.56 14.51C24.1807 14.6113 24.6304 14.7253 24.909 14.852L26.638 16.391L24.928 19.146L21.869 17.569C21.033 17.569 20.33 17.8097 19.76 18.291C19.2027 18.7597 18.924 19.431 18.924 20.305L21.736 19.735C22.6354 19.735 23.465 19.8617 24.225 20.115C24.9977 20.3557 25.612 20.78 26.068 21.388C26.5367 21.9833 26.771 22.813 26.771 23.877C26.771 25.1817 26.315 26.2267 25.403 27.012C24.5037 27.7973 23.1547 28.19 21.356 28.19ZM21.337 24.922C21.9197 24.922 22.3694 24.8207 22.686 24.618C23.0154 24.4027 23.18 24.1177 23.18 23.763C23.18 23.3957 23.0344 23.06 22.743 22.756C22.4517 22.452 21.9957 22.3 21.375 22.3C20.8304 22.3 20.368 22.4203 19.988 22.661C19.608 22.889 19.3484 23.0853 19.209 23.25C19.3104 23.7187 19.532 24.1177 19.874 24.447C20.2287 24.7637 20.7164 24.922 21.337 24.922Z" fill="#766611"/>
</svg>
