<svg width="42" height="42" viewBox="0 0 42 42" fill="none" xmlns="http://www.w3.org/2000/svg">
<rect width="42" height="42" rx="6" fill="#F2D851"/>
<path fill-rule="evenodd" clip-rule="evenodd" d="M6 0C2.68629 0 0 2.68629 0 6V36C0 39.3137 2.68629 42 6 42H36C39.3137 42 42 39.3137 42 36V6C42 2.68629 39.3137 0 36 0H6ZM31.6027 3L26.6712 4.45946L23 3.5L17.7945 3L10.8904 4.45946L4.9726 7.37838L3.9863 10.7838L4.9726 17.1081L3 21L4.9726 27.3243V36.5H9L13.3562 39L17.7945 37.0541L21.2466 38.027L26.6712 38.5135L31.6027 37.0541L34.5616 38.5135L37.5205 35.1081V30.2432L39 25.8649L38.5068 21V14.1892L36.5342 10.2973V5L33.5753 4.45946L31.6027 3Z" fill="#766611"/>
<path d="M17.9221 28L21.0951 19.564L22.1021 17.569H21.5321L16.0221 17.949V14.548H25.9781V16.847L22.8431 24.96L21.8931 28H17.9221Z" fill="#766611"/>
</svg>
