<svg width="42" height="42" viewBox="0 0 42 42" fill="none" xmlns="http://www.w3.org/2000/svg">
<rect width="42" height="42" rx="6" fill="#B1B1B1"/>
<path fill-rule="evenodd" clip-rule="evenodd" d="M6 0C2.68629 0 0 2.68629 0 6V36C0 39.3137 2.68629 42 6 42H36C39.3137 42 42 39.3137 42 36V6C42 2.68629 39.3137 0 36 0H6ZM31.6027 3L26.6712 4.45946L23 3.5L17.7945 3L10.8904 4.45946L4.9726 7.37838L3.9863 10.7838L4.9726 17.1081L3 21L4.9726 27.3243V36.5H9L13.3562 39L17.7945 37.0541L21.2466 38.027L26.6712 38.5135L31.6027 37.0541L34.5616 38.5135L37.5205 35.1081V30.2432L39 25.8649L38.5068 21V14.1892L36.5342 10.2973V5L33.5753 4.45946L31.6027 3Z" fill="#707070"/>
<path d="M21.5401 28.19C20.8434 28.19 20.1594 28.1267 19.4881 28C18.8167 27.8607 18.2024 27.639 17.6451 27.335C17.1004 27.0183 16.6634 26.594 16.3341 26.062C16.0047 25.53 15.8401 24.865 15.8401 24.067C15.8401 23.2563 16.0111 22.604 16.3531 22.11C16.6951 21.616 17.1447 21.236 17.7021 20.97C17.2461 20.6407 16.9167 20.2353 16.7141 19.754C16.5114 19.26 16.4101 18.709 16.4101 18.101C16.4101 17.3663 16.6064 16.7203 16.9991 16.163C17.4044 15.6057 17.9871 15.1687 18.7471 14.852C19.5071 14.5227 20.4254 14.358 21.5021 14.358C23.1234 14.358 24.3774 14.681 25.2641 15.327C26.1507 15.973 26.5941 16.8977 26.5941 18.101C26.5941 18.7723 26.4991 19.3423 26.3091 19.811C26.1191 20.267 25.8404 20.6407 25.4731 20.932C26.0051 21.198 26.4167 21.5843 26.7081 22.091C27.0121 22.585 27.1641 23.2437 27.1641 24.067C27.1641 24.865 27.0057 25.53 26.6891 26.062C26.3724 26.594 25.9417 27.0183 25.3971 27.335C24.8651 27.639 24.2634 27.8607 23.5921 28C22.9207 28.1267 22.2367 28.19 21.5401 28.19ZM21.5401 19.906C22.0087 19.906 22.3697 19.7857 22.6231 19.545C22.8764 19.2917 23.0031 19.0067 23.0031 18.69C23.0031 18.3607 22.8764 18.0947 22.6231 17.892C22.3697 17.6893 22.0087 17.588 21.5401 17.588C21.0841 17.588 20.7104 17.683 20.4191 17.873C20.1404 18.0503 20.0011 18.3227 20.0011 18.69C20.0011 19.0447 20.1404 19.336 20.4191 19.564C20.7104 19.792 21.0841 19.906 21.5401 19.906ZM21.5401 24.96C22.2241 24.96 22.7307 24.8523 23.0601 24.637C23.4021 24.409 23.5731 24.143 23.5731 23.839C23.5731 23.459 23.4147 23.1487 23.0981 22.908C22.7941 22.6547 22.3761 22.4773 21.8441 22.376C21.3247 22.262 20.7421 22.2177 20.0961 22.243C19.9441 22.4077 19.8111 22.6103 19.6971 22.851C19.5957 23.0917 19.5451 23.345 19.5451 23.611C19.5451 24.0037 19.7034 24.3267 20.0201 24.58C20.3494 24.8333 20.8561 24.96 21.5401 24.96Z" fill="#707070"/>
</svg>
