<svg width="42" height="42" viewBox="0 0 42 42" fill="none" xmlns="http://www.w3.org/2000/svg">
<rect width="42" height="42" rx="6" fill="#B1B1B1"/>
<path fill-rule="evenodd" clip-rule="evenodd" d="M6 0C2.68629 0 0 2.68629 0 6V36C0 39.3137 2.68629 42 6 42H36C39.3137 42 42 39.3137 42 36V6C42 2.68629 39.3137 0 36 0H6ZM31.6027 3L26.6712 4.45946L23 3.5L17.7945 3L10.8904 4.45946L4.9726 7.37838L3.9863 10.7838L4.9726 17.1081L3 21L4.9726 27.3243V36.5H9L13.3562 39L17.7945 37.0541L21.2466 38.027L26.6712 38.5135L31.6027 37.0541L34.5616 38.5135L37.5205 35.1081V30.2432L39 25.8649L38.5068 21V14.1892L36.5342 10.2973V5L33.5753 4.45946L31.6027 3Z" fill="#707070"/>
<path d="M20.349 28.19C19.8424 28.19 19.4054 28.1647 19.038 28.114C18.6707 28.076 18.354 28.0317 18.088 27.981L15.58 26.575L16.891 23.934L20.52 24.96C21.3814 24.96 22.0084 24.7257 22.401 24.257C22.7937 23.7757 22.99 23.174 22.99 22.452L20.064 23.022C19.1647 23.022 18.3477 22.8827 17.613 22.604C16.891 22.3253 16.3147 21.8693 15.884 21.236C15.4534 20.6027 15.238 19.754 15.238 18.69C15.238 17.36 15.7257 16.3087 16.701 15.536C17.6764 14.7507 19.0634 14.358 20.862 14.358C22.0527 14.358 23.0914 14.586 23.978 15.042C24.8647 15.498 25.5487 16.2327 26.03 17.246C26.524 18.2467 26.771 19.5893 26.771 21.274C26.771 22.8827 26.486 24.2 25.916 25.226C25.346 26.2393 24.5734 26.9867 23.598 27.468C22.6354 27.9493 21.5524 28.19 20.349 28.19ZM20.634 20.248C21.204 20.248 21.6854 20.229 22.078 20.191C22.4834 20.1403 22.7874 20.096 22.99 20.058C22.99 19.3233 22.7874 18.7343 22.382 18.291C21.9894 17.8477 21.4194 17.626 20.672 17.626C20.0134 17.626 19.5384 17.7653 19.247 18.044C18.9684 18.3227 18.829 18.6393 18.829 18.994C18.829 19.488 18.9747 19.8237 19.266 20.001C19.5574 20.1657 20.0134 20.248 20.634 20.248Z" fill="#707070"/>
</svg>
