<svg width="202" height="56" viewBox="0 0 202 56" fill="none" xmlns="http://www.w3.org/2000/svg">
<rect x="1" y="1" width="200" height="54" rx="7" fill="#FFFFF5"/>
<path fill-rule="evenodd" clip-rule="evenodd" d="M8 1C4.13401 1 1 4.13401 1 8V48C1 51.866 4.13401 55 8.00001 55H194C197.866 55 201 51.866 201 48V8C201 4.13401 197.866 1 194 1H8ZM8.30602 10.6695C8.12954 12.9669 8.09425 17.857 9.36488 19.0385C10.9532 20.5154 13.6004 24.4537 14.1298 28.392C14.5935 31.8416 12.2141 36.0464 10.9048 38.3603C10.7193 38.6882 10.5552 38.9781 10.4238 39.2225C10.2473 39.5506 10.0267 39.8925 9.7988 40.2457C8.65902 42.0121 7.33541 44.0633 10.4238 46.1146C14.1298 48.576 26.8362 49.5606 28.9539 49.5606H55.4255C57.5381 49.5606 60.1448 49.6525 62.9743 49.7522C71.4902 50.0523 82.0253 50.4236 87.1913 48.576C88.3485 48.1622 89.4158 47.7623 90.4211 47.3856C95.3949 45.522 98.8481 44.2282 104.133 44.6377C110.486 45.13 122.134 47.0991 126.899 48.576C129.74 49.4566 140.11 48.2369 149.704 47.1085C156.201 46.3445 162.341 45.6223 165.547 45.6223C173.489 45.6223 180.901 46.1146 185.666 46.6068C190.43 47.0991 193.078 40.6993 193.078 35.7764C193.078 34.2464 193.231 32.2884 193.395 30.198C193.758 25.5625 194.172 20.2759 193.078 17.5616C192.662 16.5315 192.428 15.1983 192.185 13.8174C191.5 9.91888 190.748 5.64061 185.666 6.73119C180.125 7.92001 172.184 8.15188 161.841 8.45387C159.335 8.52705 156.688 8.60434 153.9 8.70036C139.605 9.19265 120.546 8.70036 117.898 8.20807C117.096 8.05892 113.233 8.45204 107.942 8.99039C95.7689 10.2289 76.0418 12.2361 68.6612 10.1772C58.0726 7.22348 23.1302 4.26973 16.2475 7.22348C13.0393 8.60033 11.4415 8.58662 10.4891 8.57844C9.39829 8.56908 9.15393 8.56699 8.30602 10.6695Z" fill="#E0E0C7"/>
<rect x="1" y="1" width="200" height="54" rx="7" stroke="#1C4570" stroke-width="2" stroke-linecap="round"/>
<ellipse cx="36.567" cy="16.5" rx="2.57732" ry="2.5" fill="#E0E0C7"/>
<ellipse cx="57.1856" cy="40.5" rx="3.60825" ry="3.5" fill="#E0E0C7"/>
<ellipse cx="171.619" cy="16.5" rx="2.57732" ry="2.5" fill="#E0E0C7"/>
<ellipse cx="123.165" cy="29.5" rx="1.54639" ry="1.5" fill="#E0E0C7"/>
<path d="M56.2877 35L57.2737 31.787V30.138L58.3617 29.628L60.5717 22.981H63.9207L66.6577 30.597L67.9667 33.011V35H65.6377L64.6177 31.94H59.6707L58.7697 35H56.2877ZM60.6227 29.832H63.8527L62.3907 25.225H62.0337L60.6227 29.832ZM69.1062 35V25.684L68.7492 23.984L69.1062 22.964H71.4862V35H69.1062ZM73.4226 35V25.684L73.0656 23.984L73.4226 22.964H75.8026V35H73.4226ZM81.105 35.17C80.3684 35.17 79.711 35.0397 79.133 34.779C78.555 34.5183 78.1017 34.082 77.773 33.47C77.4444 32.858 77.28 32.0307 77.28 30.988C77.28 29.9793 77.4557 29.169 77.807 28.557C78.1584 27.945 78.623 27.503 79.201 27.231C79.779 26.9477 80.4137 26.806 81.105 26.806C81.8644 26.806 82.4594 26.891 82.89 27.061C83.332 27.231 83.6664 27.3953 83.893 27.554L84.743 30.257L84.403 31.311H79.643C79.711 31.9117 79.9264 32.3933 80.289 32.756C80.6517 33.1187 81.207 33.3 81.955 33.3C82.567 33.3 83.06 33.2263 83.434 33.079C83.8194 32.9317 84.0857 32.8183 84.233 32.739V34.507C83.893 34.6883 83.4567 34.847 82.924 34.983C82.4027 35.1077 81.7964 35.17 81.105 35.17ZM79.626 30.223L82.176 29.883L81.921 28.625C81.8417 28.5797 81.7284 28.5457 81.581 28.523C81.445 28.5003 81.3204 28.489 81.207 28.489C80.697 28.489 80.306 28.6703 80.034 29.033C79.762 29.3843 79.626 29.781 79.626 30.223ZM90.1736 35V25.684L89.8166 23.984L90.1736 22.964H92.5536V35H90.1736ZM98.043 35.17C96.6603 35.17 95.646 34.8073 95 34.082C94.354 33.3567 94.031 32.3253 94.031 30.988C94.031 29.6393 94.354 28.608 95 27.894C95.646 27.1687 96.6603 26.806 98.043 26.806C99.471 26.806 100.491 27.1687 101.103 27.894C101.726 28.608 102.038 29.6393 102.038 30.988C102.038 32.3253 101.726 33.3567 101.103 34.082C100.491 34.8073 99.471 35.17 98.043 35.17ZM98.043 33.47C98.5077 33.47 98.8873 33.2887 99.182 32.926C99.488 32.5633 99.641 31.9173 99.641 30.988C99.641 30.0587 99.488 29.4127 99.182 29.05C98.8873 28.6873 98.5077 28.506 98.043 28.506C97.567 28.506 97.176 28.6873 96.87 29.05C96.5753 29.4127 96.428 30.0587 96.428 30.988C96.428 31.9173 96.581 32.5633 96.887 32.926C97.193 33.2887 97.5783 33.47 98.043 33.47ZM96.241 26.075L94.711 24.545L96.241 23.015L97.771 24.545L96.241 26.075ZM99.811 26.075L98.281 24.545L99.811 23.015L101.341 24.545L99.811 26.075ZM106.19 35.17C105.465 35.17 104.859 35.1077 104.371 34.983C103.895 34.8583 103.51 34.7167 103.215 34.558V32.552C103.623 32.7673 104.088 32.9543 104.609 33.113C105.142 33.2603 105.652 33.334 106.139 33.334C106.717 33.334 107.006 33.147 107.006 32.773C107.006 32.569 106.921 32.416 106.751 32.314C106.593 32.212 106.366 32.1213 106.071 32.042C105.788 31.9513 105.459 31.8437 105.085 31.719C104.439 31.4923 103.941 31.2033 103.589 30.852C103.238 30.5007 103.062 29.951 103.062 29.203C103.062 28.3983 103.34 27.7977 103.895 27.401C104.462 27.0043 105.204 26.806 106.122 26.806C106.496 26.806 106.814 26.8287 107.074 26.874C107.335 26.908 107.573 26.942 107.788 26.976L109.335 27.826L108.672 29.475L106.122 28.659C105.907 28.659 105.731 28.7043 105.595 28.795C105.471 28.8743 105.408 28.9877 105.408 29.135C105.408 29.373 105.527 29.5543 105.765 29.679C106.003 29.7923 106.349 29.917 106.802 30.053C107.72 30.325 108.395 30.6537 108.825 31.039C109.256 31.4243 109.471 31.991 109.471 32.739C109.471 33.4303 109.199 34.0083 108.655 34.473C108.123 34.9377 107.301 35.17 106.19 35.17ZM114.138 35.17C113.447 35.17 112.823 35.0397 112.268 34.779C111.713 34.507 111.276 34.065 110.959 33.453C110.642 32.841 110.483 32.0193 110.483 30.988C110.483 29.934 110.659 29.1067 111.01 28.506C111.373 27.894 111.854 27.4577 112.455 27.197C113.067 26.9363 113.741 26.806 114.478 26.806C114.999 26.806 115.385 26.8287 115.634 26.874C115.895 26.908 116.116 26.9477 116.297 26.993L117.623 28.489L116.603 29.832L114.818 28.676C114.251 28.676 113.809 28.8743 113.492 29.271C113.175 29.6677 113.016 30.24 113.016 30.988C113.016 31.7813 113.186 32.365 113.526 32.739C113.866 33.113 114.353 33.3 114.988 33.3C115.407 33.3 115.781 33.2547 116.11 33.164C116.45 33.062 116.733 32.9543 116.96 32.841C117.187 32.7163 117.345 32.6257 117.436 32.569V34.507C117.153 34.6543 116.739 34.8017 116.195 34.949C115.662 35.0963 114.977 35.17 114.138 35.17ZM119.259 35V25.684L118.919 23.984L119.259 22.964H121.639V25.718L121.469 27.605L121.639 27.69C121.775 27.486 122.024 27.2877 122.387 27.095C122.761 26.891 123.248 26.789 123.849 26.789C124.869 26.789 125.634 27.078 126.144 27.656C126.654 28.234 126.909 29.0443 126.909 30.087V32.297L127.266 33.963L126.909 35H124.529V30.019C124.529 29.5883 124.376 29.2597 124.07 29.033C123.775 28.795 123.43 28.676 123.033 28.676L121.639 29.169V35H119.259ZM132.221 35.17C131.485 35.17 130.827 35.0397 130.249 34.779C129.671 34.5183 129.218 34.082 128.889 33.47C128.561 32.858 128.396 32.0307 128.396 30.988C128.396 29.9793 128.572 29.169 128.923 28.557C129.275 27.945 129.739 27.503 130.317 27.231C130.895 26.9477 131.53 26.806 132.221 26.806C132.981 26.806 133.576 26.891 134.006 27.061C134.448 27.231 134.783 27.3953 135.009 27.554L135.859 30.257L135.519 31.311H130.759C130.827 31.9117 131.043 32.3933 131.405 32.756C131.768 33.1187 132.323 33.3 133.071 33.3C133.683 33.3 134.176 33.2263 134.55 33.079C134.936 32.9317 135.202 32.8183 135.349 32.739V34.507C135.009 34.6883 134.573 34.847 134.04 34.983C133.519 35.1077 132.913 35.17 132.221 35.17ZM130.742 30.223L133.292 29.883L133.037 28.625C132.958 28.5797 132.845 28.5457 132.697 28.523C132.561 28.5003 132.437 28.489 132.323 28.489C131.813 28.489 131.422 28.6703 131.15 29.033C130.878 29.3843 130.742 29.781 130.742 30.223ZM137.257 35V29.883L136.917 28.013L137.444 26.976H139.297V27.707L139.45 27.809C139.574 27.6957 139.744 27.5653 139.96 27.418C140.186 27.2593 140.458 27.1177 140.776 26.993C141.093 26.8683 141.45 26.806 141.847 26.806C142.867 26.806 143.632 27.095 144.142 27.673C144.652 28.251 144.907 29.0613 144.907 30.104V32.263L145.264 33.963L144.907 35H142.527V30.036C142.527 29.6053 142.43 29.2767 142.238 29.05C142.056 28.812 141.767 28.693 141.371 28.693L139.637 29.016V35H137.257Z" fill="#1C4570"/>
</svg>
