<svg width="360" height="640" viewBox="0 0 360 640" fill="none" xmlns="http://www.w3.org/2000/svg">
<g clip-path="url(#clip0)">
<rect width="360" height="640" fill="white"/>
<path fill-rule="evenodd" clip-rule="evenodd" d="M210.492 438.31L-2 440C0.393557 438.833 2.79444 437.655 5.22408 436.463C33.5939 422.54 65.8832 406.695 136.189 384.881C165.652 375.74 191.97 371.31 215.368 370.254C215.739 370.12 216.138 370.041 216.594 369.97C217.73 369.794 222.504 367.456 224.749 366.309C225.614 365.642 227.783 364.002 229.53 362.773C231.278 361.544 233.85 362.5 234.918 363.132L240.729 366.217L247.486 367.182L248.805 371.08C325.988 378.71 363.367 424.547 373 437.017L212.245 438.296L210.328 440.028C210.385 439.716 210.44 439.126 210.492 438.31Z" fill="#C9C9C9"/>
<path fill-rule="evenodd" clip-rule="evenodd" d="M331.708 353.05C330.393 354.777 329.679 357.537 329.359 360.708C329.111 359.422 328.718 358.323 328.133 357.555C325.645 354.287 325.039 349.157 325.048 347C323.914 350.38 322.43 357.557 325.556 359.23C327.751 360.405 328.582 365.219 328.809 369.48C327.818 366.444 326.34 363.778 324.151 363.09C323.834 362.441 323.619 361.849 323.509 361.45C323.483 361.845 323.405 362.304 323.318 362.783C320.73 361.623 320.941 359.422 321.171 357.013C321.343 355.214 321.526 353.299 320.563 351.615C318.982 356.755 317.321 365.552 322.54 366.639C324.965 367.144 327.053 370.707 328.516 374.07C325.481 375.246 322.447 376.408 319.402 377.557L309.877 377.075L301.628 374.369C300.117 373.806 296.437 373.023 293.803 374.39C291.169 375.756 287.893 377.569 286.584 378.304C283.231 379.624 276.108 382.327 274.44 382.586C272.355 382.91 272.355 382.91 270.513 384.792C269.463 385.865 268.884 386.995 268.356 388.024C267.958 388.8 267.59 389.519 267.071 390.114C266.14 391.181 265.434 394.264 265.168 395.828C240.389 403.11 211.973 410.029 175.993 416.967C67.127 437.958 0 432 0 432L9.15527e-05 640H360V361.5C353.302 364.221 346.778 366.86 340.323 369.428C341.247 368.439 341.294 366.275 341.337 364.259V364.259C341.357 363.334 341.376 362.441 341.479 361.705C340.671 363.278 338.268 366.767 335.125 368.143C333.604 368.808 332.179 370.82 331.002 373.103C330.859 373.159 330.715 373.215 330.572 373.271C330.629 371.876 330.725 370.43 330.87 368.991C331.684 367.488 332.688 366.201 333.809 365.967C337.039 365.294 336.011 359.848 335.032 356.666C334.436 357.709 334.55 358.894 334.656 360.008C334.812 361.639 334.953 363.116 332.83 363.764C332.319 363.92 331.87 364.25 331.477 364.7C332.267 360.509 333.628 356.957 335.87 355.757C340.921 353.054 338.523 341.459 336.692 336C336.706 339.484 335.728 347.771 331.708 353.05ZM338.936 369.98C338.05 370.331 337.164 370.682 336.28 371.031C337.275 370.375 338.198 369.974 338.936 369.98Z" fill="#AFAFAF"/>
<path fill-rule="evenodd" clip-rule="evenodd" d="M115.385 380.184L149.008 389.194L160.232 401.43L174 411.171L178.089 423.354L191.071 429.03L186.127 447.482L161.524 440.89L143.105 509.63C172.018 524.63 186.833 525.326 200.07 525.948C210.616 526.444 220.161 526.892 235.038 534.49C225.322 522.978 219.444 508.135 219.042 490.502C218.54 468.464 222.345 442.275 238.043 427.502C252.54 413.859 268.043 400 301.043 400C345.778 400 386.543 433.002 382.043 481C382.043 494.331 374.24 510.002 363.043 525.502C351.845 541.002 332.447 562 301.043 562C289.372 562 278.279 560.178 268.238 556.69C312.596 593.043 335 640 335 640H-0.000244141L-0.000120575 510.5C7.39952 501.401 20.0785 491.892 36.4832 486.337C35.9592 486.103 35.4751 485.974 35.0523 485.98C32.7864 486.011 32.7217 482.999 32.6628 480.259C32.643 479.334 32.6238 478.441 32.521 477.705C33.3294 479.278 35.7319 482.767 38.8751 484.143C39.3555 484.353 39.8264 484.697 40.2829 485.142C41.1195 484.899 41.965 484.667 42.819 484.445C42.0656 483.185 41.173 482.172 40.1914 481.967C36.9607 481.294 37.9886 475.848 38.9676 472.666C39.5635 473.709 39.4502 474.894 39.3438 476.008C39.188 477.639 39.0469 479.116 41.1704 479.764C41.6811 479.92 42.1295 480.25 42.523 480.7C41.7329 476.509 40.3721 472.957 38.1297 471.757C33.0788 469.054 35.4771 457.459 37.3076 452C37.2943 455.484 38.2724 463.771 42.2919 469.05C43.6066 470.777 44.3206 473.537 44.6408 476.708C44.8892 475.422 45.282 474.323 45.8669 473.555C48.3552 470.287 48.9607 465.157 48.9524 463C50.0856 466.38 51.5703 473.557 48.4435 475.23C46.528 476.256 45.6517 480.053 45.3089 483.835C45.4879 483.794 45.6672 483.753 45.8469 483.713C46.8025 481.455 48.0983 479.64 49.8493 479.09C50.1664 478.441 50.3806 477.849 50.4912 477.45C50.5169 477.845 50.5948 478.304 50.6822 478.783C53.2697 477.623 53.0594 475.422 52.8293 473.013C52.6574 471.214 52.4744 469.299 53.4369 467.615C55.0184 472.755 56.6789 481.552 51.46 482.639L51.4465 482.642C54.5268 482.151 57.699 481.806 60.9558 481.627L77.8769 418.477L54.0948 412.104L59.0389 393.652L72.5407 399.028L83.7863 393.142L88.0536 388.993L115.385 380.184ZM76.6594 482.066C83.0809 482.771 89.7491 484.141 96.6189 486.303L112.32 427.706L109.45 426.936L107.788 421.657L102.128 421.459L98.7888 424.08L92.6382 422.432L76.6594 482.066ZM110.948 491.873C115.353 493.914 119.824 496.291 124.35 499.033C126.048 500.062 127.707 501.051 129.329 502L146.763 436.935L127.081 431.661L110.948 491.873ZM374.078 480.253L374.043 480.626V481C374.043 487.019 371.981 494.075 368.199 501.826L359.012 496.145L354.847 494.265C356.728 489.624 357.803 485.152 357.803 481.002C358.912 469.169 356.112 458.632 350.651 449.934L365.019 441.054C371.954 452.115 375.466 465.445 374.078 480.253ZM350.162 503.606C348.46 506.496 346.529 509.411 344.429 512.318C339.911 518.57 333.497 526.094 324.682 531.377L328.993 539.091L331.516 545.33C342.336 538.68 350.471 529.242 356.558 520.817C358.86 517.63 360.963 514.502 362.85 511.451L350.162 503.606ZM325.8 548.443C318.635 551.86 310.43 554 301.043 554C289.41 554 278.551 552.055 268.945 548.438L269.817 548.502L272.849 542.193L275.729 533.543C283.304 536.467 291.803 538.002 300.79 538.002C307.533 538.002 313.49 536.627 318.736 534.406L325.8 548.443ZM248.762 536.87C253.177 540.538 258.183 543.678 263.677 546.229L269.591 530.761C259.928 525.681 252.246 518.047 247.684 508.233L238.638 513.399L232.455 515.458C236.23 523.938 241.823 531.102 248.762 536.87ZM227.04 490.32C227.164 495.754 227.862 500.868 229.071 505.65L244.324 498.259C243.584 494.917 243.157 491.39 243.072 487.688C242.946 482.139 243.208 476.216 244.102 470.42L228.73 465.24C227.297 473.485 226.854 482.124 227.04 490.32ZM256.446 443.355C251.188 448.302 247.826 455.068 245.784 462.472L234.81 458.111L230.515 457.133C233.163 447.36 237.387 439.104 243.525 433.328C248.624 428.53 253.497 424.055 258.978 420.219L263.916 432.431L265.574 435.368C262.297 437.891 259.343 440.629 256.446 443.355ZM261.928 449.181C257.97 452.906 255.142 458.376 253.353 465.126L272.077 469.391C273.182 466.227 274.814 463.371 277.152 461.188C277.802 460.581 278.457 459.974 279.128 459.374L269.552 442.414C266.991 444.462 264.528 446.735 261.928 449.181ZM256.681 474.659L251.809 473.017C251.163 477.804 250.962 482.746 251.07 487.506C251.127 489.994 251.362 492.377 251.763 494.655L257.774 491.742L270.285 487.575C270.159 486.584 270.082 485.566 270.058 484.521C270.008 482.341 270.073 480.052 270.306 477.762L256.681 474.659ZM254.709 504.357L273.933 497.954C275.65 500.691 277.881 503.037 280.51 504.953L275.363 515.664L272.472 523.226C269.954 521.837 267.623 520.254 265.505 518.494C260.924 514.687 257.219 509.965 254.709 504.357ZM300.79 530.002C292.54 530.002 284.915 528.568 278.259 525.942L278.421 525.455L286.637 508.359C290.839 510.091 295.611 511.002 300.674 511.002C303.108 511.002 305.35 510.666 307.411 510.083L311.153 519.338L315.126 527.233C310.87 528.964 306.112 530.002 300.79 530.002ZM320.776 524.387L320.388 523.693L313.748 507.272C318.218 504.507 321.494 500.68 323.822 497.484C324.861 496.056 325.823 494.624 326.681 493.202L330.123 495.331L342.938 500.101C341.49 502.517 339.823 505.033 337.945 507.632C333.68 513.535 328.106 519.947 320.776 524.387ZM286.731 450.172L288.029 453.384C291.379 451.929 295.436 451.002 300.674 451.002C301.582 451.002 302.485 451.038 303.382 451.109L307.999 432.456C305.639 432.156 303.231 432.002 300.79 432.002C290.711 432.002 283.596 434.031 277.992 436.882L286.731 450.172ZM268.568 414.591L274.642 429.612C281.387 426.233 289.679 424.002 300.79 424.002C303.872 424.002 306.927 424.224 309.928 424.657L310.592 421.974L315.557 409.261C310.839 408.431 305.981 408 301.043 408C287.054 408 276.793 410.669 268.568 414.591ZM347.55 490.971C349.036 487.237 349.803 483.883 349.803 481.002V480.628L349.838 480.255C350.747 470.553 348.483 461.758 343.961 454.415L332.596 462.886L327.827 465.834C330.255 470.172 331.454 475.301 330.915 481.002C330.915 481.771 330.845 482.56 330.71 483.368L347.55 490.971ZM350.541 444.368L348.011 446.137C341.211 437.265 331.467 430.68 320.404 427.09L326.295 412.003L325.111 411.541C340.29 416.152 353.432 425.066 362.316 437.09L350.541 444.368ZM325.249 462.058L341.422 450.746C335.662 443.293 327.397 437.682 317.817 434.621L315.005 450.536L313.794 453.636C318.294 455.536 322.259 458.407 325.249 462.058ZM322.951 480.249L322.915 480.625V481.002C322.915 483.243 321.363 487.27 317.355 492.774C313.556 497.99 308.396 503.002 300.674 503.002C293.852 503.002 288.186 500.976 284.334 497.8C280.609 494.729 278.193 490.295 278.056 484.337C277.973 480.731 278.258 477.045 279.084 473.842C279.918 470.606 281.165 468.386 282.611 467.035C285.326 464.501 287.427 462.649 290.028 461.29C292.474 460.012 295.717 459.002 300.674 459.002C314.041 459.002 324.067 468.44 322.951 480.249Z" fill="#8A8A8A"/>
<path fill-rule="evenodd" clip-rule="evenodd" d="M321.335 521.361L321.462 521.271L316.515 509.917L295.549 509.293L282.752 506.898C280.342 506.327 275.051 506.091 273.173 509.72C271.296 513.348 269.071 518.082 268.193 519.995C265.386 523.785 259.324 531.641 257.536 532.744L257.535 532.745C255.299 534.124 255.299 534.124 254.903 538.485C254.676 540.972 255.084 543.402 255.456 545.617C255.736 547.286 255.996 548.832 255.948 550.188C255.879 552.166 257.309 556.713 258.504 560.051C250.683 565.374 245.469 569.325 245.269 570.508C244.579 574.566 248.819 578.481 253.705 582.991C254.418 583.65 255.145 584.321 255.872 585.007C260.44 589.316 261.933 602.414 262.108 608.425C272.673 632.179 294.216 681.157 295.868 687.032L317.526 673.671C310.399 662.002 287.2 596.124 287.2 596.124C287.2 596.124 287.134 553.927 326.085 572.136L367.27 644.228L386.379 633.027L341.32 547.808C339.671 544.154 335.353 536.784 331.274 536.532C327.377 536.292 323.18 526.743 321.335 521.361Z" fill="#525252"/>
<path fill-rule="evenodd" clip-rule="evenodd" d="M89.1416 585.125C82.1913 594.253 81.8782 614.8 83.4262 632.39C81.006 622.54 76.8825 612.609 69.9532 610.494C61.2772 607.845 61.8537 601.811 62.4903 595.147C62.925 590.597 63.3877 585.754 60.9534 581.494C56.9534 594.494 52.7537 616.744 65.9534 619.494C74.937 621.365 82.0956 639.829 85.1267 648.992C84.935 650.548 84.7941 651.973 84.7 653.204C84.8956 652.343 85.186 651.371 85.5578 650.318C85.6956 650.749 85.8216 651.15 85.9353 651.518C86.0565 652.199 86.1774 652.855 86.2974 653.483C86.2828 653.185 86.2688 652.881 86.2555 652.571C86.5456 653.542 86.6969 654.097 86.6969 654.097C86.6969 654.097 86.579 651.945 86.2102 648.592C90.1305 638.817 99.6027 624.061 106 622.83C111.628 621.748 110.247 614.255 108.99 607.437C108.566 605.137 108.156 602.914 108.035 601.04C106.837 605.349 102.672 615.22 95.5909 620.237C90.7276 623.682 87.7281 633.748 86.106 642.598C86.3002 623.7 89.1486 597.6 99.6689 591.97C112.444 585.133 106.378 555.808 101.748 542C101.782 550.811 99.308 571.772 89.1416 585.125Z" fill="#525252"/>
<path fill-rule="evenodd" clip-rule="evenodd" d="M181.463 510.289C183.605 513.102 183.701 519.434 183.224 524.855C183.97 521.819 185.241 518.759 187.376 518.107C190.05 517.291 189.872 515.431 189.676 513.378C189.542 511.976 189.399 510.483 190.149 509.171C191.382 513.177 192.676 520.033 188.609 520.881C185.84 521.457 183.634 527.147 182.7 529.971C182.759 530.45 182.803 530.89 182.832 531.269C182.771 531.004 182.682 530.704 182.567 530.379C182.525 530.512 182.486 530.636 182.451 530.75C182.414 530.959 182.376 531.161 182.339 531.355C182.344 531.263 182.348 531.169 182.352 531.074C182.263 531.373 182.216 531.544 182.216 531.544C182.216 531.544 182.253 530.881 182.366 529.848C181.158 526.835 178.239 522.288 176.268 521.909C174.533 521.575 174.959 519.266 175.346 517.165C175.477 516.457 175.603 515.771 175.641 515.194C176.01 516.522 177.293 519.564 179.475 521.11C180.974 522.171 181.898 525.273 182.398 528C182.338 522.177 181.461 514.134 178.219 512.399C174.282 510.292 176.151 501.255 177.578 497C177.568 499.715 178.33 506.175 181.463 510.289Z" fill="#525252"/>
</g>
<defs>
<clipPath id="clip0">
<rect width="360" height="640" fill="white"/>
</clipPath>
</defs>
</svg>
