<svg width="202" height="56" viewBox="0 0 202 56" fill="none" xmlns="http://www.w3.org/2000/svg">
<rect x="1" y="1" width="200" height="54" rx="7" fill="#FFFFF5"/>
<path fill-rule="evenodd" clip-rule="evenodd" d="M8 1C4.13401 1 1 4.13401 1 8V48C1 51.866 4.13401 55 8.00001 55H194C197.866 55 201 51.866 201 48V8C201 4.13401 197.866 1 194 1H8ZM8.30602 10.6695C8.12954 12.9669 8.09425 17.857 9.36488 19.0385C10.9532 20.5154 13.6004 24.4537 14.1298 28.392C14.5935 31.8416 12.2141 36.0464 10.9048 38.3603C10.7193 38.6882 10.5552 38.9781 10.4238 39.2225C10.2473 39.5506 10.0267 39.8925 9.7988 40.2457C8.65902 42.0121 7.33541 44.0633 10.4238 46.1146C14.1298 48.576 26.8362 49.5606 28.9539 49.5606H55.4255C57.5381 49.5606 60.1448 49.6525 62.9743 49.7522C71.4902 50.0523 82.0253 50.4236 87.1913 48.576C88.3485 48.1622 89.4158 47.7623 90.4211 47.3856C95.3949 45.522 98.8481 44.2282 104.133 44.6377C110.486 45.13 122.134 47.0991 126.899 48.576C129.74 49.4566 140.11 48.2369 149.704 47.1085C156.201 46.3445 162.341 45.6223 165.547 45.6223C173.489 45.6223 180.901 46.1146 185.666 46.6068C190.43 47.0991 193.078 40.6993 193.078 35.7764C193.078 34.2464 193.231 32.2884 193.395 30.198C193.758 25.5625 194.172 20.2759 193.078 17.5616C192.662 16.5315 192.428 15.1983 192.185 13.8174C191.5 9.91888 190.748 5.64061 185.666 6.73119C180.125 7.92001 172.184 8.15188 161.841 8.45387C159.335 8.52705 156.688 8.60434 153.9 8.70036C139.605 9.19265 120.546 8.70036 117.898 8.20807C117.096 8.05892 113.233 8.45204 107.942 8.99039C95.7689 10.2289 76.0418 12.2361 68.6612 10.1772C58.0726 7.22348 23.1302 4.26973 16.2475 7.22348C13.0393 8.60033 11.4415 8.58662 10.4891 8.57844C9.39829 8.56908 9.15393 8.56699 8.30602 10.6695Z" fill="#E0E0C7"/>
<rect x="1" y="1" width="200" height="54" rx="7" stroke="#1C4570" stroke-width="2" stroke-linecap="round"/>
<ellipse cx="36.567" cy="16.5" rx="2.57732" ry="2.5" fill="#E0E0C7"/>
<ellipse cx="57.1856" cy="40.5" rx="3.60825" ry="3.5" fill="#E0E0C7"/>
<ellipse cx="171.619" cy="16.5" rx="2.57732" ry="2.5" fill="#E0E0C7"/>
<ellipse cx="123.165" cy="29.5" rx="1.54639" ry="1.5" fill="#E0E0C7"/>
<path d="M58.5446 34V24.684L58.2046 22.984L58.5446 21.964H62.9646C63.8259 21.964 64.5682 22.066 65.1916 22.27C65.8262 22.4627 66.3192 22.78 66.6706 23.222C67.0219 23.664 67.1976 24.2533 67.1976 24.99C67.1976 25.4433 67.1182 25.874 66.9596 26.282C66.8122 26.6787 66.5572 27.013 66.1946 27.285C66.9086 27.5343 67.4526 27.9083 67.8266 28.407C68.2006 28.9057 68.3876 29.5687 68.3876 30.396C68.3876 31.654 68.0362 32.572 67.3336 33.15C66.6309 33.7167 65.5712 34 64.1546 34H58.5446ZM60.9246 26.809H63.2706C64.2226 26.809 64.6986 26.3897 64.6986 25.551C64.6986 25.1317 64.6022 24.7973 64.4096 24.548C64.2169 24.2987 63.8372 24.174 63.2706 24.174H60.9246V26.809ZM60.9246 31.79H63.9846C64.5852 31.79 65.0216 31.654 65.2936 31.382C65.5769 31.11 65.7186 30.7303 65.7186 30.243C65.7186 29.7783 65.5656 29.427 65.2596 29.189C64.9649 28.951 64.4832 28.832 63.8146 28.832H60.9246V31.79ZM73.4063 34.17C72.6696 34.17 72.0123 34.0397 71.4343 33.779C70.8563 33.5183 70.403 33.082 70.0743 32.47C69.7456 31.858 69.5813 31.0307 69.5813 29.988C69.5813 28.9793 69.757 28.169 70.1083 27.557C70.4596 26.945 70.9243 26.503 71.5023 26.231C72.0803 25.9477 72.715 25.806 73.4063 25.806C74.1656 25.806 74.7606 25.891 75.1913 26.061C75.6333 26.231 75.9676 26.3953 76.1943 26.554L77.0443 29.257L76.7043 30.311H71.9443C72.0123 30.9117 72.2276 31.3933 72.5903 31.756C72.953 32.1187 73.5083 32.3 74.2563 32.3C74.8683 32.3 75.3613 32.2263 75.7353 32.079C76.1206 31.9317 76.387 31.8183 76.5343 31.739V33.507C76.1943 33.6883 75.758 33.847 75.2253 33.983C74.704 34.1077 74.0976 34.17 73.4063 34.17ZM71.9273 29.223L74.4773 28.883L74.2223 27.625C74.143 27.5797 74.0296 27.5457 73.8823 27.523C73.7463 27.5003 73.6216 27.489 73.5083 27.489C72.9983 27.489 72.6073 27.6703 72.3353 28.033C72.0633 28.3843 71.9273 28.781 71.9273 29.223ZM81.0599 34.17C80.3345 34.17 79.7282 34.1077 79.2409 33.983C78.7649 33.8583 78.3795 33.7167 78.0849 33.558V31.552C78.4929 31.7673 78.9575 31.9543 79.4789 32.113C80.0115 32.2603 80.5215 32.334 81.0089 32.334C81.5869 32.334 81.8759 32.147 81.8759 31.773C81.8759 31.569 81.7909 31.416 81.6209 31.314C81.4622 31.212 81.2355 31.1213 80.9409 31.042C80.6575 30.9513 80.3289 30.8437 79.9549 30.719C79.3089 30.4923 78.8102 30.2033 78.4589 29.852C78.1075 29.5007 77.9319 28.951 77.9319 28.203C77.9319 27.3983 78.2095 26.7977 78.7649 26.401C79.3315 26.0043 80.0739 25.806 80.9919 25.806C81.3659 25.806 81.6832 25.8287 81.9439 25.874C82.2045 25.908 82.4425 25.942 82.6579 25.976L84.2049 26.826L83.5419 28.475L80.9919 27.659C80.7765 27.659 80.6009 27.7043 80.4649 27.795C80.3402 27.8743 80.2779 27.9877 80.2779 28.135C80.2779 28.373 80.3969 28.5543 80.6349 28.679C80.8729 28.7923 81.2185 28.917 81.6719 29.053C82.5899 29.325 83.2642 29.6537 83.6949 30.039C84.1255 30.4243 84.3409 30.991 84.3409 31.739C84.3409 32.4303 84.0689 33.0083 83.5249 33.473C82.9922 33.9377 82.1705 34.17 81.0599 34.17ZM88.2938 34.17C87.5231 34.17 86.9621 34 86.6108 33.66C86.2594 33.32 86.0838 32.8043 86.0838 32.113V27.557H85.0128V26.452L85.9138 25.619L87.1208 23.511H88.4468V25.976H90.6568V27.676H88.4468V32.334L90.6568 32.317V33.66C90.6568 33.66 90.5661 33.7053 90.3848 33.796C90.2034 33.8753 89.9371 33.9547 89.5858 34.034C89.2458 34.1247 88.8151 34.17 88.2938 34.17ZM98.7239 34.17C97.9986 34.17 97.3923 34.1077 96.9049 33.983C96.4289 33.8583 96.0436 33.7167 95.7489 33.558V31.552C96.1569 31.7673 96.6216 31.9543 97.1429 32.113C97.6756 32.2603 98.1856 32.334 98.6729 32.334C99.2509 32.334 99.5399 32.147 99.5399 31.773C99.5399 31.569 99.4549 31.416 99.2849 31.314C99.1263 31.212 98.8996 31.1213 98.6049 31.042C98.3216 30.9513 97.9929 30.8437 97.6189 30.719C96.9729 30.4923 96.4743 30.2033 96.1229 29.852C95.7716 29.5007 95.5959 28.951 95.5959 28.203C95.5959 27.3983 95.8736 26.7977 96.4289 26.401C96.9956 26.0043 97.7379 25.806 98.6559 25.806C99.0299 25.806 99.3473 25.8287 99.6079 25.874C99.8686 25.908 100.107 25.942 100.322 25.976L101.869 26.826L101.206 28.475L98.6559 27.659C98.4406 27.659 98.2649 27.7043 98.1289 27.795C98.0043 27.8743 97.9419 27.9877 97.9419 28.135C97.9419 28.373 98.0609 28.5543 98.2989 28.679C98.5369 28.7923 98.8826 28.917 99.3359 29.053C100.254 29.325 100.928 29.6537 101.359 30.039C101.79 30.4243 102.005 30.991 102.005 31.739C102.005 32.4303 101.733 33.0083 101.189 33.473C100.656 33.9377 99.8346 34.17 98.7239 34.17ZM106.672 34.17C105.981 34.17 105.357 34.0397 104.802 33.779C104.247 33.507 103.81 33.065 103.493 32.453C103.176 31.841 103.017 31.0193 103.017 29.988C103.017 28.934 103.193 28.1067 103.544 27.506C103.907 26.894 104.388 26.4577 104.989 26.197C105.601 25.9363 106.275 25.806 107.012 25.806C107.533 25.806 107.919 25.8287 108.168 25.874C108.429 25.908 108.65 25.9477 108.831 25.993L110.157 27.489L109.137 28.832L107.352 27.676C106.785 27.676 106.343 27.8743 106.026 28.271C105.709 28.6677 105.55 29.24 105.55 29.988C105.55 30.7813 105.72 31.365 106.06 31.739C106.4 32.113 106.887 32.3 107.522 32.3C107.941 32.3 108.315 32.2547 108.644 32.164C108.984 32.062 109.267 31.9543 109.494 31.841C109.721 31.7163 109.879 31.6257 109.97 31.569V33.507C109.687 33.6543 109.273 33.8017 108.729 33.949C108.196 34.0963 107.511 34.17 106.672 34.17ZM115.363 34.17C113.98 34.17 112.966 33.8073 112.32 33.082C111.674 32.3567 111.351 31.3253 111.351 29.988C111.351 28.6393 111.674 27.608 112.32 26.894C112.966 26.1687 113.98 25.806 115.363 25.806C116.791 25.806 117.811 26.1687 118.423 26.894C119.046 27.608 119.358 28.6393 119.358 29.988C119.358 31.3253 119.046 32.3567 118.423 33.082C117.811 33.8073 116.791 34.17 115.363 34.17ZM115.363 32.47C115.827 32.47 116.207 32.2887 116.502 31.926C116.808 31.5633 116.961 30.9173 116.961 29.988C116.961 29.0587 116.808 28.4127 116.502 28.05C116.207 27.6873 115.827 27.506 115.363 27.506C114.887 27.506 114.496 27.6873 114.19 28.05C113.895 28.4127 113.748 29.0587 113.748 29.988C113.748 30.9173 113.901 31.5633 114.207 31.926C114.513 32.2887 114.898 32.47 115.363 32.47ZM120.909 34V28.679L120.552 26.979L120.909 25.959H122.541L122.881 26.35C122.881 26.35 122.955 26.3047 123.102 26.214C123.261 26.112 123.482 26.0157 123.765 25.925C124.048 25.8343 124.394 25.789 124.802 25.789C125.029 25.789 125.255 25.806 125.482 25.84C125.709 25.874 125.884 25.9193 126.009 25.976L127.114 27.081L126.179 28.747L123.85 27.574L123.255 27.812V34H120.909ZM131.379 34.17C130.642 34.17 129.985 34.0397 129.407 33.779C128.829 33.5183 128.376 33.082 128.047 32.47C127.718 31.858 127.554 31.0307 127.554 29.988C127.554 28.9793 127.73 28.169 128.081 27.557C128.432 26.945 128.897 26.503 129.475 26.231C130.053 25.9477 130.688 25.806 131.379 25.806C132.138 25.806 132.733 25.891 133.164 26.061C133.606 26.231 133.94 26.3953 134.167 26.554L135.017 29.257L134.677 30.311H129.917C129.985 30.9117 130.2 31.3933 130.563 31.756C130.926 32.1187 131.481 32.3 132.229 32.3C132.841 32.3 133.334 32.2263 133.708 32.079C134.093 31.9317 134.36 31.8183 134.507 31.739V33.507C134.167 33.6883 133.731 33.847 133.198 33.983C132.677 34.1077 132.07 34.17 131.379 34.17ZM129.9 29.223L132.45 28.883L132.195 27.625C132.116 27.5797 132.002 27.5457 131.855 27.523C131.719 27.5003 131.594 27.489 131.481 27.489C130.971 27.489 130.58 27.6703 130.308 28.033C130.036 28.3843 129.9 28.781 129.9 29.223ZM139.033 34.17C138.307 34.17 137.701 34.1077 137.214 33.983C136.738 33.8583 136.352 33.7167 136.058 33.558V31.552C136.466 31.7673 136.93 31.9543 137.452 32.113C137.984 32.2603 138.494 32.334 138.982 32.334C139.56 32.334 139.849 32.147 139.849 31.773C139.849 31.569 139.764 31.416 139.594 31.314C139.435 31.212 139.208 31.1213 138.914 31.042C138.63 30.9513 138.302 30.8437 137.928 30.719C137.282 30.4923 136.783 30.2033 136.432 29.852C136.08 29.5007 135.905 28.951 135.905 28.203C135.905 27.3983 136.182 26.7977 136.738 26.401C137.304 26.0043 138.047 25.806 138.965 25.806C139.339 25.806 139.656 25.8287 139.917 25.874C140.177 25.908 140.415 25.942 140.631 25.976L142.178 26.826L141.515 28.475L138.965 27.659C138.749 27.659 138.574 27.7043 138.438 27.795C138.313 27.8743 138.251 27.9877 138.251 28.135C138.251 28.373 138.37 28.5543 138.608 28.679C138.846 28.7923 139.191 28.917 139.645 29.053C140.563 29.325 141.237 29.6537 141.668 30.039C142.098 30.4243 142.314 30.991 142.314 31.739C142.314 32.4303 142.042 33.0083 141.498 33.473C140.965 33.9377 140.143 34.17 139.033 34.17Z" fill="#1C4570"/>
</svg>
