<svg width="248" height="285" viewBox="0 0 248 285" fill="none" xmlns="http://www.w3.org/2000/svg">
<rect x="3" y="3" width="242" height="279" rx="7" fill="#FFFFF5"/>
<path fill-rule="evenodd" clip-rule="evenodd" d="M10 3C6.13401 3 3 6.13401 3 10V275C3 278.866 6.134 282 9.99999 282H238C241.866 282 245 278.866 245 275V10C245 6.13401 241.866 3 238 3H10ZM12.3006 53.2214C7.14647 68.9252 12.0452 90.3646 13.5777 96.4704C15.4933 104.103 18.686 124.455 19.3245 144.807C19.8838 162.634 17.0141 184.364 15.4349 196.321C15.2112 198.016 15.0133 199.514 14.8548 200.777C14.642 202.473 14.3759 204.239 14.101 206.065C12.7264 215.193 11.13 225.793 14.8548 236.394C19.3245 249.114 24.4209 260.567 24.4209 260.567C24.4209 260.567 45.3274 262.964 62.7959 260.567C70.3667 259.528 76.9482 261.473 83.9118 263.531C90.7044 265.538 97.8606 267.653 106.653 267.211C117.779 266.651 126.464 265.27 135.158 263.887C143.788 262.514 152.426 261.14 163.468 260.567C170.12 260.221 176.403 261.208 182.533 262.17C192.71 263.768 202.468 265.3 212.807 260.567C236.41 249.76 236.133 236.783 235.433 204.077C235.298 197.807 235.149 190.812 235.149 182.968C235.149 171.793 232.515 159.033 230.113 147.392C227.046 132.531 224.355 119.494 228 113.907C233.532 105.427 232.545 55.0224 232.128 33.7273C232.055 29.999 232 27.1629 232 25.6004C232 11.761 210.74 13.0196 193.5 15.5637C187.447 16.4569 182.239 18.5346 177.257 20.5226C168.048 24.1968 159.608 27.5644 148.018 22.5802C140.515 19.3532 129.396 19.3601 115.477 19.3687C100.736 19.3778 82.8542 19.3888 62.7959 15.5637C45.5559 12.276 41.2 14.5678 29.525 20.7105C26.8093 22.1394 23.6975 23.7766 19.9355 25.6004C15.7664 27.6215 14.8704 35.5476 14.0345 42.9413C13.5953 46.8263 13.1727 50.5643 12.3006 53.2214Z" fill="#E0E0C7"/>
<rect x="3" y="3" width="242" height="279" rx="7" stroke="#1C4570" stroke-width="6" stroke-linecap="round"/>
<ellipse cx="173.619" cy="16.4301" rx="2.57732" ry="2.16615" fill="#E0E0C7"/>
<g opacity="0.4">
<ellipse cx="185" cy="145.099" rx="3" ry="2.59938" fill="#E0E0C7"/>
<ellipse cx="101" cy="118.239" rx="3" ry="2.59938" fill="#E0E0C7"/>
<ellipse cx="194" cy="233.478" rx="3" ry="2.59937" fill="#E0E0C7"/>
<ellipse cx="76" cy="201.419" rx="3" ry="2.59938" fill="#E0E0C7"/>
<ellipse cx="188" cy="100.91" rx="3" ry="2.59938" fill="#E0E0C7"/>
<ellipse cx="163" cy="184.09" rx="3" ry="2.59938" fill="#E0E0C7"/>
<ellipse cx="130" cy="44.5901" rx="3" ry="2.59938" fill="#E0E0C7"/>
<ellipse cx="59" cy="74.9163" rx="3" ry="2.59938" fill="#E0E0C7"/>
<ellipse cx="209" cy="169.36" rx="4" ry="3.46584" fill="#E0E0C7"/>
<ellipse cx="52.5" cy="34.6259" rx="6.5" ry="5.63199" fill="#E0E0C7"/>
<ellipse cx="126.5" cy="155.93" rx="6.5" ry="5.632" fill="#E0E0C7"/>
<ellipse cx="101.5" cy="239.11" rx="6.5" ry="5.63199" fill="#E0E0C7"/>
<ellipse cx="145" cy="75.7827" rx="4" ry="3.46584" fill="#E0E0C7"/>
<ellipse cx="46" cy="158.096" rx="4" ry="3.46584" fill="#E0E0C7"/>
<ellipse cx="207.546" cy="40.691" rx="1.54639" ry="1.29969" fill="#E0E0C7"/>
</g>
</svg>
