<svg width="29" height="31" viewBox="0 0 29 31" fill="none" xmlns="http://www.w3.org/2000/svg">
<path fill-rule="evenodd" clip-rule="evenodd" d="M12.7301 0C12.1778 0 11.7301 0.447715 11.7301 1V2.2968C11.7301 2.33838 11.7326 2.37936 11.7375 2.41961C5.06944 3.58121 0 9.39765 0 16.3981C0 24.2348 6.3529 30.5877 14.1896 30.5877C22.0263 30.5877 28.3792 24.2348 28.3792 16.3981C28.3792 9.39763 23.3097 3.58118 16.6416 2.4196C16.6466 2.37936 16.6491 2.33838 16.6491 2.2968V1C16.6491 0.447715 16.2014 0 15.6491 0H12.7301Z" fill="#1C4570"/>
<circle cx="14.1896" cy="16.3981" r="11.0364" fill="#F2F2F2"/>
<path d="M15.6709 16.9444C15.6709 17.5566 15.0077 18.0529 14.1896 18.0529C13.3715 18.0529 12.7084 17.5566 12.7084 16.9444C12.7084 16.3322 13.3715 9.21181 14.1896 9.21181C15.0077 9.21181 15.6709 16.3322 15.6709 16.9444Z" fill="#1C4570"/>
</svg>
