<svg width="18" height="18" viewBox="0 0 18 18" fill="none" xmlns="http://www.w3.org/2000/svg">
<circle cx="9" cy="9" r="8.4375" fill="#FFDF6D" stroke="#C6A01C" stroke-width="1.125" stroke-dasharray="3.94 1.12"/>
<path d="M8.559 12.4256L8.57812 11.9188C8.253 11.8869 7.92788 11.8328 7.60275 11.7563C7.27763 11.6734 6.98756 11.5809 6.73256 11.4789C6.48394 11.3706 6.30225 11.259 6.1875 11.1442L6.65606 10.0063C6.97481 10.1721 7.29356 10.3091 7.61231 10.4175C7.93744 10.5259 8.28169 10.6056 8.64506 10.6566L8.70244 9.31781C8.61956 9.30506 8.54625 9.29231 8.4825 9.27956C7.9215 9.18394 7.47206 9.05963 7.13419 8.90663C6.79631 8.74725 6.55406 8.54644 6.40744 8.30419C6.26081 8.05556 6.1875 7.75275 6.1875 7.39575C6.1875 6.8475 6.40106 6.42356 6.82819 6.12394C7.25531 5.82431 7.84181 5.65219 8.58769 5.60756L8.559 5.0625H9.68738L9.65869 5.60756C10.2516 5.63944 10.6946 5.70956 10.9879 5.81794C11.2875 5.92631 11.4979 6.01556 11.619 6.08569L11.2365 7.22363C11.0899 7.17263 10.8827 7.11206 10.6149 7.04194C10.3536 6.96544 10.0157 6.90488 9.60131 6.86025L9.54394 8.199C9.60769 8.21175 9.66825 8.22131 9.72563 8.22769C10.1719 8.29781 10.5671 8.403 10.9114 8.54325C11.2556 8.6835 11.5266 8.87794 11.7242 9.12656C11.9218 9.37519 12.0206 9.70031 12.0206 10.1019C12.0206 10.6502 11.8198 11.0773 11.4182 11.3833C11.0166 11.6829 10.4333 11.8646 9.66825 11.9284L9.68738 12.4256H8.559ZM7.52625 7.50094C7.52625 7.68581 7.63781 7.81969 7.86094 7.90256C8.09044 7.97906 8.37094 8.04281 8.70244 8.09381L8.64506 6.80288C8.60681 6.80288 8.56538 6.80288 8.52075 6.80288C8.202 6.80288 7.95656 6.86663 7.78444 6.99413C7.61231 7.11525 7.52625 7.28419 7.52625 7.50094ZM10.6245 10.0159C10.6245 9.87563 10.5225 9.76406 10.3185 9.68119C10.1209 9.59831 9.86269 9.525 9.54394 9.46125L9.61088 10.7139C10.2866 10.7012 10.6245 10.4685 10.6245 10.0159Z" fill="#C6A01C"/>
</svg>
