<svg width="202" height="56" viewBox="0 0 202 56" fill="none" xmlns="http://www.w3.org/2000/svg">
<rect x="1" y="1" width="200" height="54" rx="7" fill="#FFFFF5"/>
<path fill-rule="evenodd" clip-rule="evenodd" d="M8 1C4.13401 1 1 4.13401 1 8V48C1 51.866 4.13401 55 8.00001 55H194C197.866 55 201 51.866 201 48V8C201 4.13401 197.866 1 194 1H8ZM8.30602 10.6695C8.12954 12.9669 8.09425 17.857 9.36488 19.0385C10.9532 20.5154 13.6004 24.4537 14.1298 28.392C14.5935 31.8416 12.2141 36.0464 10.9048 38.3603C10.7193 38.6882 10.5552 38.9781 10.4238 39.2225C10.2473 39.5506 10.0267 39.8925 9.7988 40.2457C8.65902 42.0121 7.33541 44.0633 10.4238 46.1146C14.1298 48.576 26.8362 49.5606 28.9539 49.5606H55.4255C57.5381 49.5606 60.1448 49.6525 62.9743 49.7522C71.4902 50.0523 82.0253 50.4236 87.1913 48.576C88.3485 48.1622 89.4158 47.7623 90.4211 47.3856C95.3949 45.522 98.8481 44.2282 104.133 44.6377C110.486 45.13 122.134 47.0991 126.899 48.576C129.74 49.4566 140.11 48.2369 149.704 47.1085C156.201 46.3445 162.341 45.6223 165.547 45.6223C173.489 45.6223 180.901 46.1146 185.666 46.6068C190.43 47.0991 193.078 40.6993 193.078 35.7764C193.078 34.2464 193.231 32.2884 193.395 30.198C193.758 25.5625 194.172 20.2759 193.078 17.5616C192.662 16.5315 192.428 15.1983 192.185 13.8174C191.5 9.91888 190.748 5.64061 185.666 6.73119C180.125 7.92001 172.184 8.15188 161.841 8.45387C159.335 8.52705 156.688 8.60434 153.9 8.70036C139.605 9.19265 120.546 8.70036 117.898 8.20807C117.096 8.05892 113.233 8.45204 107.942 8.99039C95.7689 10.2289 76.0418 12.2361 68.6612 10.1772C58.0726 7.22348 23.1302 4.26973 16.2475 7.22348C13.0393 8.60033 11.4415 8.58662 10.4891 8.57844C9.39829 8.56908 9.15393 8.56699 8.30602 10.6695Z" fill="#E0E0C7"/>
<rect x="1" y="1" width="200" height="54" rx="7" stroke="#1C4570" stroke-width="2" stroke-linecap="round"/>
<ellipse cx="36.567" cy="16.5" rx="2.57732" ry="2.5" fill="#E0E0C7"/>
<ellipse cx="57.1856" cy="40.5" rx="3.60825" ry="3.5" fill="#E0E0C7"/>
<ellipse cx="171.619" cy="16.5" rx="2.57732" ry="2.5" fill="#E0E0C7"/>
<ellipse cx="123.165" cy="29.5" rx="1.54639" ry="1.5" fill="#E0E0C7"/>
<path d="M43.7583 35.17C43.0896 35.17 42.4153 35.0737 41.7353 34.881C41.0666 34.6883 40.4489 34.3653 39.8823 33.912C39.3269 33.4473 38.8793 32.8183 38.5393 32.025C38.1993 31.2203 38.0293 30.206 38.0293 28.982C38.0293 27.7467 38.2673 26.67 38.7433 25.752C39.2306 24.8227 39.8936 24.0973 40.7323 23.576C41.5709 23.0547 42.5229 22.794 43.5883 22.794C44.0983 22.794 44.5856 22.8393 45.0503 22.93C45.5263 23.0207 45.8889 23.1227 46.1383 23.236L48.0253 24.953L46.8353 26.738L43.9283 25.242C43.2936 25.242 42.7213 25.395 42.2113 25.701C41.7013 26.007 41.2933 26.4433 40.9873 27.01C40.6926 27.5653 40.5453 28.2227 40.5453 28.982C40.5453 29.8547 40.6983 30.5743 41.0043 31.141C41.3216 31.7077 41.7523 32.1327 42.2963 32.416C42.8403 32.688 43.4466 32.824 44.1153 32.824C44.7953 32.824 45.3789 32.7673 45.8662 32.654C46.3536 32.5293 46.7616 32.3933 47.0903 32.246C47.4189 32.0873 47.6683 31.9513 47.8383 31.838V34.15C47.5209 34.3653 47.0336 34.592 46.3763 34.83C45.7303 35.0567 44.8576 35.17 43.7583 35.17ZM51.8667 35.17C51.1867 35.17 50.6597 35.0397 50.2857 34.779C49.9231 34.5183 49.6681 34.1443 49.5207 33.657C49.3847 33.1583 49.3167 32.5633 49.3167 31.872V26.959H51.6967V31.94C51.6967 32.4047 51.7817 32.7447 51.9517 32.96C52.1331 33.1753 52.4334 33.283 52.8527 33.283C53.3854 33.283 53.8047 33.079 54.1107 32.671C54.4281 32.263 54.5867 31.787 54.5867 31.243V26.959H56.9667V32.263L57.3237 33.963L56.9667 35H54.7737V34.167L54.6037 34.082C54.4564 34.2293 54.2411 34.388 53.9577 34.558C53.6857 34.728 53.3684 34.8753 53.0057 35C52.6544 35.1133 52.2747 35.17 51.8667 35.17ZM59.037 35V29.679L58.68 27.979L59.037 26.959H60.669L61.009 27.35C61.009 27.35 61.0827 27.3047 61.23 27.214C61.3887 27.112 61.6097 27.0157 61.893 26.925C62.1763 26.8343 62.522 26.789 62.93 26.789C63.1567 26.789 63.3833 26.806 63.61 26.84C63.8367 26.874 64.0123 26.9193 64.137 26.976L65.242 28.081L64.307 29.747L61.978 28.574L61.383 28.812V35H59.037ZM66.2753 35V29.679L65.9183 27.979L66.2753 26.959H67.9073L68.2473 27.35C68.2473 27.35 68.3209 27.3047 68.4683 27.214C68.6269 27.112 68.8479 27.0157 69.1313 26.925C69.4146 26.8343 69.7603 26.789 70.1683 26.789C70.3949 26.789 70.6216 26.806 70.8483 26.84C71.0749 26.874 71.2506 26.9193 71.3753 26.976L72.4803 28.081L71.5453 29.747L69.2163 28.574L68.6213 28.812V35H66.2753ZM74.6866 26.126L72.8676 24.307L74.6866 22.488L76.4886 24.307L74.6866 26.126ZM73.4966 35V29.373L73.1396 28.013L73.4796 26.976H75.8596V35H73.4966ZM80.8916 35.17C80.2002 35.17 79.5769 35.0397 79.0216 34.779C78.4662 34.507 78.0299 34.065 77.7126 33.453C77.3952 32.841 77.2366 32.0193 77.2366 30.988C77.2366 29.934 77.4122 29.1067 77.7636 28.506C78.1262 27.894 78.6079 27.4577 79.2086 27.197C79.8206 26.9363 80.4949 26.806 81.2316 26.806C81.7529 26.806 82.1382 26.8287 82.3876 26.874C82.6482 26.908 82.8692 26.9477 83.0506 26.993L84.3766 28.489L83.3566 29.832L81.5716 28.676C81.0049 28.676 80.5629 28.8743 80.2456 29.271C79.9282 29.6677 79.7696 30.24 79.7696 30.988C79.7696 31.7813 79.9396 32.365 80.2796 32.739C80.6196 33.113 81.1069 33.3 81.7416 33.3C82.1609 33.3 82.5349 33.2547 82.8636 33.164C83.2036 33.062 83.4869 32.9543 83.7136 32.841C83.9402 32.7163 84.0989 32.6257 84.1896 32.569V34.507C83.9062 34.6543 83.4926 34.8017 82.9486 34.949C82.4159 35.0963 81.7302 35.17 80.8916 35.17ZM88.2905 35.17C87.6105 35.17 87.0835 35.0397 86.7095 34.779C86.3469 34.5183 86.0919 34.1443 85.9445 33.657C85.8085 33.1583 85.7405 32.5633 85.7405 31.872V26.959H88.1205V31.94C88.1205 32.4047 88.2055 32.7447 88.3755 32.96C88.5569 33.1753 88.8572 33.283 89.2765 33.283C89.8092 33.283 90.2285 33.079 90.5345 32.671C90.8519 32.263 91.0105 31.787 91.0105 31.243V26.959H93.3905V32.263L93.7475 33.963L93.3905 35H91.1975V34.167L91.0275 34.082C90.8802 34.2293 90.6649 34.388 90.3815 34.558C90.1095 34.728 89.7922 34.8753 89.4295 35C89.0782 35.1133 88.6985 35.17 88.2905 35.17ZM95.3928 35V25.684L95.0358 23.984L95.3928 22.964H97.7728V35H95.3928ZM101.97 35.17C101.29 35.17 100.763 35.0397 100.389 34.779C100.027 34.5183 99.7716 34.1443 99.6242 33.657C99.4882 33.1583 99.4202 32.5633 99.4202 31.872V26.959H101.8V31.94C101.8 32.4047 101.885 32.7447 102.055 32.96C102.237 33.1753 102.537 33.283 102.956 33.283C103.489 33.283 103.908 33.079 104.214 32.671C104.532 32.263 104.69 31.787 104.69 31.243V26.959H107.07V32.263L107.427 33.963L107.07 35H104.877V34.167L104.707 34.082C104.56 34.2293 104.345 34.388 104.061 34.558C103.789 34.728 103.472 34.8753 103.109 35C102.758 35.1133 102.378 35.17 101.97 35.17ZM108.784 28.013L109.311 26.976H111.164V27.707L111.317 27.809C111.441 27.6957 111.611 27.5653 111.827 27.418C112.053 27.2593 112.325 27.1177 112.643 26.993C112.96 26.8683 113.317 26.806 113.714 26.806C114.892 26.806 115.737 27.197 116.247 27.979C116.439 27.6957 116.74 27.4293 117.148 27.18C117.567 26.9193 118.145 26.789 118.882 26.789C119.902 26.789 120.667 27.078 121.177 27.656C121.687 28.234 121.942 29.0443 121.942 30.087V32.263L122.299 33.963L121.942 35H119.579V30.019C119.579 29.5883 119.46 29.2597 119.222 29.033C118.995 28.795 118.666 28.676 118.236 28.676C117.794 28.676 117.437 28.8007 117.165 29.05C116.904 29.2993 116.774 29.628 116.774 30.036V30.104V35H114.394V30.036C114.394 29.6053 114.297 29.2767 114.105 29.05C113.923 28.812 113.634 28.693 113.238 28.693L111.504 29.016V35H109.124V29.883L108.784 28.013ZM129.818 35L127.676 29.186L127.336 26.976H129.886L131.161 32.62H131.501L132.793 26.976H135.326L134.986 29.186L132.708 35H129.818ZM137.872 26.126L136.053 24.307L137.872 22.488L139.674 24.307L137.872 26.126ZM136.682 35V29.373L136.325 28.013L136.665 26.976H139.045V35H136.682ZM143.363 35.17C142.592 35.17 142.031 35 141.68 34.66C141.329 34.32 141.153 33.8043 141.153 33.113V28.557H140.082V27.452L140.983 26.619L142.19 24.511H143.516V26.976H145.726V28.676H143.516V33.334L145.726 33.317V34.66C145.726 34.66 145.635 34.7053 145.454 34.796C145.273 34.8753 145.006 34.9547 144.655 35.034C144.315 35.1247 143.884 35.17 143.363 35.17ZM149.301 35.17C148.542 35.17 147.896 34.9773 147.363 34.592C146.842 34.1953 146.581 33.5833 146.581 32.756C146.581 31.8833 146.859 31.2203 147.414 30.767C147.97 30.3023 148.712 30.07 149.641 30.07C150.321 30.07 150.837 30.1267 151.188 30.24C151.551 30.3533 151.789 30.4383 151.902 30.495L152.021 30.393C152.021 30.053 151.993 29.7527 151.936 29.492C151.88 29.2313 151.749 29.033 151.545 28.897C151.341 28.7497 151.024 28.676 150.593 28.676C149.823 28.676 149.131 28.7383 148.519 28.863C147.919 28.9877 147.443 29.101 147.091 29.203V27.333C147.443 27.2083 147.975 27.095 148.689 26.993C149.403 26.8797 150.174 26.823 151.001 26.823C151.704 26.823 152.276 26.9193 152.718 27.112C153.172 27.2933 153.517 27.5427 153.755 27.86C154.005 28.1773 154.175 28.5287 154.265 28.914C154.367 29.288 154.418 29.662 154.418 30.036V32.297L154.758 34.014L154.418 35.017H152.191V34.184L152.021 34.099C151.931 34.2123 151.772 34.354 151.545 34.524C151.33 34.694 151.035 34.847 150.661 34.983C150.299 35.1077 149.845 35.17 149.301 35.17ZM150.236 33.283C150.724 33.283 151.103 33.2377 151.375 33.147C151.659 33.0563 151.874 32.9657 152.021 32.875V32.552C152.021 32.3367 151.891 32.1213 151.63 31.906C151.381 31.6907 150.967 31.583 150.389 31.583C149.959 31.583 149.641 31.668 149.437 31.838C149.233 32.008 149.131 32.2233 149.131 32.484C149.131 32.756 149.228 32.96 149.42 33.096C149.613 33.2207 149.885 33.283 150.236 33.283ZM159.703 35.17C158.966 35.17 158.309 35.0397 157.731 34.779C157.153 34.5183 156.7 34.082 156.371 33.47C156.042 32.858 155.878 32.0307 155.878 30.988C155.878 29.9793 156.054 29.169 156.405 28.557C156.756 27.945 157.221 27.503 157.799 27.231C158.377 26.9477 159.012 26.806 159.703 26.806C160.462 26.806 161.057 26.891 161.488 27.061C161.93 27.231 162.264 27.3953 162.491 27.554L163.341 30.257L163.001 31.311H158.241C158.309 31.9117 158.524 32.3933 158.887 32.756C159.25 33.1187 159.805 33.3 160.553 33.3C161.165 33.3 161.658 33.2263 162.032 33.079C162.417 32.9317 162.684 32.8183 162.831 32.739V34.507C162.491 34.6883 162.055 34.847 161.522 34.983C161.001 35.1077 160.394 35.17 159.703 35.17ZM158.224 30.223L160.774 29.883L160.519 28.625C160.44 28.5797 160.326 28.5457 160.179 28.523C160.043 28.5003 159.918 28.489 159.805 28.489C159.295 28.489 158.904 28.6703 158.632 29.033C158.36 29.3843 158.224 29.781 158.224 30.223Z" fill="#1C4570"/>
</svg>
