<svg width="202" height="56" viewBox="0 0 202 56" fill="none" xmlns="http://www.w3.org/2000/svg">
<rect x="1" y="1" width="200" height="54" rx="7" fill="#FFFFF5"/>
<path fill-rule="evenodd" clip-rule="evenodd" d="M8 1C4.13401 1 1 4.13401 1 8V48C1 51.866 4.13401 55 8.00001 55H194C197.866 55 201 51.866 201 48V8C201 4.13401 197.866 1 194 1H8ZM8.30602 10.6695C8.12954 12.9669 8.09425 17.857 9.36488 19.0385C10.9532 20.5154 13.6004 24.4537 14.1298 28.392C14.5935 31.8416 12.2141 36.0464 10.9048 38.3603C10.7193 38.6882 10.5552 38.9781 10.4238 39.2225C10.2473 39.5506 10.0267 39.8925 9.7988 40.2457C8.65902 42.0121 7.33541 44.0633 10.4238 46.1146C14.1298 48.576 26.8362 49.5606 28.9539 49.5606H55.4255C57.5381 49.5606 60.1448 49.6525 62.9743 49.7522C71.4902 50.0523 82.0253 50.4236 87.1913 48.576C88.3485 48.1622 89.4158 47.7623 90.4211 47.3856C95.3949 45.522 98.8481 44.2282 104.133 44.6377C110.486 45.13 122.134 47.0991 126.899 48.576C129.74 49.4566 140.11 48.2369 149.704 47.1085C156.201 46.3445 162.341 45.6223 165.547 45.6223C173.489 45.6223 180.901 46.1146 185.666 46.6068C190.43 47.0991 193.078 40.6993 193.078 35.7764C193.078 34.2464 193.231 32.2884 193.395 30.198C193.758 25.5625 194.172 20.2759 193.078 17.5616C192.662 16.5315 192.428 15.1983 192.185 13.8174C191.5 9.91888 190.748 5.64061 185.666 6.73119C180.125 7.92001 172.184 8.15188 161.841 8.45387C159.335 8.52705 156.688 8.60434 153.9 8.70036C139.605 9.19265 120.546 8.70036 117.898 8.20807C117.096 8.05892 113.233 8.45204 107.942 8.99039C95.7689 10.2289 76.0418 12.2361 68.6612 10.1772C58.0726 7.22348 23.1302 4.26973 16.2475 7.22348C13.0393 8.60033 11.4415 8.58662 10.4891 8.57844C9.39829 8.56908 9.15393 8.56699 8.30602 10.6695Z" fill="#E0E0C7"/>
<rect x="1" y="1" width="200" height="54" rx="7" stroke="#1C4570" stroke-width="2" stroke-linecap="round"/>
<ellipse cx="36.567" cy="16.5" rx="2.57732" ry="2.5" fill="#E0E0C7"/>
<ellipse cx="57.1856" cy="40.5" rx="3.60825" ry="3.5" fill="#E0E0C7"/>
<ellipse cx="171.619" cy="16.5" rx="2.57732" ry="2.5" fill="#E0E0C7"/>
<ellipse cx="123.165" cy="29.5" rx="1.54639" ry="1.5" fill="#E0E0C7"/>
<path d="M67.5299 35V25.701L67.1899 24.001L67.5299 22.964H71.2359C72.0519 22.964 72.8339 23.0433 73.5819 23.202C74.3413 23.3493 75.0156 23.6327 75.6049 24.052C76.2056 24.4713 76.6759 25.072 77.0159 25.854C77.3673 26.636 77.5429 27.6503 77.5429 28.897C77.5429 30.1437 77.3673 31.1693 77.0159 31.974C76.6646 32.7673 76.1886 33.385 75.5879 33.827C74.9873 34.269 74.3073 34.575 73.5479 34.745C72.7999 34.915 72.0293 35 71.2359 35H67.5299ZM69.9439 32.79H71.7459C72.9246 32.79 73.7633 32.4443 74.2619 31.753C74.7606 31.0503 75.0099 30.0983 75.0099 28.897C75.0099 27.6957 74.7549 26.7777 74.2449 26.143C73.7463 25.497 72.9133 25.174 71.7459 25.174H69.9439V32.79ZM82.6241 35.17C81.8874 35.17 81.2301 35.0397 80.6521 34.779C80.0741 34.5183 79.6207 34.082 79.2921 33.47C78.9634 32.858 78.7991 32.0307 78.7991 30.988C78.7991 29.9793 78.9747 29.169 79.3261 28.557C79.6774 27.945 80.1421 27.503 80.7201 27.231C81.2981 26.9477 81.9327 26.806 82.6241 26.806C83.3834 26.806 83.9784 26.891 84.4091 27.061C84.8511 27.231 85.1854 27.3953 85.4121 27.554L86.2621 30.257L85.9221 31.311H81.1621C81.2301 31.9117 81.4454 32.3933 81.8081 32.756C82.1707 33.1187 82.7261 33.3 83.4741 33.3C84.0861 33.3 84.5791 33.2263 84.9531 33.079C85.3384 32.9317 85.6047 32.8183 85.7521 32.739V34.507C85.4121 34.6883 84.9757 34.847 84.4431 34.983C83.9217 35.1077 83.3154 35.17 82.6241 35.17ZM81.1451 30.223L83.6951 29.883L83.4401 28.625C83.3607 28.5797 83.2474 28.5457 83.1001 28.523C82.9641 28.5003 82.8394 28.489 82.7261 28.489C82.2161 28.489 81.8251 28.6703 81.5531 29.033C81.2811 29.3843 81.1451 29.781 81.1451 30.223ZM87.6086 35V25.684L87.2516 23.984L87.6086 22.964H89.9886V35H87.6086ZM95.2911 35.17C94.5544 35.17 93.8971 35.0397 93.3191 34.779C92.7411 34.5183 92.2877 34.082 91.9591 33.47C91.6304 32.858 91.4661 32.0307 91.4661 30.988C91.4661 29.9793 91.6417 29.169 91.9931 28.557C92.3444 27.945 92.8091 27.503 93.3871 27.231C93.9651 26.9477 94.5997 26.806 95.2911 26.806C96.0504 26.806 96.6454 26.891 97.0761 27.061C97.5181 27.231 97.8524 27.3953 98.0791 27.554L98.9291 30.257L98.5891 31.311H93.8291C93.8971 31.9117 94.1124 32.3933 94.4751 32.756C94.8377 33.1187 95.3931 33.3 96.1411 33.3C96.7531 33.3 97.2461 33.2263 97.6201 33.079C98.0054 32.9317 98.2717 32.8183 98.4191 32.739V34.507C98.0791 34.6883 97.6427 34.847 97.1101 34.983C96.5887 35.1077 95.9824 35.17 95.2911 35.17ZM93.8121 30.223L96.3621 29.883L96.1071 28.625C96.0277 28.5797 95.9144 28.5457 95.7671 28.523C95.6311 28.5003 95.5064 28.489 95.3931 28.489C94.8831 28.489 94.4921 28.6703 94.2201 29.033C93.9481 29.3843 93.8121 29.781 93.8121 30.223ZM102.758 35.17C101.987 35.17 101.426 35 101.075 34.66C100.723 34.32 100.548 33.8043 100.548 33.113V28.557H99.4766V27.452L100.378 26.619L101.585 24.511H102.911V26.976H105.121V28.676H102.911V33.334L105.121 33.317V34.66C105.121 34.66 105.03 34.7053 104.849 34.796C104.667 34.8753 104.401 34.9547 104.05 35.034C103.71 35.1247 103.279 35.17 102.758 35.17ZM109.801 35.17C109.064 35.17 108.407 35.0397 107.829 34.779C107.251 34.5183 106.797 34.082 106.469 33.47C106.14 32.858 105.976 32.0307 105.976 30.988C105.976 29.9793 106.151 29.169 106.503 28.557C106.854 27.945 107.319 27.503 107.897 27.231C108.475 26.9477 109.109 26.806 109.801 26.806C110.56 26.806 111.155 26.891 111.586 27.061C112.028 27.231 112.362 27.3953 112.589 27.554L113.439 30.257L113.099 31.311H108.339C108.407 31.9117 108.622 32.3933 108.985 32.756C109.347 33.1187 109.903 33.3 110.651 33.3C111.263 33.3 111.756 33.2263 112.13 33.079C112.515 32.9317 112.781 32.8183 112.929 32.739V34.507C112.589 34.6883 112.152 34.847 111.62 34.983C111.098 35.1077 110.492 35.17 109.801 35.17ZM108.322 30.223L110.872 29.883L110.617 28.625C110.537 28.5797 110.424 28.5457 110.277 28.523C110.141 28.5003 110.016 28.489 109.903 28.489C109.393 28.489 109.002 28.6703 108.73 29.033C108.458 29.3843 108.322 29.781 108.322 30.223ZM121.13 35.17C120.371 35.17 119.725 34.9773 119.192 34.592C118.671 34.1953 118.41 33.5833 118.41 32.756C118.41 31.8833 118.688 31.2203 119.243 30.767C119.799 30.3023 120.541 30.07 121.47 30.07C122.15 30.07 122.666 30.1267 123.017 30.24C123.38 30.3533 123.618 30.4383 123.731 30.495L123.85 30.393C123.85 30.053 123.822 29.7527 123.765 29.492C123.709 29.2313 123.578 29.033 123.374 28.897C123.17 28.7497 122.853 28.676 122.422 28.676C121.652 28.676 120.96 28.7383 120.348 28.863C119.748 28.9877 119.272 29.101 118.92 29.203V27.333C119.272 27.2083 119.804 27.095 120.518 26.993C121.232 26.8797 122.003 26.823 122.83 26.823C123.533 26.823 124.105 26.9193 124.547 27.112C125.001 27.2933 125.346 27.5427 125.584 27.86C125.834 28.1773 126.004 28.5287 126.094 28.914C126.196 29.288 126.247 29.662 126.247 30.036V32.297L126.587 34.014L126.247 35.017H124.02V34.184L123.85 34.099C123.76 34.2123 123.601 34.354 123.374 34.524C123.159 34.694 122.864 34.847 122.49 34.983C122.128 35.1077 121.674 35.17 121.13 35.17ZM122.065 33.283C122.553 33.283 122.932 33.2377 123.204 33.147C123.488 33.0563 123.703 32.9657 123.85 32.875V32.552C123.85 32.3367 123.72 32.1213 123.459 31.906C123.21 31.6907 122.796 31.583 122.218 31.583C121.788 31.583 121.47 31.668 121.266 31.838C121.062 32.008 120.96 32.2233 120.96 32.484C120.96 32.756 121.057 32.96 121.249 33.096C121.442 33.2207 121.714 33.283 122.065 33.283ZM128.166 35V25.684L127.809 23.984L128.166 22.964H130.546V35H128.166ZM132.483 35V25.684L132.126 23.984L132.483 22.964H134.863V35H132.483Z" fill="#1C4570"/>
</svg>
