<svg width="202" height="56" viewBox="0 0 202 56" fill="none" xmlns="http://www.w3.org/2000/svg">
<rect x="1" y="1" width="200" height="54" rx="7" fill="#FFFFF5"/>
<path fill-rule="evenodd" clip-rule="evenodd" d="M8 1C4.13401 1 1 4.13401 1 8V48C1 51.866 4.13401 55 8.00001 55H194C197.866 55 201 51.866 201 48V8C201 4.13401 197.866 1 194 1H8ZM8.30602 10.6695C8.12954 12.9669 8.09425 17.857 9.36488 19.0385C10.9532 20.5154 13.6004 24.4537 14.1298 28.392C14.5935 31.8416 12.2141 36.0464 10.9048 38.3603C10.7193 38.6882 10.5552 38.9781 10.4238 39.2225C10.2473 39.5506 10.0267 39.8925 9.7988 40.2457C8.65902 42.0121 7.33541 44.0633 10.4238 46.1146C14.1298 48.576 26.8362 49.5606 28.9539 49.5606H55.4255C57.5381 49.5606 60.1448 49.6525 62.9743 49.7522C71.4902 50.0523 82.0253 50.4236 87.1913 48.576C88.3485 48.1622 89.4158 47.7623 90.4211 47.3856C95.3949 45.522 98.8481 44.2282 104.133 44.6377C110.486 45.13 122.134 47.0991 126.899 48.576C129.74 49.4566 140.11 48.2369 149.704 47.1085C156.201 46.3445 162.341 45.6223 165.547 45.6223C173.489 45.6223 180.901 46.1146 185.666 46.6068C190.43 47.0991 193.078 40.6993 193.078 35.7764C193.078 34.2464 193.231 32.2884 193.395 30.198C193.758 25.5625 194.172 20.2759 193.078 17.5616C192.662 16.5315 192.428 15.1983 192.185 13.8174C191.5 9.91888 190.748 5.64061 185.666 6.73119C180.125 7.92001 172.184 8.15188 161.841 8.45387C159.335 8.52705 156.688 8.60434 153.9 8.70036C139.605 9.19265 120.546 8.70036 117.898 8.20807C117.096 8.05892 113.233 8.45204 107.942 8.99039C95.7689 10.2289 76.0418 12.2361 68.6612 10.1772C58.0726 7.22348 23.1302 4.26973 16.2475 7.22348C13.0393 8.60033 11.4415 8.58662 10.4891 8.57844C9.39829 8.56908 9.15393 8.56699 8.30602 10.6695Z" fill="#E0E0C7"/>
<rect x="1" y="1" width="200" height="54" rx="7" stroke="#1C4570" stroke-width="2" stroke-linecap="round"/>
<ellipse cx="36.567" cy="16.5" rx="2.57732" ry="2.5" fill="#E0E0C7"/>
<ellipse cx="57.1856" cy="40.5" rx="3.60825" ry="3.5" fill="#E0E0C7"/>
<ellipse cx="171.619" cy="16.5" rx="2.57732" ry="2.5" fill="#E0E0C7"/>
<ellipse cx="123.165" cy="29.5" rx="1.54639" ry="1.5" fill="#E0E0C7"/>
<path d="M50.7833 34L50.4433 32.98L50.7833 31.28V21.964H58.5013L59.3513 22.474L58.3993 24.344L56.6993 24.174H53.1293V26.809H57.7193V28.934H56.0533L53.1293 28.764V31.79H58.5693L59.9123 32.912L58.9093 34H50.7833ZM62.1255 25.126L60.3065 23.307L62.1255 21.488L63.9275 23.307L62.1255 25.126ZM60.9355 34V28.373L60.5785 27.013L60.9185 25.976H63.2985V34H60.9355ZM65.1855 34V28.883L64.8455 27.013L65.3725 25.976H67.2255V26.707L67.3785 26.809C67.5032 26.6957 67.6732 26.5653 67.8885 26.418C68.1152 26.2593 68.3872 26.1177 68.7045 25.993C69.0219 25.8683 69.3789 25.806 69.7755 25.806C70.7955 25.806 71.5605 26.095 72.0705 26.673C72.5805 27.251 72.8355 28.0613 72.8355 29.104V31.263L73.1925 32.963L72.8355 34H70.4555V29.036C70.4555 28.6053 70.3592 28.2767 70.1665 28.05C69.9852 27.812 69.6962 27.693 69.2995 27.693L67.5655 28.016V34H65.1855ZM77.449 34.17C76.7237 34.17 76.1174 34.1077 75.63 33.983C75.154 33.8583 74.7687 33.7167 74.474 33.558V31.552C74.882 31.7673 75.3467 31.9543 75.868 32.113C76.4007 32.2603 76.9107 32.334 77.398 32.334C77.976 32.334 78.265 32.147 78.265 31.773C78.265 31.569 78.18 31.416 78.01 31.314C77.8514 31.212 77.6247 31.1213 77.33 31.042C77.0467 30.9513 76.718 30.8437 76.344 30.719C75.698 30.4923 75.1994 30.2033 74.848 29.852C74.4967 29.5007 74.321 28.951 74.321 28.203C74.321 27.3983 74.5987 26.7977 75.154 26.401C75.7207 26.0043 76.463 25.806 77.381 25.806C77.755 25.806 78.0724 25.8287 78.333 25.874C78.5937 25.908 78.8317 25.942 79.047 25.976L80.594 26.826L79.931 28.475L77.381 27.659C77.1657 27.659 76.99 27.7043 76.854 27.795C76.7294 27.8743 76.667 27.9877 76.667 28.135C76.667 28.373 76.786 28.5543 77.024 28.679C77.262 28.7923 77.6077 28.917 78.061 29.053C78.979 29.325 79.6534 29.6537 80.084 30.039C80.5147 30.4243 80.73 30.991 80.73 31.739C80.73 32.4303 80.458 33.0083 79.914 33.473C79.3814 33.9377 78.5597 34.17 77.449 34.17ZM84.6829 34.17C83.9123 34.17 83.3513 34 82.9999 33.66C82.6486 33.32 82.4729 32.8043 82.4729 32.113V27.557H81.4019V26.452L82.3029 25.619L83.5099 23.511H84.8359V25.976H87.0459V27.676H84.8359V32.334L87.0459 32.317V33.66C87.0459 33.66 86.9553 33.7053 86.7739 33.796C86.5926 33.8753 86.3263 33.9547 85.9749 34.034C85.6349 34.1247 85.2043 34.17 84.6829 34.17ZM91.7261 34.17C90.9894 34.17 90.3321 34.0397 89.7541 33.779C89.1761 33.5183 88.7228 33.082 88.3941 32.47C88.0654 31.858 87.9011 31.0307 87.9011 29.988C87.9011 28.9793 88.0768 28.169 88.4281 27.557C88.7794 26.945 89.2441 26.503 89.8221 26.231C90.4001 25.9477 91.0348 25.806 91.7261 25.806C92.4854 25.806 93.0804 25.891 93.5111 26.061C93.9531 26.231 94.2874 26.3953 94.5141 26.554L95.3641 29.257L95.0241 30.311H90.2641C90.3321 30.9117 90.5474 31.3933 90.9101 31.756C91.2728 32.1187 91.8281 32.3 92.5761 32.3C93.1881 32.3 93.6811 32.2263 94.0551 32.079C94.4404 31.9317 94.7068 31.8183 94.8541 31.739V33.507C94.5141 33.6883 94.0778 33.847 93.5451 33.983C93.0238 34.1077 92.4174 34.17 91.7261 34.17ZM90.2471 29.223L92.7971 28.883L92.5421 27.625C92.4628 27.5797 92.3494 27.5457 92.2021 27.523C92.0661 27.5003 91.9414 27.489 91.8281 27.489C91.3181 27.489 90.9271 27.6703 90.6551 28.033C90.3831 28.3843 90.2471 28.781 90.2471 29.223ZM96.7107 34V24.684L96.3537 22.984L96.7107 21.964H99.0907V34H96.7107ZM101.027 34V24.684L100.67 22.984L101.027 21.964H103.407V34H101.027ZM107.605 34.17C106.925 34.17 106.398 34.0397 106.024 33.779C105.661 33.5183 105.406 33.1443 105.259 32.657C105.123 32.1583 105.055 31.5633 105.055 30.872V25.959H107.435V30.94C107.435 31.4047 107.52 31.7447 107.69 31.96C107.871 32.1753 108.171 32.283 108.591 32.283C109.123 32.283 109.543 32.079 109.849 31.671C110.166 31.263 110.325 30.787 110.325 30.243V25.959H112.705V31.263L113.062 32.963L112.705 34H110.512V33.167L110.342 33.082C110.194 33.2293 109.979 33.388 109.696 33.558C109.424 33.728 109.106 33.8753 108.744 34C108.392 34.1133 108.013 34.17 107.605 34.17ZM114.758 34V28.883L114.418 27.013L114.945 25.976H116.798V26.707L116.951 26.809C117.075 26.6957 117.245 26.5653 117.461 26.418C117.687 26.2593 117.959 26.1177 118.277 25.993C118.594 25.8683 118.951 25.806 119.348 25.806C120.368 25.806 121.133 26.095 121.643 26.673C122.153 27.251 122.408 28.0613 122.408 29.104V31.263L122.765 32.963L122.408 34H120.028V29.036C120.028 28.6053 119.931 28.2767 119.739 28.05C119.557 27.812 119.268 27.693 118.872 27.693L117.138 28.016V34H114.758ZM127.82 38.131C127.537 38.131 127.214 38.1197 126.851 38.097C126.489 38.0857 126.194 38.0687 125.967 38.046L124.063 37.043L124.743 35.36L127.412 36.227C128.92 36.227 129.673 35.5413 129.673 34.17V33.49L129.503 33.405C129.367 33.5183 129.118 33.6713 128.755 33.864C128.404 34.0453 127.86 34.136 127.123 34.136C126.591 34.136 126.075 34.0057 125.576 33.745C125.078 33.473 124.67 33.0423 124.352 32.453C124.046 31.8637 123.893 31.0987 123.893 30.158C123.893 29.104 124.052 28.2597 124.369 27.625C124.687 26.979 125.089 26.5087 125.576 26.214C126.075 25.9193 126.591 25.772 127.123 25.772C127.713 25.772 128.194 25.857 128.568 26.027C128.954 26.197 129.209 26.3613 129.333 26.52V25.959H131.73L131.9 26.979L131.713 27.999L131.73 33.983C131.73 35.2977 131.424 36.3177 130.812 37.043C130.2 37.7683 129.203 38.131 127.82 38.131ZM128.058 32.266C128.262 32.266 128.489 32.2377 128.738 32.181C128.988 32.1243 129.186 32.0733 129.333 32.028V27.812C129.22 27.778 129.061 27.744 128.857 27.71C128.653 27.676 128.444 27.659 128.228 27.659C127.741 27.659 127.367 27.7667 127.106 27.982C126.846 28.186 126.67 28.4637 126.579 28.815C126.489 29.1663 126.443 29.5517 126.443 29.971C126.443 30.3903 126.483 30.7757 126.562 31.127C126.653 31.467 126.817 31.7447 127.055 31.96C127.293 32.164 127.628 32.266 128.058 32.266ZM136.916 34.17C136.179 34.17 135.522 34.0397 134.944 33.779C134.366 33.5183 133.912 33.082 133.584 32.47C133.255 31.858 133.091 31.0307 133.091 29.988C133.091 28.9793 133.266 28.169 133.618 27.557C133.969 26.945 134.434 26.503 135.012 26.231C135.59 25.9477 136.224 25.806 136.916 25.806C137.675 25.806 138.27 25.891 138.701 26.061C139.143 26.231 139.477 26.3953 139.704 26.554L140.554 29.257L140.214 30.311H135.454C135.522 30.9117 135.737 31.3933 136.1 31.756C136.462 32.1187 137.018 32.3 137.766 32.3C138.378 32.3 138.871 32.2263 139.245 32.079C139.63 31.9317 139.896 31.8183 140.044 31.739V33.507C139.704 33.6883 139.267 33.847 138.735 33.983C138.213 34.1077 137.607 34.17 136.916 34.17ZM135.437 29.223L137.987 28.883L137.732 27.625C137.652 27.5797 137.539 27.5457 137.392 27.523C137.256 27.5003 137.131 27.489 137.018 27.489C136.508 27.489 136.117 27.6703 135.845 28.033C135.573 28.3843 135.437 28.781 135.437 29.223ZM141.951 34V28.883L141.611 27.013L142.138 25.976H143.991V26.707L144.144 26.809C144.269 26.6957 144.439 26.5653 144.654 26.418C144.881 26.2593 145.153 26.1177 145.47 25.993C145.787 25.8683 146.144 25.806 146.541 25.806C147.561 25.806 148.326 26.095 148.836 26.673C149.346 27.251 149.601 28.0613 149.601 29.104V31.263L149.958 32.963L149.601 34H147.221V29.036C147.221 28.6053 147.125 28.2767 146.932 28.05C146.751 27.812 146.462 27.693 146.065 27.693L144.331 28.016V34H141.951Z" fill="#1C4570"/>
</svg>
