<svg width="289" height="239" viewBox="0 0 289 239" fill="none" xmlns="http://www.w3.org/2000/svg">
<rect x="3" y="3" width="283" height="233" rx="7" fill="#FFFFF5"/>
<path fill-rule="evenodd" clip-rule="evenodd" d="M10 3C6.13401 3 3 6.13401 3 10V229C3 232.866 6.134 236 10 236H279C282.866 236 286 232.866 286 229V10C286 6.13401 282.866 3 279 3H10ZM13.8764 44.9412C7.84897 58.0558 13.5777 75.9604 15.3698 81.0595C17.6099 87.4333 21.3436 104.43 22.0903 121.427C22.7443 136.314 19.3884 154.462 17.5417 164.447C17.28 165.862 17.0486 167.114 16.8633 168.168C16.6144 169.585 16.3033 171.06 15.9818 172.585C14.3742 180.208 12.5074 189.06 16.8633 197.913C22.0903 208.536 28.05 218.1 28.05 218.1C28.05 218.1 52.4986 220.102 72.9266 218.1C81.7801 217.233 89.4766 218.857 97.62 220.576C105.563 222.252 113.932 224.019 124.214 223.649C137.225 223.182 147.382 222.028 157.549 220.873C167.64 219.727 177.741 218.579 190.655 218.1C198.434 217.812 205.781 218.636 212.95 219.44C224.85 220.774 236.262 222.054 248.353 218.1C275.955 209.076 275.63 198.238 274.812 170.924C274.655 165.688 274.48 159.847 274.48 153.296C274.48 143.964 271.4 133.307 268.59 123.586C265.004 111.175 261.857 100.287 266.12 95.6211C272.589 88.5396 271.435 46.4453 270.948 28.6612C270.862 25.5475 270.798 23.1791 270.798 21.8742C270.798 10.3165 245.936 11.3676 225.775 13.4922C218.696 14.2382 212.606 15.9734 206.78 17.6336C196.011 20.702 186.141 23.5144 172.588 19.352C163.813 16.657 150.811 16.6627 134.533 16.6699C117.295 16.6775 96.3832 16.6867 72.9266 13.4922C52.7658 10.7466 47.6718 12.6606 34.0189 17.7905C30.8431 18.9838 27.2041 20.351 22.8047 21.8742C17.9293 23.5621 16.8814 30.1814 15.904 36.356C15.3904 39.6005 14.8962 42.7222 13.8764 44.9412Z" fill="#E0E0C7"/>
<rect x="3" y="3" width="283" height="233" rx="7" stroke="#1C4570" stroke-width="6" stroke-linecap="round"/>
<ellipse cx="202.525" cy="14.2159" rx="3.01398" ry="1.80901" fill="#E0E0C7"/>
<g opacity="0.4">
<ellipse cx="215.835" cy="121.671" rx="3.50827" ry="2.17081" fill="#E0E0C7"/>
<ellipse cx="117.603" cy="99.2391" rx="3.50826" ry="2.17081" fill="#E0E0C7"/>
<ellipse cx="226.359" cy="195.478" rx="3.50826" ry="2.1708" fill="#E0E0C7"/>
<ellipse cx="88.3678" cy="168.705" rx="3.50827" ry="2.17081" fill="#E0E0C7"/>
<ellipse cx="219.343" cy="84.7671" rx="3.50826" ry="2.17081" fill="#E0E0C7"/>
<ellipse cx="190.107" cy="154.233" rx="3.50826" ry="2.17081" fill="#E0E0C7"/>
<ellipse cx="151.517" cy="37.7329" rx="3.50826" ry="2.1708" fill="#E0E0C7"/>
<ellipse cx="68.4876" cy="63.059" rx="3.50826" ry="2.17081" fill="#E0E0C7"/>
<ellipse cx="243.901" cy="141.932" rx="4.67769" ry="2.89442" fill="#E0E0C7"/>
<ellipse cx="60.8864" cy="29.4115" rx="7.60124" ry="4.70342" fill="#E0E0C7"/>
<ellipse cx="147.424" cy="130.716" rx="7.60124" ry="4.70342" fill="#E0E0C7"/>
<ellipse cx="118.188" cy="200.182" rx="7.60124" ry="4.70341" fill="#E0E0C7"/>
<ellipse cx="169.058" cy="63.7826" rx="4.67768" ry="2.89441" fill="#E0E0C7"/>
<ellipse cx="53.2851" cy="132.525" rx="4.67769" ry="2.89442" fill="#E0E0C7"/>
<ellipse cx="242.201" cy="34.4767" rx="1.80839" ry="1.0854" fill="#E0E0C7"/>
</g>
<path d="M77.8985 68L78.7145 65.127V62.968L79.9725 62.458L82.1825 55.981H86.5855L89.3225 63.597L90.6315 66.011V68H87.6225L86.7725 65.28H81.8255L81.0945 68H77.8985ZM82.9475 62.662H85.8375L84.5455 58.769H84.1885L82.9475 62.662ZM91.8309 68V62.679L91.4739 60.979L91.8309 59.959H94.1429L94.4829 60.35C94.4829 60.35 94.5623 60.3047 94.7209 60.214C94.8796 60.112 95.1006 60.0157 95.3839 59.925C95.6786 59.8343 96.0186 59.789 96.4039 59.789C96.6306 59.789 96.8573 59.806 97.0839 59.84C97.3106 59.874 97.4863 59.9193 97.6109 59.976L98.7159 60.911L97.6109 63.087L95.3669 62.152L94.8569 62.322V68H91.8309ZM103.128 68.17C102.256 68.17 101.479 68.0397 100.799 67.779C100.119 67.5183 99.5866 67.082 99.2012 66.47C98.8159 65.858 98.6232 65.0307 98.6232 63.988C98.6232 63.24 98.7479 62.5997 98.9972 62.067C99.2579 61.5343 99.6036 61.1037 100.034 60.775C100.465 60.435 100.947 60.1913 101.479 60.044C102.012 59.8853 102.562 59.806 103.128 59.806C104.103 59.806 104.851 59.9023 105.372 60.095C105.905 60.2877 106.256 60.4407 106.426 60.554L107.276 63.257L106.936 64.311H101.666C101.746 64.7303 101.955 65.0817 102.295 65.365C102.635 65.6483 103.196 65.79 103.978 65.79C104.59 65.79 105.117 65.722 105.559 65.586C106.001 65.45 106.347 65.331 106.596 65.229V67.507C106.256 67.6883 105.763 67.847 105.117 67.983C104.483 68.1077 103.82 68.17 103.128 68.17ZM101.683 63.223L104.029 62.883L103.876 62.152C103.797 62.1067 103.678 62.0727 103.519 62.05C103.372 62.0273 103.242 62.016 103.128 62.016C102.811 62.016 102.545 62.084 102.329 62.22C102.125 62.356 101.967 62.5203 101.853 62.713C101.751 62.8943 101.695 63.0643 101.683 63.223ZM113.479 72.131L111.082 71.281L111.762 68.748L114.142 69.428C114.629 69.428 114.98 69.2977 115.196 69.037C115.422 68.7877 115.592 68.4363 115.706 67.983H113.955L112.085 62.169L111.762 59.959H114.992L115.927 65.569H116.267L117.202 59.959H120.432C120.432 59.959 120.392 60.1403 120.313 60.503C120.245 60.8543 120.143 61.3247 120.007 61.914C119.882 62.5033 119.729 63.155 119.548 63.869C119.378 64.5717 119.196 65.2857 119.004 66.011C118.811 66.725 118.613 67.3823 118.409 67.983C118.103 68.9237 117.734 69.7 117.304 70.312C116.884 70.924 116.369 71.3773 115.757 71.672C115.145 71.978 114.385 72.131 113.479 72.131ZM125.039 68.17C123.656 68.17 122.585 67.8413 121.826 67.184C121.066 66.5267 120.687 65.4613 120.687 63.988C120.687 62.5033 121.066 61.438 121.826 60.792C122.585 60.1347 123.656 59.806 125.039 59.806C126.455 59.806 127.526 60.1347 128.252 60.792C128.988 61.438 129.357 62.5033 129.357 63.988C129.357 65.4613 128.988 66.5267 128.252 67.184C127.526 67.8413 126.455 68.17 125.039 68.17ZM125.039 65.96C125.503 65.96 125.826 65.79 126.008 65.45C126.189 65.0987 126.28 64.6113 126.28 63.988C126.28 63.3533 126.189 62.866 126.008 62.526C125.826 62.186 125.503 62.016 125.039 62.016C124.563 62.016 124.228 62.186 124.036 62.526C123.854 62.866 123.764 63.3533 123.764 63.988C123.764 64.6113 123.854 65.0987 124.036 65.45C124.228 65.79 124.563 65.96 125.039 65.96ZM133.004 68.17C132.324 68.17 131.797 68.0397 131.423 67.779C131.061 67.5183 130.806 67.1443 130.658 66.657C130.522 66.1583 130.454 65.5633 130.454 64.872V59.959H133.514V64.43C133.514 64.8493 133.594 65.178 133.752 65.416C133.922 65.654 134.172 65.773 134.5 65.773C134.806 65.773 135.084 65.6427 135.333 65.382C135.594 65.1213 135.724 64.7417 135.724 64.243V59.959H138.784V65.263L139.141 66.963L138.784 68H135.911V67.167L135.741 67.082C135.594 67.2293 135.379 67.388 135.095 67.558C134.823 67.728 134.506 67.8753 134.143 68C133.792 68.1133 133.412 68.17 133.004 68.17ZM148.171 68.17C147.344 68.17 146.613 68.085 145.978 67.915C145.343 67.745 144.85 67.5693 144.499 67.388V65.025C144.964 65.229 145.44 65.3877 145.927 65.501C146.426 65.6143 146.873 65.6937 147.27 65.739C147.667 65.773 147.95 65.79 148.12 65.79C148.313 65.79 148.449 65.7617 148.528 65.705C148.607 65.637 148.647 65.5577 148.647 65.467C148.647 65.3423 148.545 65.2403 148.341 65.161C148.137 65.0703 147.752 64.957 147.185 64.821C146.72 64.7077 146.267 64.566 145.825 64.396C145.394 64.2147 145.037 63.9653 144.754 63.648C144.482 63.3307 144.346 62.9057 144.346 62.373C144.346 61.7157 144.499 61.2 144.805 60.826C145.111 60.452 145.547 60.1913 146.114 60.044C146.681 59.8853 147.344 59.806 148.103 59.806C148.534 59.806 148.936 59.8287 149.31 59.874C149.684 59.9193 149.95 59.9533 150.109 59.976L151.69 60.996L150.925 62.815L147.95 62.169C147.587 62.169 147.406 62.288 147.406 62.526C147.406 62.7753 147.667 62.9623 148.188 63.087C148.596 63.1777 149.015 63.2797 149.446 63.393C149.877 63.495 150.268 63.631 150.619 63.801C150.982 63.971 151.271 64.1977 151.486 64.481C151.713 64.7643 151.826 65.1383 151.826 65.603C151.826 66.4643 151.514 67.1103 150.891 67.541C150.279 67.9603 149.372 68.17 148.171 68.17ZM155.566 68.17C154.886 68.17 154.359 68.0397 153.985 67.779C153.622 67.5183 153.367 67.1443 153.22 66.657C153.084 66.1583 153.016 65.5633 153.016 64.872V59.959H156.076V64.43C156.076 64.8493 156.155 65.178 156.314 65.416C156.484 65.654 156.733 65.773 157.062 65.773C157.368 65.773 157.646 65.6427 157.895 65.382C158.156 65.1213 158.286 64.7417 158.286 64.243V59.959H161.346V65.263L161.703 66.963L161.346 68H158.473V67.167L158.303 67.082C158.156 67.2293 157.94 67.388 157.657 67.558C157.385 67.728 157.068 67.8753 156.705 68C156.354 68.1133 155.974 68.17 155.566 68.17ZM163.35 68V62.679L162.993 60.979L163.35 59.959H165.662L166.002 60.35C166.002 60.35 166.082 60.3047 166.24 60.214C166.399 60.112 166.62 60.0157 166.903 59.925C167.198 59.8343 167.538 59.789 167.923 59.789C168.15 59.789 168.377 59.806 168.603 59.84C168.83 59.874 169.006 59.9193 169.13 59.976L170.235 60.911L169.13 63.087L166.886 62.152L166.376 62.322V68H163.35ZM174.648 68.17C173.775 68.17 172.999 68.0397 172.319 67.779C171.639 67.5183 171.106 67.082 170.721 66.47C170.335 65.858 170.143 65.0307 170.143 63.988C170.143 63.24 170.267 62.5997 170.517 62.067C170.777 61.5343 171.123 61.1037 171.554 60.775C171.984 60.435 172.466 60.1913 172.999 60.044C173.531 59.8853 174.081 59.806 174.648 59.806C175.622 59.806 176.37 59.9023 176.892 60.095C177.424 60.2877 177.776 60.4407 177.946 60.554L178.796 63.257L178.456 64.311H173.186C173.265 64.7303 173.475 65.0817 173.815 65.365C174.155 65.6483 174.716 65.79 175.498 65.79C176.11 65.79 176.637 65.722 177.079 65.586C177.521 65.45 177.866 65.331 178.116 65.229V67.507C177.776 67.6883 177.283 67.847 176.637 67.983C176.002 68.1077 175.339 68.17 174.648 68.17ZM173.203 63.223L175.549 62.883L175.396 62.152C175.316 62.1067 175.197 62.0727 175.039 62.05C174.891 62.0273 174.761 62.016 174.648 62.016C174.33 62.016 174.064 62.084 173.849 62.22C173.645 62.356 173.486 62.5203 173.373 62.713C173.271 62.8943 173.214 63.0643 173.203 63.223ZM184.998 72.131L182.601 71.281L183.281 68.748L185.661 69.428C186.149 69.428 186.5 69.2977 186.715 69.037C186.942 68.7877 187.112 68.4363 187.225 67.983H185.474L183.604 62.169L183.281 59.959H186.511L187.446 65.569H187.786L188.721 59.959H191.951C191.951 59.959 191.912 60.1403 191.832 60.503C191.764 60.8543 191.662 61.3247 191.526 61.914C191.402 62.5033 191.249 63.155 191.067 63.869C190.897 64.5717 190.716 65.2857 190.523 66.011C190.331 66.725 190.132 67.3823 189.928 67.983C189.622 68.9237 189.254 69.7 188.823 70.312C188.404 70.924 187.888 71.3773 187.276 71.672C186.664 71.978 185.905 72.131 184.998 72.131ZM196.558 68.17C195.176 68.17 194.105 67.8413 193.345 67.184C192.586 66.5267 192.206 65.4613 192.206 63.988C192.206 62.5033 192.586 61.438 193.345 60.792C194.105 60.1347 195.176 59.806 196.558 59.806C197.975 59.806 199.046 60.1347 199.771 60.792C200.508 61.438 200.876 62.5033 200.876 63.988C200.876 65.4613 200.508 66.5267 199.771 67.184C199.046 67.8413 197.975 68.17 196.558 68.17ZM196.558 65.96C197.023 65.96 197.346 65.79 197.527 65.45C197.709 65.0987 197.799 64.6113 197.799 63.988C197.799 63.3533 197.709 62.866 197.527 62.526C197.346 62.186 197.023 62.016 196.558 62.016C196.082 62.016 195.748 62.186 195.555 62.526C195.374 62.866 195.283 63.3533 195.283 63.988C195.283 64.6113 195.374 65.0987 195.555 65.45C195.748 65.79 196.082 65.96 196.558 65.96ZM204.524 68.17C203.844 68.17 203.317 68.0397 202.943 67.779C202.58 67.5183 202.325 67.1443 202.178 66.657C202.042 66.1583 201.974 65.5633 201.974 64.872V59.959H205.034V64.43C205.034 64.8493 205.113 65.178 205.272 65.416C205.442 65.654 205.691 65.773 206.02 65.773C206.326 65.773 206.604 65.6427 206.853 65.382C207.114 65.1213 207.244 64.7417 207.244 64.243V59.959H210.304V65.263L210.661 66.963L210.304 68H207.431V67.167L207.261 67.082C207.114 67.2293 206.898 67.388 206.615 67.558C206.343 67.728 206.026 67.8753 205.663 68C205.312 68.1133 204.932 68.17 204.524 68.17ZM59.9401 92L57.6111 86.186L57.2711 83.976H60.5011L61.6061 89.28H61.9461L63.2381 83.976H66.6211L67.8961 89.28H68.2361L69.3581 83.976H72.5711L72.2311 86.186L69.8851 92H66.3151L65.0911 86.526H64.7511L63.5101 92H59.9401ZM75.9697 92.17C75.4824 92.17 75.0291 92.102 74.6097 91.966C74.2017 91.8187 73.8731 91.5693 73.6237 91.218C73.3744 90.8667 73.2497 90.3793 73.2497 89.756C73.2497 89.1893 73.3914 88.719 73.6747 88.345C73.9581 87.971 74.3434 87.6933 74.8307 87.512C75.3181 87.3307 75.8677 87.24 76.4797 87.24C77.0691 87.24 77.5111 87.308 77.8057 87.444C78.1004 87.5687 78.3554 87.699 78.5707 87.835L78.6897 87.733C78.6897 87.393 78.6614 87.1097 78.6047 86.883C78.5481 86.6563 78.4177 86.4863 78.2137 86.373C78.0097 86.2483 77.6924 86.186 77.2617 86.186C76.8424 86.186 76.3947 86.2257 75.9187 86.305C75.4541 86.373 75.0234 86.4637 74.6267 86.577C74.2414 86.679 73.9524 86.781 73.7597 86.883V84.333C74.1111 84.2083 74.6097 84.095 75.2557 83.993C75.9131 83.8797 76.7177 83.823 77.6697 83.823C78.6897 83.823 79.4944 83.9533 80.0837 84.214C80.6844 84.4633 81.1151 84.8317 81.3757 85.319C81.6364 85.795 81.7667 86.3673 81.7667 87.036V89.297L82.1067 91.014L81.7667 92.017H78.8597V91.184L78.6897 91.099C78.5991 91.1897 78.4404 91.32 78.2137 91.49C77.9871 91.66 77.6867 91.8187 77.3127 91.966C76.9387 92.102 76.4911 92.17 75.9697 92.17ZM77.4147 89.943C77.7207 89.943 77.9814 89.9147 78.1967 89.858C78.4234 89.8013 78.5877 89.7503 78.6897 89.705V89.382C78.6897 89.2347 78.5821 89.093 78.3667 88.957C78.1627 88.821 77.8397 88.753 77.3977 88.753C76.7857 88.753 76.4797 88.9683 76.4797 89.399C76.4797 89.5803 76.5477 89.7163 76.6837 89.807C76.8197 89.8977 77.0634 89.943 77.4147 89.943ZM83.8037 92V86.883L83.4637 85.013L83.9907 83.976H86.5237V84.707L86.6767 84.809C86.8014 84.6957 86.9714 84.5653 87.1867 84.418C87.4134 84.2593 87.6854 84.1177 88.0027 83.993C88.32 83.8683 88.677 83.806 89.0737 83.806C90.0937 83.806 90.8587 84.095 91.3687 84.673C91.8787 85.251 92.1337 86.0613 92.1337 87.104V89.263L92.4907 90.963L92.1337 92H89.0737V87.546C89.0737 87.1153 88.9774 86.7867 88.7847 86.56C88.6034 86.322 88.3144 86.203 87.9177 86.203L86.8637 86.526V92H83.8037ZM97.0709 92.17C96.3002 92.17 95.6825 91.9433 95.2179 91.49C94.7532 91.0367 94.5209 90.4643 94.5209 89.773V86.067H93.2799V84.452L94.3509 83.619L95.5579 81.511H97.5639V83.976H99.9439V86.186H97.5639V89.824L99.9439 89.807V91.66C99.9439 91.66 99.8079 91.7053 99.5359 91.796C99.2752 91.8753 98.9295 91.9547 98.4989 92.034C98.0682 92.1247 97.5922 92.17 97.0709 92.17ZM108.493 92.17C107.722 92.17 107.104 91.9433 106.64 91.49C106.175 91.0367 105.943 90.4643 105.943 89.773V86.067H104.702V84.452L105.773 83.619L106.98 81.511H108.986V83.976H111.366V86.186H108.986V89.824L111.366 89.807V91.66C111.366 91.66 111.23 91.7053 110.958 91.796C110.697 91.8753 110.351 91.9547 109.921 92.034C109.49 92.1247 109.014 92.17 108.493 92.17ZM116.647 92.17C115.264 92.17 114.193 91.8413 113.434 91.184C112.674 90.5267 112.295 89.4613 112.295 87.988C112.295 86.5033 112.674 85.438 113.434 84.792C114.193 84.1347 115.264 83.806 116.647 83.806C118.063 83.806 119.134 84.1347 119.86 84.792C120.596 85.438 120.965 86.5033 120.965 87.988C120.965 89.4613 120.596 90.5267 119.86 91.184C119.134 91.8413 118.063 92.17 116.647 92.17ZM116.647 89.96C117.111 89.96 117.434 89.79 117.616 89.45C117.797 89.0987 117.888 88.6113 117.888 87.988C117.888 87.3533 117.797 86.866 117.616 86.526C117.434 86.186 117.111 86.016 116.647 86.016C116.171 86.016 115.836 86.186 115.644 86.526C115.462 86.866 115.372 87.3533 115.372 87.988C115.372 88.6113 115.462 89.0987 115.644 89.45C115.836 89.79 116.171 89.96 116.647 89.96ZM129.121 92.17C128.589 92.17 128.073 92.034 127.574 91.762C127.087 91.49 126.685 91.0593 126.367 90.47C126.05 89.8807 125.891 89.11 125.891 88.158C125.891 87.104 126.044 86.2597 126.35 85.625C126.668 84.9903 127.076 84.5313 127.574 84.248C128.073 83.9533 128.589 83.806 129.121 83.806C129.926 83.806 130.493 83.874 130.821 84.01C131.161 84.146 131.331 84.214 131.331 84.214L131.161 81.001L131.331 79.981H134.408V89.28L134.748 90.98L134.408 92.017H131.501V91.184L131.331 91.099C131.331 91.099 131.246 91.1897 131.076 91.371C130.906 91.541 130.657 91.7167 130.328 91.898C130 92.0793 129.597 92.17 129.121 92.17ZM130.396 89.773L131.331 89.535V87.053C131.331 86.7923 131.246 86.5883 131.076 86.441C130.906 86.2823 130.68 86.203 130.396 86.203C129.977 86.203 129.66 86.3447 129.444 86.628C129.229 86.9 129.121 87.3533 129.121 87.988C129.121 88.6113 129.246 89.0647 129.495 89.348C129.745 89.6313 130.045 89.773 130.396 89.773ZM140.357 92.17C139.485 92.17 138.708 92.0397 138.028 91.779C137.348 91.5183 136.816 91.082 136.43 90.47C136.045 89.858 135.852 89.0307 135.852 87.988C135.852 87.24 135.977 86.5997 136.226 86.067C136.487 85.5343 136.833 85.1037 137.263 84.775C137.694 84.435 138.176 84.1913 138.708 84.044C139.241 83.8853 139.791 83.806 140.357 83.806C141.332 83.806 142.08 83.9023 142.601 84.095C143.134 84.2877 143.485 84.4407 143.655 84.554L144.505 87.257L144.165 88.311H138.895C138.975 88.7303 139.184 89.0817 139.524 89.365C139.864 89.6483 140.425 89.79 141.207 89.79C141.819 89.79 142.346 89.722 142.788 89.586C143.23 89.45 143.576 89.331 143.825 89.229V91.507C143.485 91.6883 142.992 91.847 142.346 91.983C141.712 92.1077 141.049 92.17 140.357 92.17ZM138.912 87.223L141.258 86.883L141.105 86.152C141.026 86.1067 140.907 86.0727 140.748 86.05C140.601 86.0273 140.471 86.016 140.357 86.016C140.04 86.016 139.774 86.084 139.558 86.22C139.354 86.356 139.196 86.5203 139.082 86.713C138.98 86.8943 138.924 87.0643 138.912 87.223ZM145.944 92L145.927 82.684L145.587 80.984L145.944 79.964H149.004V92H145.944ZM154.95 92.17C154.077 92.17 153.301 92.0397 152.621 91.779C151.941 91.5183 151.408 91.082 151.023 90.47C150.638 89.858 150.445 89.0307 150.445 87.988C150.445 87.24 150.57 86.5997 150.819 86.067C151.08 85.5343 151.425 85.1037 151.856 84.775C152.287 84.435 152.768 84.1913 153.301 84.044C153.834 83.8853 154.383 83.806 154.95 83.806C155.925 83.806 156.673 83.9023 157.194 84.095C157.727 84.2877 158.078 84.4407 158.248 84.554L159.098 87.257L158.758 88.311H153.488C153.567 88.7303 153.777 89.0817 154.117 89.365C154.457 89.6483 155.018 89.79 155.8 89.79C156.412 89.79 156.939 89.722 157.381 89.586C157.823 89.45 158.169 89.331 158.418 89.229V91.507C158.078 91.6883 157.585 91.847 156.939 91.983C156.304 92.1077 155.641 92.17 154.95 92.17ZM153.505 87.223L155.851 86.883L155.698 86.152C155.619 86.1067 155.5 86.0727 155.341 86.05C155.194 86.0273 155.063 86.016 154.95 86.016C154.633 86.016 154.366 86.084 154.151 86.22C153.947 86.356 153.788 86.5203 153.675 86.713C153.573 86.8943 153.516 87.0643 153.505 87.223ZM163.461 92.17C162.69 92.17 162.072 91.9433 161.608 91.49C161.143 91.0367 160.911 90.4643 160.911 89.773V86.067H159.67V84.452L160.741 83.619L161.948 81.511H163.954V83.976H166.334V86.186H163.954V89.824L166.334 89.807V91.66C166.334 91.66 166.198 91.7053 165.926 91.796C165.665 91.8753 165.319 91.9547 164.889 92.034C164.458 92.1247 163.982 92.17 163.461 92.17ZM171.767 92.17C170.895 92.17 170.118 92.0397 169.438 91.779C168.758 91.5183 168.226 91.082 167.84 90.47C167.455 89.858 167.262 89.0307 167.262 87.988C167.262 87.24 167.387 86.5997 167.636 86.067C167.897 85.5343 168.243 85.1037 168.673 84.775C169.104 84.435 169.586 84.1913 170.118 84.044C170.651 83.8853 171.201 83.806 171.767 83.806C172.742 83.806 173.49 83.9023 174.011 84.095C174.544 84.2877 174.895 84.4407 175.065 84.554L175.915 87.257L175.575 88.311H170.305C170.385 88.7303 170.594 89.0817 170.934 89.365C171.274 89.6483 171.835 89.79 172.617 89.79C173.229 89.79 173.756 89.722 174.198 89.586C174.64 89.45 174.986 89.331 175.235 89.229V91.507C174.895 91.6883 174.402 91.847 173.756 91.983C173.122 92.1077 172.459 92.17 171.767 92.17ZM170.322 87.223L172.668 86.883L172.515 86.152C172.436 86.1067 172.317 86.0727 172.158 86.05C172.011 86.0273 171.881 86.016 171.767 86.016C171.45 86.016 171.184 86.084 170.968 86.22C170.764 86.356 170.606 86.5203 170.492 86.713C170.39 86.8943 170.334 87.0643 170.322 87.223ZM183.631 92.17C183.144 92.17 182.69 92.102 182.271 91.966C181.863 91.8187 181.534 91.5693 181.285 91.218C181.036 90.8667 180.911 90.3793 180.911 89.756C180.911 89.1893 181.053 88.719 181.336 88.345C181.619 87.971 182.005 87.6933 182.492 87.512C182.979 87.3307 183.529 87.24 184.141 87.24C184.73 87.24 185.172 87.308 185.467 87.444C185.762 87.5687 186.017 87.699 186.232 87.835L186.351 87.733C186.351 87.393 186.323 87.1097 186.266 86.883C186.209 86.6563 186.079 86.4863 185.875 86.373C185.671 86.2483 185.354 86.186 184.923 86.186C184.504 86.186 184.056 86.2257 183.58 86.305C183.115 86.373 182.685 86.4637 182.288 86.577C181.903 86.679 181.614 86.781 181.421 86.883V84.333C181.772 84.2083 182.271 84.095 182.917 83.993C183.574 83.8797 184.379 83.823 185.331 83.823C186.351 83.823 187.156 83.9533 187.745 84.214C188.346 84.4633 188.776 84.8317 189.037 85.319C189.298 85.795 189.428 86.3673 189.428 87.036V89.297L189.768 91.014L189.428 92.017H186.521V91.184L186.351 91.099C186.26 91.1897 186.102 91.32 185.875 91.49C185.648 91.66 185.348 91.8187 184.974 91.966C184.6 92.102 184.152 92.17 183.631 92.17ZM185.076 89.943C185.382 89.943 185.643 89.9147 185.858 89.858C186.085 89.8013 186.249 89.7503 186.351 89.705V89.382C186.351 89.2347 186.243 89.093 186.028 88.957C185.824 88.821 185.501 88.753 185.059 88.753C184.447 88.753 184.141 88.9683 184.141 89.399C184.141 89.5803 184.209 89.7163 184.345 89.807C184.481 89.8977 184.725 89.943 185.076 89.943ZM191.482 92L191.465 82.684L191.125 80.984L191.482 79.964H194.542V92H191.482ZM196.595 92L196.578 82.684L196.238 80.984L196.595 79.964H199.655V92H196.595ZM208.716 92.17C207.946 92.17 207.328 91.9433 206.863 91.49C206.399 91.0367 206.166 90.4643 206.166 89.773V86.067H204.925V84.452L205.996 83.619L207.203 81.511H209.209V83.976H211.589V86.186H209.209V89.824L211.589 89.807V91.66C211.589 91.66 211.453 91.7053 211.181 91.796C210.921 91.8753 210.575 91.9547 210.144 92.034C209.714 92.1247 209.238 92.17 208.716 92.17ZM213.113 92V82.684L212.773 80.984L213.113 79.964H216.173V82.718L216.003 84.605L216.173 84.69C216.309 84.486 216.559 84.2877 216.921 84.095C217.295 83.891 217.783 83.789 218.383 83.789C219.403 83.789 220.168 84.078 220.678 84.656C221.188 85.234 221.443 86.0443 221.443 87.087V89.297L221.8 90.963L221.443 92H218.383V87.529C218.383 87.0983 218.287 86.7697 218.094 86.543C217.913 86.305 217.624 86.186 217.227 86.186L216.173 86.679V92H213.113ZM227.349 92.17C226.477 92.17 225.7 92.0397 225.02 91.779C224.34 91.5183 223.808 91.082 223.422 90.47C223.037 89.858 222.844 89.0307 222.844 87.988C222.844 87.24 222.969 86.5997 223.218 86.067C223.479 85.5343 223.825 85.1037 224.255 84.775C224.686 84.435 225.168 84.1913 225.7 84.044C226.233 83.8853 226.783 83.806 227.349 83.806C228.324 83.806 229.072 83.9023 229.593 84.095C230.126 84.2877 230.477 84.4407 230.647 84.554L231.497 87.257L231.157 88.311H225.887C225.967 88.7303 226.176 89.0817 226.516 89.365C226.856 89.6483 227.417 89.79 228.199 89.79C228.811 89.79 229.338 89.722 229.78 89.586C230.222 89.45 230.568 89.331 230.817 89.229V91.507C230.477 91.6883 229.984 91.847 229.338 91.983C228.704 92.1077 228.041 92.17 227.349 92.17ZM225.904 87.223L228.25 86.883L228.097 86.152C228.018 86.1067 227.899 86.0727 227.74 86.05C227.593 86.0273 227.463 86.016 227.349 86.016C227.032 86.016 226.766 86.084 226.55 86.22C226.346 86.356 226.188 86.5203 226.074 86.713C225.972 86.8943 225.916 87.0643 225.904 87.223ZM110.317 116V110.679L109.96 108.979L110.317 107.959H112.629L112.969 108.35C112.969 108.35 113.048 108.305 113.207 108.214C113.365 108.112 113.586 108.016 113.87 107.925C114.164 107.834 114.504 107.789 114.89 107.789C115.116 107.789 115.343 107.806 115.57 107.84C115.796 107.874 115.972 107.919 116.097 107.976L117.202 108.911L116.097 111.087L113.853 110.152L113.343 110.322V116H110.317ZM121.614 116.17C120.741 116.17 119.965 116.04 119.285 115.779C118.605 115.518 118.072 115.082 117.687 114.47C117.302 113.858 117.109 113.031 117.109 111.988C117.109 111.24 117.234 110.6 117.483 110.067C117.744 109.534 118.089 109.104 118.52 108.775C118.951 108.435 119.432 108.191 119.965 108.044C120.498 107.885 121.047 107.806 121.614 107.806C122.589 107.806 123.337 107.902 123.858 108.095C124.391 108.288 124.742 108.441 124.912 108.554L125.762 111.257L125.422 112.311H120.152C120.231 112.73 120.441 113.082 120.781 113.365C121.121 113.648 121.682 113.79 122.464 113.79C123.076 113.79 123.603 113.722 124.045 113.586C124.487 113.45 124.833 113.331 125.082 113.229V115.507C124.742 115.688 124.249 115.847 123.603 115.983C122.968 116.108 122.305 116.17 121.614 116.17ZM120.169 111.223L122.515 110.883L122.362 110.152C122.283 110.107 122.164 110.073 122.005 110.05C121.858 110.027 121.727 110.016 121.614 110.016C121.297 110.016 121.03 110.084 120.815 110.22C120.611 110.356 120.452 110.52 120.339 110.713C120.237 110.894 120.18 111.064 120.169 111.223ZM130.754 116.17C129.972 116.17 129.263 116.04 128.629 115.779C128.005 115.518 127.507 115.082 127.133 114.47C126.77 113.858 126.589 113.031 126.589 111.988C126.589 110.934 126.787 110.107 127.184 109.506C127.58 108.894 128.096 108.458 128.731 108.197C129.365 107.936 130.04 107.806 130.754 107.806C131.377 107.806 131.91 107.829 132.352 107.874C132.805 107.919 133.105 107.959 133.253 107.993L134.579 109.489L133.219 111.342L131.264 110.186C130.289 110.186 129.802 110.787 129.802 111.988C129.802 112.611 129.949 113.07 130.244 113.365C130.538 113.648 130.992 113.79 131.604 113.79C132.216 113.79 132.765 113.705 133.253 113.535C133.74 113.365 134.12 113.206 134.392 113.059V115.507C134.04 115.688 133.576 115.847 132.998 115.983C132.431 116.108 131.683 116.17 130.754 116.17ZM140.038 116.17C138.656 116.17 137.585 115.841 136.825 115.184C136.066 114.527 135.686 113.461 135.686 111.988C135.686 110.503 136.066 109.438 136.825 108.792C137.585 108.135 138.656 107.806 140.038 107.806C141.455 107.806 142.526 108.135 143.251 108.792C143.988 109.438 144.356 110.503 144.356 111.988C144.356 113.461 143.988 114.527 143.251 115.184C142.526 115.841 141.455 116.17 140.038 116.17ZM140.038 113.96C140.503 113.96 140.826 113.79 141.007 113.45C141.189 113.099 141.279 112.611 141.279 111.988C141.279 111.353 141.189 110.866 141.007 110.526C140.826 110.186 140.503 110.016 140.038 110.016C139.562 110.016 139.228 110.186 139.035 110.526C138.854 110.866 138.763 111.353 138.763 111.988C138.763 112.611 138.854 113.099 139.035 113.45C139.228 113.79 139.562 113.96 140.038 113.96ZM145.811 116V110.679L145.454 108.979L145.811 107.959H148.123L148.463 108.35C148.463 108.35 148.542 108.305 148.701 108.214C148.86 108.112 149.081 108.016 149.364 107.925C149.659 107.834 149.999 107.789 150.384 107.789C150.611 107.789 150.837 107.806 151.064 107.84C151.291 107.874 151.466 107.919 151.591 107.976L152.696 108.911L151.591 111.087L149.347 110.152L148.837 110.322V116H145.811ZM155.833 116.17C155.301 116.17 154.785 116.034 154.286 115.762C153.799 115.49 153.397 115.059 153.079 114.47C152.762 113.881 152.603 113.11 152.603 112.158C152.603 111.104 152.756 110.26 153.062 109.625C153.38 108.99 153.788 108.531 154.286 108.248C154.785 107.953 155.301 107.806 155.833 107.806C156.638 107.806 157.205 107.874 157.533 108.01C157.873 108.146 158.043 108.214 158.043 108.214L157.873 105.001L158.043 103.981H161.12V113.28L161.46 114.98L161.12 116.017H158.213V115.184L158.043 115.099C158.043 115.099 157.958 115.19 157.788 115.371C157.618 115.541 157.369 115.717 157.04 115.898C156.712 116.079 156.309 116.17 155.833 116.17ZM157.108 113.773L158.043 113.535V111.053C158.043 110.792 157.958 110.588 157.788 110.441C157.618 110.282 157.392 110.203 157.108 110.203C156.689 110.203 156.372 110.345 156.156 110.628C155.941 110.9 155.833 111.353 155.833 111.988C155.833 112.611 155.958 113.065 156.207 113.348C156.457 113.631 156.757 113.773 157.108 113.773ZM166.474 116.17C165.647 116.17 164.916 116.085 164.281 115.915C163.646 115.745 163.153 115.569 162.802 115.388V113.025C163.267 113.229 163.743 113.388 164.23 113.501C164.729 113.614 165.176 113.694 165.573 113.739C165.97 113.773 166.253 113.79 166.423 113.79C166.616 113.79 166.752 113.762 166.831 113.705C166.91 113.637 166.95 113.558 166.95 113.467C166.95 113.342 166.848 113.24 166.644 113.161C166.44 113.07 166.055 112.957 165.488 112.821C165.023 112.708 164.57 112.566 164.128 112.396C163.697 112.215 163.34 111.965 163.057 111.648C162.785 111.331 162.649 110.906 162.649 110.373C162.649 109.716 162.802 109.2 163.108 108.826C163.414 108.452 163.85 108.191 164.417 108.044C164.984 107.885 165.647 107.806 166.406 107.806C166.837 107.806 167.239 107.829 167.613 107.874C167.987 107.919 168.253 107.953 168.412 107.976L169.993 108.996L169.228 110.815L166.253 110.169C165.89 110.169 165.709 110.288 165.709 110.526C165.709 110.775 165.97 110.962 166.491 111.087C166.899 111.178 167.318 111.28 167.749 111.393C168.18 111.495 168.571 111.631 168.922 111.801C169.285 111.971 169.574 112.198 169.789 112.481C170.016 112.764 170.129 113.138 170.129 113.603C170.129 114.464 169.817 115.11 169.194 115.541C168.582 115.96 167.675 116.17 166.474 116.17ZM174.498 112.073L173.308 110.713L174.702 109.421C175.042 109.092 175.314 108.775 175.518 108.469C175.722 108.152 175.824 107.817 175.824 107.466C175.824 107.194 175.722 106.973 175.518 106.803C175.325 106.633 174.98 106.548 174.481 106.548L172.305 107.279L171.489 105.001C171.806 104.74 172.265 104.474 172.866 104.202C173.478 103.93 174.215 103.794 175.076 103.794C176.402 103.794 177.365 104.072 177.966 104.627C178.567 105.182 178.867 105.896 178.867 106.769C178.867 107.562 178.663 108.271 178.255 108.894C177.858 109.506 177.399 109.999 176.878 110.373L174.498 112.073ZM174.498 116.51L172.628 114.64L174.498 112.77L176.368 114.64L174.498 116.51Z" fill="#1C4570"/>
</svg>
