<svg width="202" height="56" viewBox="0 0 202 56" fill="none" xmlns="http://www.w3.org/2000/svg">
<rect x="1" y="1" width="200" height="54" rx="7" fill="#FFFFF5"/>
<path fill-rule="evenodd" clip-rule="evenodd" d="M8 1C4.13401 1 1 4.13401 1 8V48C1 51.866 4.13401 55 8.00001 55H194C197.866 55 201 51.866 201 48V8C201 4.13401 197.866 1 194 1H8ZM8.30602 10.6695C8.12954 12.9669 8.09425 17.857 9.36488 19.0385C10.9532 20.5154 13.6004 24.4537 14.1298 28.392C14.5935 31.8416 12.2141 36.0464 10.9048 38.3603C10.7193 38.6882 10.5552 38.9781 10.4238 39.2225C10.2473 39.5506 10.0267 39.8925 9.7988 40.2457C8.65902 42.0121 7.33541 44.0633 10.4238 46.1146C14.1298 48.576 26.8362 49.5606 28.9539 49.5606H55.4255C57.5381 49.5606 60.1448 49.6525 62.9743 49.7522C71.4902 50.0523 82.0253 50.4236 87.1913 48.576C88.3485 48.1622 89.4158 47.7623 90.4211 47.3856C95.3949 45.522 98.8481 44.2282 104.133 44.6377C110.486 45.13 122.134 47.0991 126.899 48.576C129.74 49.4566 140.11 48.2369 149.704 47.1085C156.201 46.3445 162.341 45.6223 165.547 45.6223C173.489 45.6223 180.901 46.1146 185.666 46.6068C190.43 47.0991 193.078 40.6993 193.078 35.7764C193.078 34.2464 193.231 32.2884 193.395 30.198C193.758 25.5625 194.172 20.2759 193.078 17.5616C192.662 16.5315 192.428 15.1983 192.185 13.8174C191.5 9.91888 190.748 5.64061 185.666 6.73119C180.125 7.92001 172.184 8.15188 161.841 8.45387C159.335 8.52705 156.688 8.60434 153.9 8.70036C139.605 9.19265 120.546 8.70036 117.898 8.20807C117.096 8.05892 113.233 8.45204 107.942 8.99039C95.7689 10.2289 76.0418 12.2361 68.6612 10.1772C58.0726 7.22348 23.1302 4.26973 16.2475 7.22348C13.0393 8.60033 11.4415 8.58662 10.4891 8.57844C9.39829 8.56908 9.15393 8.56699 8.30602 10.6695Z" fill="#E0E0C7"/>
<rect x="1" y="1" width="200" height="54" rx="7" stroke="#1C4570" stroke-width="2" stroke-linecap="round"/>
<ellipse cx="36.567" cy="16.5" rx="2.57732" ry="2.5" fill="#E0E0C7"/>
<ellipse cx="57.1856" cy="40.5" rx="3.60825" ry="3.5" fill="#E0E0C7"/>
<ellipse cx="171.619" cy="16.5" rx="2.57732" ry="2.5" fill="#E0E0C7"/>
<ellipse cx="123.165" cy="29.5" rx="1.54639" ry="1.5" fill="#E0E0C7"/>
<path d="M57.4883 34V24.701L57.3183 23.001L57.4883 21.964H59.8683V26.928H64.7813V21.964H67.1613V28.356L67.3313 29.529V34H64.7813V29.155H59.8683V30.532L60.0383 34H57.4883ZM71.5811 34.17C70.8217 34.17 70.1757 33.9773 69.6431 33.592C69.1217 33.1953 68.8611 32.5833 68.8611 31.756C68.8611 30.8833 69.1387 30.2203 69.6941 29.767C70.2494 29.3023 70.9917 29.07 71.9211 29.07C72.6011 29.07 73.1167 29.1267 73.4681 29.24C73.8307 29.3533 74.0687 29.4383 74.1821 29.495L74.3011 29.393C74.3011 29.053 74.2727 28.7527 74.2161 28.492C74.1594 28.2313 74.0291 28.033 73.8251 27.897C73.6211 27.7497 73.3037 27.676 72.8731 27.676C72.1024 27.676 71.4111 27.7383 70.7991 27.863C70.1984 27.9877 69.7224 28.101 69.3711 28.203V26.333C69.7224 26.2083 70.2551 26.095 70.9691 25.993C71.6831 25.8797 72.4537 25.823 73.2811 25.823C73.9837 25.823 74.5561 25.9193 74.9981 26.112C75.4514 26.2933 75.7971 26.5427 76.0351 26.86C76.2844 27.1773 76.4544 27.5287 76.5451 27.914C76.6471 28.288 76.6981 28.662 76.6981 29.036V31.297L77.0381 33.014L76.6981 34.017H74.4711V33.184L74.3011 33.099C74.2104 33.2123 74.0517 33.354 73.8251 33.524C73.6097 33.694 73.3151 33.847 72.9411 33.983C72.5784 34.1077 72.1251 34.17 71.5811 34.17ZM72.5161 32.283C73.0034 32.283 73.3831 32.2377 73.6551 32.147C73.9384 32.0563 74.1537 31.9657 74.3011 31.875V31.552C74.3011 31.3367 74.1707 31.1213 73.9101 30.906C73.6607 30.6907 73.2471 30.583 72.6691 30.583C72.2384 30.583 71.9211 30.668 71.7171 30.838C71.5131 31.008 71.4111 31.2233 71.4111 31.484C71.4111 31.756 71.5074 31.96 71.7001 32.096C71.8927 32.2207 72.1647 32.283 72.5161 32.283ZM80.8779 34.17C80.1979 34.17 79.6709 34.0397 79.2969 33.779C78.9343 33.5183 78.6793 33.1443 78.5319 32.657C78.3959 32.1583 78.3279 31.5633 78.3279 30.872V25.959H80.7079V30.94C80.7079 31.4047 80.7929 31.7447 80.9629 31.96C81.1443 32.1753 81.4446 32.283 81.8639 32.283C82.3966 32.283 82.8159 32.079 83.1219 31.671C83.4393 31.263 83.5979 30.787 83.5979 30.243V25.959H85.9779V31.263L86.3349 32.963L85.9779 34H83.7849V33.167L83.6149 33.082C83.4676 33.2293 83.2523 33.388 82.9689 33.558C82.6969 33.728 82.3796 33.8753 82.0169 34C81.6656 34.1133 81.2859 34.17 80.8779 34.17ZM88.0312 38.131V28.866L87.6912 26.996L88.2182 25.959H90.0712V26.69L90.2412 26.775C90.2412 26.775 90.3432 26.69 90.5472 26.52C90.7512 26.35 91.0289 26.1857 91.3802 26.027C91.7429 25.857 92.1622 25.772 92.6382 25.772C93.6469 25.772 94.4346 26.095 95.0012 26.741C95.5792 27.387 95.8682 28.407 95.8682 29.801C95.8682 30.8437 95.7209 31.688 95.4262 32.334C95.1429 32.9687 94.7576 33.4277 94.2702 33.711C93.7829 33.9943 93.2389 34.136 92.6382 34.136C92.0489 34.136 91.5616 34.085 91.1762 33.983C90.7909 33.8697 90.5359 33.7903 90.4112 33.745V38.131H88.0312ZM91.5332 32.334C91.9752 32.334 92.3266 32.2263 92.5872 32.011C92.8479 31.7843 93.0349 31.4897 93.1482 31.127C93.2616 30.7643 93.3182 30.3733 93.3182 29.954C93.3182 29.546 93.2729 29.1663 93.1822 28.815C93.0916 28.4637 92.9272 28.186 92.6892 27.982C92.4626 27.7667 92.1339 27.659 91.7032 27.659L90.4112 28.016V32.113C90.4112 32.113 90.5246 32.1527 90.7512 32.232C90.9892 32.3 91.2499 32.334 91.5332 32.334ZM99.8255 34.17C99.0548 34.17 98.4938 34 98.1425 33.66C97.7912 33.32 97.6155 32.8043 97.6155 32.113V27.557H96.5445V26.452L97.4455 25.619L98.6525 23.511H99.9785V25.976H102.189V27.676H99.9785V32.334L102.189 32.317V33.66C102.189 33.66 102.098 33.7053 101.917 33.796C101.735 33.8753 101.469 33.9547 101.118 34.034C100.778 34.1247 100.347 34.17 99.8255 34.17ZM103.214 27.013L103.741 25.976H105.594V26.707L105.747 26.809C105.871 26.6957 106.041 26.5653 106.257 26.418C106.483 26.2593 106.755 26.1177 107.073 25.993C107.39 25.8683 107.747 25.806 108.144 25.806C109.322 25.806 110.167 26.197 110.677 26.979C110.869 26.6957 111.17 26.4293 111.578 26.18C111.997 25.9193 112.575 25.789 113.312 25.789C114.332 25.789 115.097 26.078 115.607 26.656C116.117 27.234 116.372 28.0443 116.372 29.087V31.263L116.729 32.963L116.372 34H114.009V29.019C114.009 28.5883 113.89 28.2597 113.652 28.033C113.425 27.795 113.096 27.676 112.666 27.676C112.224 27.676 111.867 27.8007 111.595 28.05C111.334 28.2993 111.204 28.628 111.204 29.036V29.104V34H108.824V29.036C108.824 28.6053 108.727 28.2767 108.535 28.05C108.353 27.812 108.064 27.693 107.668 27.693L105.934 28.016V34H103.554V28.883L103.214 27.013ZM121.677 34.17C120.941 34.17 120.283 34.0397 119.705 33.779C119.127 33.5183 118.674 33.082 118.345 32.47C118.017 31.858 117.852 31.0307 117.852 29.988C117.852 28.9793 118.028 28.169 118.379 27.557C118.731 26.945 119.195 26.503 119.773 26.231C120.351 25.9477 120.986 25.806 121.677 25.806C122.437 25.806 123.032 25.891 123.462 26.061C123.904 26.231 124.239 26.3953 124.465 26.554L125.315 29.257L124.975 30.311H120.215C120.283 30.9117 120.499 31.3933 120.861 31.756C121.224 32.1187 121.779 32.3 122.527 32.3C123.139 32.3 123.632 32.2263 124.006 32.079C124.392 31.9317 124.658 31.8183 124.805 31.739V33.507C124.465 33.6883 124.029 33.847 123.496 33.983C122.975 34.1077 122.369 34.17 121.677 34.17ZM120.198 29.223L122.748 28.883L122.493 27.625C122.414 27.5797 122.301 27.5457 122.153 27.523C122.017 27.5003 121.893 27.489 121.779 27.489C121.269 27.489 120.878 27.6703 120.606 28.033C120.334 28.3843 120.198 28.781 120.198 29.223ZM126.713 34V28.883L126.373 27.013L126.9 25.976H128.753V26.707L128.906 26.809C129.031 26.6957 129.201 26.5653 129.416 26.418C129.643 26.2593 129.915 26.1177 130.232 25.993C130.549 25.8683 130.906 25.806 131.303 25.806C132.323 25.806 133.088 26.095 133.598 26.673C134.108 27.251 134.363 28.0613 134.363 29.104V31.263L134.72 32.963L134.363 34H131.983V29.036C131.983 28.6053 131.887 28.2767 131.694 28.05C131.513 27.812 131.224 27.693 130.827 27.693L129.093 28.016V34H126.713ZM138.568 34.17C137.888 34.17 137.361 34.0397 136.987 33.779C136.625 33.5183 136.37 33.1443 136.222 32.657C136.086 32.1583 136.018 31.5633 136.018 30.872V25.959H138.398V30.94C138.398 31.4047 138.483 31.7447 138.653 31.96C138.835 32.1753 139.135 32.283 139.554 32.283C140.087 32.283 140.506 32.079 140.812 31.671C141.13 31.263 141.288 30.787 141.288 30.243V25.959H143.668V31.263L144.025 32.963L143.668 34H141.475V33.167L141.305 33.082C141.158 33.2293 140.943 33.388 140.659 33.558C140.387 33.728 140.07 33.8753 139.707 34C139.356 34.1133 138.976 34.17 138.568 34.17ZM138.347 25.245L136.817 23.715L138.347 22.185L139.877 23.715L138.347 25.245ZM141.917 25.245L140.387 23.715L141.917 22.185L143.447 23.715L141.917 25.245Z" fill="#1C4570"/>
</svg>
