<svg width="202" height="56" viewBox="0 0 202 56" fill="none" xmlns="http://www.w3.org/2000/svg">
<rect x="1" y="1" width="200" height="54" rx="7" fill="#FFFFF5"/>
<path fill-rule="evenodd" clip-rule="evenodd" d="M8 1C4.13401 1 1 4.13401 1 8V48C1 51.866 4.13401 55 8.00001 55H194C197.866 55 201 51.866 201 48V8C201 4.13401 197.866 1 194 1H8ZM8.30602 10.6695C8.12954 12.9669 8.09425 17.857 9.36488 19.0385C10.9532 20.5154 13.6004 24.4537 14.1298 28.392C14.5935 31.8416 12.2141 36.0464 10.9048 38.3603C10.7193 38.6882 10.5552 38.9781 10.4238 39.2225C10.2473 39.5506 10.0267 39.8925 9.7988 40.2457C8.65902 42.0121 7.33541 44.0633 10.4238 46.1146C14.1298 48.576 26.8362 49.5606 28.9539 49.5606H55.4255C57.5381 49.5606 60.1448 49.6525 62.9743 49.7522C71.4902 50.0523 82.0253 50.4236 87.1913 48.576C88.3485 48.1622 89.4158 47.7623 90.4211 47.3856C95.3949 45.522 98.8481 44.2282 104.133 44.6377C110.486 45.13 122.134 47.0991 126.899 48.576C129.74 49.4566 140.11 48.2369 149.704 47.1085C156.201 46.3445 162.341 45.6223 165.547 45.6223C173.489 45.6223 180.901 46.1146 185.666 46.6068C190.43 47.0991 193.078 40.6993 193.078 35.7764C193.078 34.2464 193.231 32.2884 193.395 30.198C193.758 25.5625 194.172 20.2759 193.078 17.5616C192.662 16.5315 192.428 15.1983 192.185 13.8174C191.5 9.91888 190.748 5.64061 185.666 6.73119C180.125 7.92001 172.184 8.15188 161.841 8.45387C159.335 8.52705 156.688 8.60434 153.9 8.70036C139.605 9.19265 120.546 8.70036 117.898 8.20807C117.096 8.05892 113.233 8.45204 107.942 8.99039C95.7689 10.2289 76.0418 12.2361 68.6612 10.1772C58.0726 7.22348 23.1302 4.26973 16.2475 7.22348C13.0393 8.60033 11.4415 8.58662 10.4891 8.57844C9.39829 8.56908 9.15393 8.56699 8.30602 10.6695Z" fill="#E0E0C7"/>
<rect x="1" y="1" width="200" height="54" rx="7" stroke="#1C4570" stroke-width="2" stroke-linecap="round"/>
<ellipse cx="36.567" cy="16.5" rx="2.57732" ry="2.5" fill="#E0E0C7"/>
<ellipse cx="57.1856" cy="40.5" rx="3.60825" ry="3.5" fill="#E0E0C7"/>
<ellipse cx="171.619" cy="16.5" rx="2.57732" ry="2.5" fill="#E0E0C7"/>
<ellipse cx="123.165" cy="29.5" rx="1.54639" ry="1.5" fill="#E0E0C7"/>
<path d="M82.4818 35.17C82.1531 35.17 81.7848 35.153 81.3768 35.119C80.9801 35.085 80.6628 35.0453 80.4248 35L78.5548 33.81L79.5748 31.906L82.0398 32.994C82.8784 32.994 83.4734 32.756 83.8248 32.28C84.1874 31.7927 84.3688 31.005 84.3688 29.917V25.684L84.0118 23.984L84.1988 22.964H86.6978L86.7148 30.801C86.7148 31.651 86.5504 32.4047 86.2218 33.062C85.8931 33.7193 85.4114 34.235 84.7768 34.609C84.1534 34.983 83.3884 35.17 82.4818 35.17ZM92.1538 35.17C90.7712 35.17 89.7568 34.8073 89.1108 34.082C88.4648 33.3567 88.1418 32.3253 88.1418 30.988C88.1418 29.6393 88.4648 28.608 89.1108 27.894C89.7568 27.1687 90.7712 26.806 92.1538 26.806C93.5818 26.806 94.6018 27.1687 95.2138 27.894C95.8372 28.608 96.1488 29.6393 96.1488 30.988C96.1488 32.3253 95.8372 33.3567 95.2138 34.082C94.6018 34.8073 93.5818 35.17 92.1538 35.17ZM92.1538 33.47C92.6185 33.47 92.9982 33.2887 93.2928 32.926C93.5988 32.5633 93.7518 31.9173 93.7518 30.988C93.7518 30.0587 93.5988 29.4127 93.2928 29.05C92.9982 28.6873 92.6185 28.506 92.1538 28.506C91.6778 28.506 91.2868 28.6873 90.9808 29.05C90.6862 29.4127 90.5388 30.0587 90.5388 30.988C90.5388 31.9173 90.6918 32.5633 90.9978 32.926C91.3038 33.2887 91.6892 33.47 92.1538 33.47ZM99.8931 35.17C99.2131 35.17 98.6861 35.0397 98.3121 34.779C97.9494 34.5183 97.6944 34.1443 97.5471 33.657C97.4111 33.1583 97.3431 32.5633 97.3431 31.872V26.959H99.7231V31.94C99.7231 32.4047 99.8081 32.7447 99.9781 32.96C100.159 33.1753 100.46 33.283 100.879 33.283C101.412 33.283 101.831 33.079 102.137 32.671C102.454 32.263 102.613 31.787 102.613 31.243V26.959H104.993V32.263L105.35 33.963L104.993 35H102.8V34.167L102.63 34.082C102.483 34.2293 102.267 34.388 101.984 34.558C101.712 34.728 101.395 34.8753 101.032 35C100.681 35.1133 100.301 35.17 99.8931 35.17ZM110.361 35.17C109.625 35.17 108.967 35.0397 108.389 34.779C107.811 34.5183 107.358 34.082 107.029 33.47C106.701 32.858 106.536 32.0307 106.536 30.988C106.536 29.9793 106.712 29.169 107.063 28.557C107.415 27.945 107.879 27.503 108.457 27.231C109.035 26.9477 109.67 26.806 110.361 26.806C111.121 26.806 111.716 26.891 112.146 27.061C112.588 27.231 112.923 27.3953 113.149 27.554L113.999 30.257L113.659 31.311H108.899C108.967 31.9117 109.183 32.3933 109.545 32.756C109.908 33.1187 110.463 33.3 111.211 33.3C111.823 33.3 112.316 33.2263 112.69 33.079C113.076 32.9317 113.342 32.8183 113.489 32.739V34.507C113.149 34.6883 112.713 34.847 112.18 34.983C111.659 35.1077 111.053 35.17 110.361 35.17ZM108.882 30.223L111.432 29.883L111.177 28.625C111.098 28.5797 110.985 28.5457 110.837 28.523C110.701 28.5003 110.577 28.489 110.463 28.489C109.953 28.489 109.562 28.6703 109.29 29.033C109.018 29.3843 108.882 29.781 108.882 30.223ZM115.414 35V29.679L115.057 27.979L115.414 26.959H117.046L117.386 27.35C117.386 27.35 117.46 27.3047 117.607 27.214C117.766 27.112 117.987 27.0157 118.27 26.925C118.553 26.8343 118.899 26.789 119.307 26.789C119.534 26.789 119.76 26.806 119.987 26.84C120.214 26.874 120.389 26.9193 120.514 26.976L121.619 28.081L120.684 29.747L118.355 28.574L117.76 28.812V35H115.414Z" fill="#1C4570"/>
</svg>
