<svg width="202" height="56" viewBox="0 0 202 56" fill="none" xmlns="http://www.w3.org/2000/svg">
<rect x="1" y="1" width="200" height="54" rx="7" fill="#FFFFF5"/>
<path fill-rule="evenodd" clip-rule="evenodd" d="M8 1C4.13401 1 1 4.13401 1 8V48C1 51.866 4.13401 55 8.00001 55H194C197.866 55 201 51.866 201 48V8C201 4.13401 197.866 1 194 1H8ZM8.30602 10.6695C8.12954 12.9669 8.09425 17.857 9.36488 19.0385C10.9532 20.5154 13.6004 24.4537 14.1298 28.392C14.5935 31.8416 12.2141 36.0464 10.9048 38.3603C10.7193 38.6882 10.5552 38.9781 10.4238 39.2225C10.2473 39.5506 10.0267 39.8925 9.7988 40.2457C8.65902 42.0121 7.33541 44.0633 10.4238 46.1146C14.1298 48.576 26.8362 49.5606 28.9539 49.5606H55.4255C57.5381 49.5606 60.1448 49.6525 62.9743 49.7522C71.4902 50.0523 82.0253 50.4236 87.1913 48.576C88.3485 48.1622 89.4158 47.7623 90.4211 47.3856C95.3949 45.522 98.8481 44.2282 104.133 44.6377C110.486 45.13 122.134 47.0991 126.899 48.576C129.74 49.4566 140.11 48.2369 149.704 47.1085C156.201 46.3445 162.341 45.6223 165.547 45.6223C173.489 45.6223 180.901 46.1146 185.666 46.6068C190.43 47.0991 193.078 40.6993 193.078 35.7764C193.078 34.2464 193.231 32.2884 193.395 30.198C193.758 25.5625 194.172 20.2759 193.078 17.5616C192.662 16.5315 192.428 15.1983 192.185 13.8174C191.5 9.91888 190.748 5.64061 185.666 6.73119C180.125 7.92001 172.184 8.15188 161.841 8.45387C159.335 8.52705 156.688 8.60434 153.9 8.70036C139.605 9.19265 120.546 8.70036 117.898 8.20807C117.096 8.05892 113.233 8.45204 107.942 8.99039C95.7689 10.2289 76.0418 12.2361 68.6612 10.1772C58.0726 7.22348 23.1302 4.26973 16.2475 7.22348C13.0393 8.60033 11.4415 8.58662 10.4891 8.57844C9.39829 8.56908 9.15393 8.56699 8.30602 10.6695Z" fill="#E0E0C7"/>
<rect x="1" y="1" width="200" height="54" rx="7" stroke="#1C4570" stroke-width="2" stroke-linecap="round"/>
<ellipse cx="36.567" cy="16.5" rx="2.57732" ry="2.5" fill="#E0E0C7"/>
<ellipse cx="57.1856" cy="40.5" rx="3.60825" ry="3.5" fill="#E0E0C7"/>
<ellipse cx="171.619" cy="16.5" rx="2.57732" ry="2.5" fill="#E0E0C7"/>
<ellipse cx="123.165" cy="29.5" rx="1.54639" ry="1.5" fill="#E0E0C7"/>
<path d="M59.8312 35L59.4912 33.98L59.8312 32.28V22.964H62.2112V29.951L62.0412 32.79H62.3812L66.1042 32.62L67.3112 32.45L68.4672 33.912L67.6342 35H59.8312ZM72.9331 35.17C72.1965 35.17 71.5391 35.0397 70.9611 34.779C70.3831 34.5183 69.9298 34.082 69.6011 33.47C69.2725 32.858 69.1081 32.0307 69.1081 30.988C69.1081 29.9793 69.2838 29.169 69.6351 28.557C69.9865 27.945 70.4511 27.503 71.0291 27.231C71.6071 26.9477 72.2418 26.806 72.9331 26.806C73.6925 26.806 74.2875 26.891 74.7181 27.061C75.1601 27.231 75.4945 27.3953 75.7211 27.554L76.5711 30.257L76.2311 31.311H71.4711C71.5391 31.9117 71.7545 32.3933 72.1171 32.756C72.4798 33.1187 73.0351 33.3 73.7831 33.3C74.3951 33.3 74.8881 33.2263 75.2621 33.079C75.6475 32.9317 75.9138 32.8183 76.0611 32.739V34.507C75.7211 34.6883 75.2848 34.847 74.7521 34.983C74.2308 35.1077 73.6245 35.17 72.9331 35.17ZM71.4541 30.223L74.0041 29.883L73.7491 28.625C73.6698 28.5797 73.5565 28.5457 73.4091 28.523C73.2731 28.5003 73.1485 28.489 73.0351 28.489C72.5251 28.489 72.1341 28.6703 71.8621 29.033C71.5901 29.3843 71.4541 29.781 71.4541 30.223ZM82.5927 35C82.0487 35 81.6124 34.9547 81.2837 34.864C80.9551 34.762 80.7171 34.6657 80.5697 34.575C80.4337 34.473 80.3657 34.422 80.3657 34.422V34.847H77.9857V25.531L77.6287 23.831L77.9857 22.811H80.3657V25.548L80.1957 27.469L80.3657 27.554C80.5924 27.3387 80.8701 27.1347 81.1987 26.942C81.5387 26.738 82.0034 26.636 82.5927 26.636C83.6014 26.636 84.3891 26.959 84.9557 27.605C85.5337 28.251 85.8227 29.271 85.8227 30.665C85.8227 31.7077 85.6754 32.552 85.3807 33.198C85.0974 33.8327 84.7121 34.2917 84.2247 34.575C83.7374 34.8583 83.1934 35 82.5927 35ZM81.5047 33.198C81.9581 33.198 82.3094 33.0847 82.5587 32.858C82.8194 32.6313 83.0007 32.3367 83.1027 31.974C83.2161 31.6113 83.2727 31.2203 83.2727 30.801C83.2727 30.393 83.2274 30.019 83.1367 29.679C83.0574 29.3277 82.9044 29.05 82.6777 28.846C82.4511 28.6307 82.1167 28.523 81.6747 28.523L80.3657 28.88V32.977C80.3657 32.977 80.4847 33.0167 80.7227 33.096C80.9607 33.164 81.2214 33.198 81.5047 33.198ZM90.6636 35.17C89.9269 35.17 89.2696 35.0397 88.6916 34.779C88.1136 34.5183 87.6603 34.082 87.3316 33.47C87.0029 32.858 86.8386 32.0307 86.8386 30.988C86.8386 29.9793 87.0143 29.169 87.3656 28.557C87.7169 27.945 88.1816 27.503 88.7596 27.231C89.3376 26.9477 89.9723 26.806 90.6636 26.806C91.4229 26.806 92.0179 26.891 92.4486 27.061C92.8906 27.231 93.2249 27.3953 93.4516 27.554L94.3016 30.257L93.9616 31.311H89.2016C89.2696 31.9117 89.4849 32.3933 89.8476 32.756C90.2103 33.1187 90.7656 33.3 91.5136 33.3C92.1256 33.3 92.6186 33.2263 92.9926 33.079C93.3779 32.9317 93.6443 32.8183 93.7916 32.739V34.507C93.4516 34.6883 93.0153 34.847 92.4826 34.983C91.9613 35.1077 91.3549 35.17 90.6636 35.17ZM89.1846 30.223L91.7346 29.883L91.4796 28.625C91.4003 28.5797 91.2869 28.5457 91.1396 28.523C91.0036 28.5003 90.8789 28.489 90.7656 28.489C90.2556 28.489 89.8646 28.6703 89.5926 29.033C89.3206 29.3843 89.1846 29.781 89.1846 30.223ZM95.6992 35V29.883L95.3592 28.013L95.8862 26.976H97.7392V27.707L97.8922 27.809C98.0169 27.6957 98.1869 27.5653 98.4022 27.418C98.6289 27.2593 98.9009 27.1177 99.2182 26.993C99.5355 26.8683 99.8925 26.806 100.289 26.806C101.309 26.806 102.074 27.095 102.584 27.673C103.094 28.251 103.349 29.0613 103.349 30.104V32.263L103.706 33.963L103.349 35H100.969V30.036C100.969 29.6053 100.873 29.2767 100.68 29.05C100.499 28.812 100.21 28.693 99.8132 28.693L98.0792 29.016V35H95.6992ZM107.963 35.17C107.237 35.17 106.631 35.1077 106.144 34.983C105.668 34.8583 105.282 34.7167 104.988 34.558V32.552C105.396 32.7673 105.86 32.9543 106.382 33.113C106.914 33.2603 107.424 33.334 107.912 33.334C108.49 33.334 108.779 33.147 108.779 32.773C108.779 32.569 108.694 32.416 108.524 32.314C108.365 32.212 108.138 32.1213 107.844 32.042C107.56 31.9513 107.232 31.8437 106.858 31.719C106.212 31.4923 105.713 31.2033 105.362 30.852C105.01 30.5007 104.835 29.951 104.835 29.203C104.835 28.3983 105.112 27.7977 105.668 27.401C106.234 27.0043 106.977 26.806 107.895 26.806C108.269 26.806 108.586 26.8287 108.847 26.874C109.107 26.908 109.345 26.942 109.561 26.976L111.108 27.826L110.445 29.475L107.895 28.659C107.679 28.659 107.504 28.7043 107.368 28.795C107.243 28.8743 107.181 28.9877 107.181 29.135C107.181 29.373 107.3 29.5543 107.538 29.679C107.776 29.7923 108.121 29.917 108.575 30.053C109.493 30.325 110.167 30.6537 110.598 31.039C111.028 31.4243 111.244 31.991 111.244 32.739C111.244 33.4303 110.972 34.0083 110.428 34.473C109.895 34.9377 109.073 35.17 107.963 35.17ZM112.715 35V25.684L112.358 23.984L112.715 22.964H115.095V35H112.715ZM119.292 35.17C118.533 35.17 117.887 34.9773 117.354 34.592C116.833 34.1953 116.572 33.5833 116.572 32.756C116.572 31.8833 116.85 31.2203 117.405 30.767C117.96 30.3023 118.703 30.07 119.632 30.07C120.312 30.07 120.828 30.1267 121.179 30.24C121.542 30.3533 121.78 30.4383 121.893 30.495L122.012 30.393C122.012 30.053 121.984 29.7527 121.927 29.492C121.87 29.2313 121.74 29.033 121.536 28.897C121.332 28.7497 121.015 28.676 120.584 28.676C119.813 28.676 119.122 28.7383 118.51 28.863C117.909 28.9877 117.433 29.101 117.082 29.203V27.333C117.433 27.2083 117.966 27.095 118.68 26.993C119.394 26.8797 120.165 26.823 120.992 26.823C121.695 26.823 122.267 26.9193 122.709 27.112C123.162 27.2933 123.508 27.5427 123.746 27.86C123.995 28.1773 124.165 28.5287 124.256 28.914C124.358 29.288 124.409 29.662 124.409 30.036V32.297L124.749 34.014L124.409 35.017H122.182V34.184L122.012 34.099C121.921 34.2123 121.763 34.354 121.536 34.524C121.321 34.694 121.026 34.847 120.652 34.983C120.289 35.1077 119.836 35.17 119.292 35.17ZM120.227 33.283C120.714 33.283 121.094 33.2377 121.366 33.147C121.649 33.0563 121.865 32.9657 122.012 32.875V32.552C122.012 32.3367 121.882 32.1213 121.621 31.906C121.372 31.6907 120.958 31.583 120.38 31.583C119.949 31.583 119.632 31.668 119.428 31.838C119.224 32.008 119.122 32.2233 119.122 32.484C119.122 32.756 119.218 32.96 119.411 33.096C119.604 33.2207 119.876 33.283 120.227 33.283ZM128.589 35.17C127.909 35.17 127.382 35.0397 127.008 34.779C126.645 34.5183 126.39 34.1443 126.243 33.657C126.107 33.1583 126.039 32.5633 126.039 31.872V26.959H128.419V31.94C128.419 32.4047 128.504 32.7447 128.674 32.96C128.855 33.1753 129.156 33.283 129.575 33.283C130.108 33.283 130.527 33.079 130.833 32.671C131.15 32.263 131.309 31.787 131.309 31.243V26.959H133.689V32.263L134.046 33.963L133.689 35H131.496V34.167L131.326 34.082C131.179 34.2293 130.963 34.388 130.68 34.558C130.408 34.728 130.091 34.8753 129.728 35C129.377 35.1133 128.997 35.17 128.589 35.17ZM135.963 35V28.982L135.062 27.792L135.963 26.976C135.907 26.7833 135.861 26.5283 135.827 26.211C135.805 25.8823 135.793 25.616 135.793 25.412C135.793 24.4487 136.009 23.6667 136.439 23.066C136.881 22.454 137.607 22.148 138.615 22.148C138.933 22.148 139.267 22.165 139.618 22.199C139.981 22.2217 140.293 22.267 140.553 22.335L142.202 23.372L141.403 25.055L139.108 24.035C138.723 24.035 138.44 24.1823 138.258 24.477C138.077 24.7603 137.986 25.1173 137.986 25.548C137.986 25.8313 138.026 26.1203 138.105 26.415C138.185 26.6983 138.264 26.8853 138.343 26.976H141.063V28.506H138.343V32.246L138.513 33.963L138.343 35H135.963Z" fill="#1C4570"/>
</svg>
