<svg width="202" height="56" viewBox="0 0 202 56" fill="none" xmlns="http://www.w3.org/2000/svg">
<rect x="1" y="1" width="200" height="54" rx="7" fill="#FFFFF5"/>
<path fill-rule="evenodd" clip-rule="evenodd" d="M8 1C4.13401 1 1 4.13401 1 8V48C1 51.866 4.13401 55 8.00001 55H194C197.866 55 201 51.866 201 48V8C201 4.13401 197.866 1 194 1H8ZM8.30602 10.6695C8.12954 12.9669 8.09425 17.857 9.36488 19.0385C10.9532 20.5154 13.6004 24.4537 14.1298 28.392C14.5935 31.8416 12.2141 36.0464 10.9048 38.3603C10.7193 38.6882 10.5552 38.9781 10.4238 39.2225C10.2473 39.5506 10.0267 39.8925 9.7988 40.2457C8.65902 42.0121 7.33541 44.0633 10.4238 46.1146C14.1298 48.576 26.8362 49.5606 28.9539 49.5606H55.4255C57.5381 49.5606 60.1448 49.6525 62.9743 49.7522C71.4902 50.0523 82.0253 50.4236 87.1913 48.576C88.3485 48.1622 89.4158 47.7623 90.4211 47.3856C95.3949 45.522 98.8481 44.2282 104.133 44.6377C110.486 45.13 122.134 47.0991 126.899 48.576C129.74 49.4566 140.11 48.2369 149.704 47.1085C156.201 46.3445 162.341 45.6223 165.547 45.6223C173.489 45.6223 180.901 46.1146 185.666 46.6068C190.43 47.0991 193.078 40.6993 193.078 35.7764C193.078 34.2464 193.231 32.2884 193.395 30.198C193.758 25.5625 194.172 20.2759 193.078 17.5616C192.662 16.5315 192.428 15.1983 192.185 13.8174C191.5 9.91888 190.748 5.64061 185.666 6.73119C180.125 7.92001 172.184 8.15188 161.841 8.45387C159.335 8.52705 156.688 8.60434 153.9 8.70036C139.605 9.19265 120.546 8.70036 117.898 8.20807C117.096 8.05892 113.233 8.45204 107.942 8.99039C95.7689 10.2289 76.0418 12.2361 68.6612 10.1772C58.0726 7.22348 23.1302 4.26973 16.2475 7.22348C13.0393 8.60033 11.4415 8.58662 10.4891 8.57844C9.39829 8.56908 9.15393 8.56699 8.30602 10.6695Z" fill="#E0E0C7"/>
<rect x="1" y="1" width="200" height="54" rx="7" stroke="#1C4570" stroke-width="2" stroke-linecap="round"/>
<ellipse cx="36.567" cy="16.5" rx="2.57732" ry="2.5" fill="#E0E0C7"/>
<ellipse cx="57.1856" cy="40.5" rx="3.60825" ry="3.5" fill="#E0E0C7"/>
<ellipse cx="171.619" cy="16.5" rx="2.57732" ry="2.5" fill="#E0E0C7"/>
<ellipse cx="123.165" cy="29.5" rx="1.54639" ry="1.5" fill="#E0E0C7"/>
<path d="M59.6671 34V24.701L59.3271 23.001L59.6841 21.981H62.2511L65.9231 29.121H66.2631L69.3571 21.981H72.0601L72.2301 23.001L72.0601 24.633V34H69.6631L69.7141 32.555V26.452H69.5271L68.9491 27.863L66.9771 32.3H64.9371L62.2171 26.452H62.0471V27.829L62.2171 34H59.6671ZM76.4785 34.17C75.7192 34.17 75.0732 33.9773 74.5405 33.592C74.0192 33.1953 73.7585 32.5833 73.7585 31.756C73.7585 30.8833 74.0362 30.2203 74.5915 29.767C75.1469 29.3023 75.8892 29.07 76.8185 29.07C77.4985 29.07 78.0142 29.1267 78.3655 29.24C78.7282 29.3533 78.9662 29.4383 79.0795 29.495L79.1985 29.393C79.1985 29.053 79.1702 28.7527 79.1135 28.492C79.0569 28.2313 78.9265 28.033 78.7225 27.897C78.5185 27.7497 78.2012 27.676 77.7705 27.676C76.9999 27.676 76.3085 27.7383 75.6965 27.863C75.0959 27.9877 74.6199 28.101 74.2685 28.203V26.333C74.6199 26.2083 75.1525 26.095 75.8665 25.993C76.5805 25.8797 77.3512 25.823 78.1785 25.823C78.8812 25.823 79.4535 25.9193 79.8955 26.112C80.3489 26.2933 80.6945 26.5427 80.9325 26.86C81.1819 27.1773 81.3519 27.5287 81.4425 27.914C81.5445 28.288 81.5955 28.662 81.5955 29.036V31.297L81.9355 33.014L81.5955 34.017H79.3685V33.184L79.1985 33.099C79.1079 33.2123 78.9492 33.354 78.7225 33.524C78.5072 33.694 78.2125 33.847 77.8385 33.983C77.4759 34.1077 77.0225 34.17 76.4785 34.17ZM77.4135 32.283C77.9009 32.283 78.2805 32.2377 78.5525 32.147C78.8359 32.0563 79.0512 31.9657 79.1985 31.875V31.552C79.1985 31.3367 79.0682 31.1213 78.8075 30.906C78.5582 30.6907 78.1445 30.583 77.5665 30.583C77.1359 30.583 76.8185 30.668 76.6145 30.838C76.4105 31.008 76.3085 31.2233 76.3085 31.484C76.3085 31.756 76.4049 31.96 76.5975 32.096C76.7902 32.2207 77.0622 32.283 77.4135 32.283ZM84.7554 25.126L82.9364 23.307L84.7554 21.488L86.5574 23.307L84.7554 25.126ZM83.5654 34V28.373L83.2084 27.013L83.5484 25.976H85.9284V34H83.5654ZM87.8154 34V28.883L87.4754 27.013L88.0024 25.976H89.8554V26.707L90.0084 26.809C90.1331 26.6957 90.3031 26.5653 90.5184 26.418C90.7451 26.2593 91.0171 26.1177 91.3344 25.993C91.6517 25.8683 92.0087 25.806 92.4054 25.806C93.4254 25.806 94.1904 26.095 94.7004 26.673C95.2104 27.251 95.4654 28.0613 95.4654 29.104V31.263L95.8224 32.963L95.4654 34H93.0854V29.036C93.0854 28.6053 92.9891 28.2767 92.7964 28.05C92.6151 27.812 92.3261 27.693 91.9294 27.693L90.1954 28.016V34H87.8154ZM101.205 27.013L101.732 25.976H103.585V26.707L103.738 26.809C103.863 26.6957 104.033 26.5653 104.248 26.418C104.475 26.2593 104.747 26.1177 105.064 25.993C105.381 25.8683 105.738 25.806 106.135 25.806C107.314 25.806 108.158 26.197 108.668 26.979C108.861 26.6957 109.161 26.4293 109.569 26.18C109.988 25.9193 110.566 25.789 111.303 25.789C112.323 25.789 113.088 26.078 113.598 26.656C114.108 27.234 114.363 28.0443 114.363 29.087V31.263L114.72 32.963L114.363 34H112V29.019C112 28.5883 111.881 28.2597 111.643 28.033C111.416 27.795 111.088 27.676 110.657 27.676C110.215 27.676 109.858 27.8007 109.586 28.05C109.325 28.2993 109.195 28.628 109.195 29.036V29.104V34H106.815V29.036C106.815 28.6053 106.719 28.2767 106.526 28.05C106.345 27.812 106.056 27.693 105.659 27.693L103.925 28.016V34H101.545V28.883L101.205 27.013ZM119.668 34.17C118.932 34.17 118.274 34.0397 117.696 33.779C117.118 33.5183 116.665 33.082 116.336 32.47C116.008 31.858 115.843 31.0307 115.843 29.988C115.843 28.9793 116.019 28.169 116.37 27.557C116.722 26.945 117.186 26.503 117.764 26.231C118.342 25.9477 118.977 25.806 119.668 25.806C120.428 25.806 121.023 25.891 121.453 26.061C121.895 26.231 122.23 26.3953 122.456 26.554L123.306 29.257L122.966 30.311H118.206C118.274 30.9117 118.49 31.3933 118.852 31.756C119.215 32.1187 119.77 32.3 120.518 32.3C121.13 32.3 121.623 32.2263 121.997 32.079C122.383 31.9317 122.649 31.8183 122.796 31.739V33.507C122.456 33.6883 122.02 33.847 121.487 33.983C120.966 34.1077 120.36 34.17 119.668 34.17ZM118.189 29.223L120.739 28.883L120.484 27.625C120.405 27.5797 120.292 27.5457 120.144 27.523C120.008 27.5003 119.884 27.489 119.77 27.489C119.26 27.489 118.869 27.6703 118.597 28.033C118.325 28.3843 118.189 28.781 118.189 29.223ZM124.704 34V28.883L124.364 27.013L124.891 25.976H126.744V26.707L126.897 26.809C127.022 26.6957 127.192 26.5653 127.407 26.418C127.634 26.2593 127.906 26.1177 128.223 25.993C128.54 25.8683 128.897 25.806 129.294 25.806C130.314 25.806 131.079 26.095 131.589 26.673C132.099 27.251 132.354 28.0613 132.354 29.104V31.263L132.711 32.963L132.354 34H129.974V29.036C129.974 28.6053 129.878 28.2767 129.685 28.05C129.504 27.812 129.215 27.693 128.818 27.693L127.084 28.016V34H124.704ZM136.56 34.17C135.88 34.17 135.353 34.0397 134.979 33.779C134.616 33.5183 134.361 33.1443 134.214 32.657C134.078 32.1583 134.01 31.5633 134.01 30.872V25.959H136.39V30.94C136.39 31.4047 136.475 31.7447 136.645 31.96C136.826 32.1753 137.126 32.283 137.546 32.283C138.078 32.283 138.498 32.079 138.804 31.671C139.121 31.263 139.28 30.787 139.28 30.243V25.959H141.66V31.263L142.017 32.963L141.66 34H139.467V33.167L139.297 33.082C139.149 33.2293 138.934 33.388 138.651 33.558C138.379 33.728 138.061 33.8753 137.699 34C137.347 34.1133 136.968 34.17 136.56 34.17Z" fill="#1C4570"/>
</svg>
