<svg width="202" height="56" viewBox="0 0 202 56" fill="none" xmlns="http://www.w3.org/2000/svg">
<rect x="1" y="1" width="200" height="54" rx="7" fill="#FFFFF5"/>
<path fill-rule="evenodd" clip-rule="evenodd" d="M8 1C4.13401 1 1 4.13401 1 8V48C1 51.866 4.13401 55 8.00001 55H194C197.866 55 201 51.866 201 48V8C201 4.13401 197.866 1 194 1H8ZM8.30602 10.6695C8.12954 12.9669 8.09425 17.857 9.36488 19.0385C10.9532 20.5154 13.6004 24.4537 14.1298 28.392C14.5935 31.8416 12.2141 36.0464 10.9048 38.3603C10.7193 38.6882 10.5552 38.9781 10.4238 39.2225C10.2473 39.5506 10.0267 39.8925 9.7988 40.2457C8.65902 42.0121 7.33541 44.0633 10.4238 46.1146C14.1298 48.576 26.8362 49.5606 28.9539 49.5606H55.4255C57.5381 49.5606 60.1448 49.6525 62.9743 49.7522C71.4902 50.0523 82.0253 50.4236 87.1913 48.576C88.3485 48.1622 89.4158 47.7623 90.4211 47.3856C95.3949 45.522 98.8481 44.2282 104.133 44.6377C110.486 45.13 122.134 47.0991 126.899 48.576C129.74 49.4566 140.11 48.2369 149.704 47.1085C156.201 46.3445 162.341 45.6223 165.547 45.6223C173.489 45.6223 180.901 46.1146 185.666 46.6068C190.43 47.0991 193.078 40.6993 193.078 35.7764C193.078 34.2464 193.231 32.2884 193.395 30.198C193.758 25.5625 194.172 20.2759 193.078 17.5616C192.662 16.5315 192.428 15.1983 192.185 13.8174C191.5 9.91888 190.748 5.64061 185.666 6.73119C180.125 7.92001 172.184 8.15188 161.841 8.45387C159.335 8.52705 156.688 8.60434 153.9 8.70036C139.605 9.19265 120.546 8.70036 117.898 8.20807C117.096 8.05892 113.233 8.45204 107.942 8.99039C95.7689 10.2289 76.0418 12.2361 68.6612 10.1772C58.0726 7.22348 23.1302 4.26973 16.2475 7.22348C13.0393 8.60033 11.4415 8.58662 10.4891 8.57844C9.39829 8.56908 9.15393 8.56699 8.30602 10.6695Z" fill="#E0E0C7"/>
<rect x="1" y="1" width="200" height="54" rx="7" stroke="#1C4570" stroke-width="2" stroke-linecap="round"/>
<ellipse cx="36.567" cy="16.5" rx="2.57732" ry="2.5" fill="#E0E0C7"/>
<ellipse cx="57.1856" cy="40.5" rx="3.60825" ry="3.5" fill="#E0E0C7"/>
<ellipse cx="171.619" cy="16.5" rx="2.57732" ry="2.5" fill="#E0E0C7"/>
<ellipse cx="123.165" cy="29.5" rx="1.54639" ry="1.5" fill="#E0E0C7"/>
<path d="M26.7545 34L26.4145 32.98L26.7545 31.28V21.964H29.1345V28.951L28.9645 31.79H29.3045L33.0275 31.62L34.2345 31.45L35.3905 32.912L34.5575 34H26.7545ZM39.8565 34.17C39.1198 34.17 38.4625 34.0397 37.8845 33.779C37.3065 33.5183 36.8532 33.082 36.5245 32.47C36.1958 31.858 36.0315 31.0307 36.0315 29.988C36.0315 28.9793 36.2072 28.169 36.5585 27.557C36.9098 26.945 37.3745 26.503 37.9525 26.231C38.5305 25.9477 39.1652 25.806 39.8565 25.806C40.6158 25.806 41.2108 25.891 41.6415 26.061C42.0835 26.231 42.4178 26.3953 42.6445 26.554L43.4945 29.257L43.1545 30.311H38.3945C38.4625 30.9117 38.6778 31.3933 39.0405 31.756C39.4032 32.1187 39.9585 32.3 40.7065 32.3C41.3185 32.3 41.8115 32.2263 42.1855 32.079C42.5708 31.9317 42.8372 31.8183 42.9845 31.739V33.507C42.6445 33.6883 42.2082 33.847 41.6755 33.983C41.1542 34.1077 40.5478 34.17 39.8565 34.17ZM38.3775 29.223L40.9275 28.883L40.6725 27.625C40.5932 27.5797 40.4798 27.5457 40.3325 27.523C40.1965 27.5003 40.0718 27.489 39.9585 27.489C39.4485 27.489 39.0575 27.6703 38.7855 28.033C38.5135 28.3843 38.3775 28.781 38.3775 29.223ZM47.5101 34.17C46.7847 34.17 46.1784 34.1077 45.6911 33.983C45.2151 33.8583 44.8297 33.7167 44.5351 33.558V31.552C44.9431 31.7673 45.4077 31.9543 45.9291 32.113C46.4617 32.2603 46.9717 32.334 47.4591 32.334C48.0371 32.334 48.3261 32.147 48.3261 31.773C48.3261 31.569 48.2411 31.416 48.0711 31.314C47.9124 31.212 47.6857 31.1213 47.3911 31.042C47.1077 30.9513 46.7791 30.8437 46.4051 30.719C45.7591 30.4923 45.2604 30.2033 44.9091 29.852C44.5577 29.5007 44.3821 28.951 44.3821 28.203C44.3821 27.3983 44.6597 26.7977 45.2151 26.401C45.7817 26.0043 46.5241 25.806 47.4421 25.806C47.8161 25.806 48.1334 25.8287 48.3941 25.874C48.6547 25.908 48.8927 25.942 49.1081 25.976L50.6551 26.826L49.9921 28.475L47.4421 27.659C47.2267 27.659 47.0511 27.7043 46.9151 27.795C46.7904 27.8743 46.7281 27.9877 46.7281 28.135C46.7281 28.373 46.8471 28.5543 47.0851 28.679C47.3231 28.7923 47.6687 28.917 48.1221 29.053C49.0401 29.325 49.7144 29.6537 50.1451 30.039C50.5757 30.4243 50.7911 30.991 50.7911 31.739C50.7911 32.4303 50.5191 33.0083 49.9751 33.473C49.4424 33.9377 48.6207 34.17 47.5101 34.17ZM56.057 27.013L56.584 25.976H58.437V26.707L58.59 26.809C58.7146 26.6957 58.8846 26.5653 59.1 26.418C59.3266 26.2593 59.5986 26.1177 59.916 25.993C60.2333 25.8683 60.5903 25.806 60.987 25.806C62.1656 25.806 63.01 26.197 63.52 26.979C63.7126 26.6957 64.013 26.4293 64.421 26.18C64.8403 25.9193 65.4183 25.789 66.155 25.789C67.175 25.789 67.94 26.078 68.45 26.656C68.96 27.234 69.215 28.0443 69.215 29.087V31.263L69.572 32.963L69.215 34H66.852V29.019C66.852 28.5883 66.733 28.2597 66.495 28.033C66.2683 27.795 65.9396 27.676 65.509 27.676C65.067 27.676 64.71 27.8007 64.438 28.05C64.1773 28.2993 64.047 28.628 64.047 29.036V29.104V34H61.667V29.036C61.667 28.6053 61.5706 28.2767 61.378 28.05C61.1966 27.812 60.9076 27.693 60.511 27.693L58.777 28.016V34H56.397V28.883L56.057 27.013ZM74.5205 34.17C73.7839 34.17 73.1265 34.0397 72.5485 33.779C71.9705 33.5183 71.5172 33.082 71.1885 32.47C70.8599 31.858 70.6955 31.0307 70.6955 29.988C70.6955 28.9793 70.8712 28.169 71.2225 27.557C71.5739 26.945 72.0385 26.503 72.6165 26.231C73.1945 25.9477 73.8292 25.806 74.5205 25.806C75.2799 25.806 75.8749 25.891 76.3055 26.061C76.7475 26.231 77.0819 26.3953 77.3085 26.554L78.1585 29.257L77.8185 30.311H73.0585C73.1265 30.9117 73.3419 31.3933 73.7045 31.756C74.0672 32.1187 74.6225 32.3 75.3705 32.3C75.9825 32.3 76.4755 32.2263 76.8495 32.079C77.2349 31.9317 77.5012 31.8183 77.6485 31.739V33.507C77.3085 33.6883 76.8722 33.847 76.3395 33.983C75.8182 34.1077 75.2119 34.17 74.5205 34.17ZM73.0415 29.223L75.5915 28.883L75.3365 27.625C75.2572 27.5797 75.1439 27.5457 74.9965 27.523C74.8605 27.5003 74.7359 27.489 74.6225 27.489C74.1125 27.489 73.7215 27.6703 73.4495 28.033C73.1775 28.3843 73.0415 28.781 73.0415 29.223ZM80.7461 25.126L78.9271 23.307L80.7461 21.488L82.5481 23.307L80.7461 25.126ZM79.5561 34V28.373L79.1991 27.013L79.5391 25.976H81.9191V34H79.5561ZM83.7551 34V24.684L83.3981 22.984L83.7551 21.964H86.1351V34H83.7551ZM88.0715 34V24.684L87.7145 22.984L88.0715 21.964H90.4515V34H88.0715ZM95.7539 34.17C95.0173 34.17 94.3599 34.0397 93.7819 33.779C93.2039 33.5183 92.7506 33.082 92.4219 32.47C92.0933 31.858 91.9289 31.0307 91.9289 29.988C91.9289 28.9793 92.1046 28.169 92.4559 27.557C92.8073 26.945 93.2719 26.503 93.8499 26.231C94.4279 25.9477 95.0626 25.806 95.7539 25.806C96.5133 25.806 97.1083 25.891 97.5389 26.061C97.9809 26.231 98.3153 26.3953 98.5419 26.554L99.3919 29.257L99.0519 30.311H94.2919C94.3599 30.9117 94.5753 31.3933 94.9379 31.756C95.3006 32.1187 95.8559 32.3 96.6039 32.3C97.2159 32.3 97.7089 32.2263 98.0829 32.079C98.4683 31.9317 98.7346 31.8183 98.8819 31.739V33.507C98.5419 33.6883 98.1056 33.847 97.5729 33.983C97.0516 34.1077 96.4453 34.17 95.7539 34.17ZM94.2749 29.223L96.8249 28.883L96.5699 27.625C96.4906 27.5797 96.3773 27.5457 96.2299 27.523C96.0939 27.5003 95.9693 27.489 95.8559 27.489C95.3459 27.489 94.9549 27.6703 94.6829 28.033C94.4109 28.3843 94.2749 28.781 94.2749 29.223ZM103 34.17C102.32 34.17 101.793 34.0397 101.419 33.779C101.056 33.5183 100.801 33.1443 100.654 32.657C100.518 32.1583 100.45 31.5633 100.45 30.872V25.959H102.83V30.94C102.83 31.4047 102.915 31.7447 103.085 31.96C103.266 32.1753 103.566 32.283 103.986 32.283C104.518 32.283 104.938 32.079 105.244 31.671C105.561 31.263 105.72 30.787 105.72 30.243V25.959H108.1V31.263L108.457 32.963L108.1 34H105.907V33.167L105.737 33.082C105.589 33.2293 105.374 33.388 105.091 33.558C104.819 33.728 104.501 33.8753 104.139 34C103.787 34.1133 103.408 34.17 103 34.17ZM110.17 34V28.679L109.813 26.979L110.17 25.959H111.802L112.142 26.35C112.142 26.35 112.215 26.3047 112.363 26.214C112.521 26.112 112.742 26.0157 113.026 25.925C113.309 25.8343 113.655 25.789 114.063 25.789C114.289 25.789 114.516 25.806 114.743 25.84C114.969 25.874 115.145 25.9193 115.27 25.976L116.375 27.081L115.44 28.747L113.111 27.574L112.516 27.812V34H110.17ZM120.009 34.17C119.284 34.17 118.677 34.1077 118.19 33.983C117.714 33.8583 117.329 33.7167 117.034 33.558V31.552C117.442 31.7673 117.907 31.9543 118.428 32.113C118.961 32.2603 119.471 32.334 119.958 32.334C120.536 32.334 120.825 32.147 120.825 31.773C120.825 31.569 120.74 31.416 120.57 31.314C120.411 31.212 120.185 31.1213 119.89 31.042C119.607 30.9513 119.278 30.8437 118.904 30.719C118.258 30.4923 117.759 30.2033 117.408 29.852C117.057 29.5007 116.881 28.951 116.881 28.203C116.881 27.3983 117.159 26.7977 117.714 26.401C118.281 26.0043 119.023 25.806 119.941 25.806C120.315 25.806 120.632 25.8287 120.893 25.874C121.154 25.908 121.392 25.942 121.607 25.976L123.154 26.826L122.491 28.475L119.941 27.659C119.726 27.659 119.55 27.7043 119.414 27.795C119.289 27.8743 119.227 27.9877 119.227 28.135C119.227 28.373 119.346 28.5543 119.584 28.679C119.822 28.7923 120.168 28.917 120.621 29.053C121.539 29.325 122.213 29.6537 122.644 30.039C123.075 30.4243 123.29 30.991 123.29 31.739C123.29 32.4303 123.018 33.0083 122.474 33.473C121.941 33.9377 121.12 34.17 120.009 34.17ZM131.514 34.17C130.789 34.17 130.182 34.1077 129.695 33.983C129.219 33.8583 128.834 33.7167 128.539 33.558V31.552C128.947 31.7673 129.412 31.9543 129.933 32.113C130.466 32.2603 130.976 32.334 131.463 32.334C132.041 32.334 132.33 32.147 132.33 31.773C132.33 31.569 132.245 31.416 132.075 31.314C131.916 31.212 131.69 31.1213 131.395 31.042C131.112 30.9513 130.783 30.8437 130.409 30.719C129.763 30.4923 129.264 30.2033 128.913 29.852C128.562 29.5007 128.386 28.951 128.386 28.203C128.386 27.3983 128.664 26.7977 129.219 26.401C129.786 26.0043 130.528 25.806 131.446 25.806C131.82 25.806 132.137 25.8287 132.398 25.874C132.659 25.908 132.897 25.942 133.112 25.976L134.659 26.826L133.996 28.475L131.446 27.659C131.231 27.659 131.055 27.7043 130.919 27.795C130.794 27.8743 130.732 27.9877 130.732 28.135C130.732 28.373 130.851 28.5543 131.089 28.679C131.327 28.7923 131.673 28.917 132.126 29.053C133.044 29.325 133.718 29.6537 134.149 30.039C134.58 30.4243 134.795 30.991 134.795 31.739C134.795 32.4303 134.523 33.0083 133.979 33.473C133.446 33.9377 132.625 34.17 131.514 34.17ZM139.462 34.17C138.771 34.17 138.147 34.0397 137.592 33.779C137.037 33.507 136.6 33.065 136.283 32.453C135.966 31.841 135.807 31.0193 135.807 29.988C135.807 28.934 135.983 28.1067 136.334 27.506C136.697 26.894 137.178 26.4577 137.779 26.197C138.391 25.9363 139.065 25.806 139.802 25.806C140.323 25.806 140.709 25.8287 140.958 25.874C141.219 25.908 141.44 25.9477 141.621 25.993L142.947 27.489L141.927 28.832L140.142 27.676C139.575 27.676 139.133 27.8743 138.816 28.271C138.499 28.6677 138.34 29.24 138.34 29.988C138.34 30.7813 138.51 31.365 138.85 31.739C139.19 32.113 139.677 32.3 140.312 32.3C140.731 32.3 141.105 32.2547 141.434 32.164C141.774 32.062 142.057 31.9543 142.284 31.841C142.511 31.7163 142.669 31.6257 142.76 31.569V33.507C142.477 33.6543 142.063 33.8017 141.519 33.949C140.986 34.0963 140.301 34.17 139.462 34.17ZM148.153 34.17C146.77 34.17 145.756 33.8073 145.11 33.082C144.464 32.3567 144.141 31.3253 144.141 29.988C144.141 28.6393 144.464 27.608 145.11 26.894C145.756 26.1687 146.77 25.806 148.153 25.806C149.581 25.806 150.601 26.1687 151.213 26.894C151.836 27.608 152.148 28.6393 152.148 29.988C152.148 31.3253 151.836 32.3567 151.213 33.082C150.601 33.8073 149.581 34.17 148.153 34.17ZM148.153 32.47C148.618 32.47 148.997 32.2887 149.292 31.926C149.598 31.5633 149.751 30.9173 149.751 29.988C149.751 29.0587 149.598 28.4127 149.292 28.05C148.997 27.6873 148.618 27.506 148.153 27.506C147.677 27.506 147.286 27.6873 146.98 28.05C146.685 28.4127 146.538 29.0587 146.538 29.988C146.538 30.9173 146.691 31.5633 146.997 31.926C147.303 32.2887 147.688 32.47 148.153 32.47ZM153.699 34V28.679L153.342 26.979L153.699 25.959H155.331L155.671 26.35C155.671 26.35 155.745 26.3047 155.892 26.214C156.051 26.112 156.272 26.0157 156.555 25.925C156.838 25.8343 157.184 25.789 157.592 25.789C157.819 25.789 158.045 25.806 158.272 25.84C158.499 25.874 158.674 25.9193 158.799 25.976L159.904 27.081L158.969 28.747L156.64 27.574L156.045 27.812V34H153.699ZM164.169 34.17C163.432 34.17 162.775 34.0397 162.197 33.779C161.619 33.5183 161.166 33.082 160.837 32.47C160.508 31.858 160.344 31.0307 160.344 29.988C160.344 28.9793 160.52 28.169 160.871 27.557C161.222 26.945 161.687 26.503 162.265 26.231C162.843 25.9477 163.478 25.806 164.169 25.806C164.928 25.806 165.523 25.891 165.954 26.061C166.396 26.231 166.73 26.3953 166.957 26.554L167.807 29.257L167.467 30.311H162.707C162.775 30.9117 162.99 31.3933 163.353 31.756C163.716 32.1187 164.271 32.3 165.019 32.3C165.631 32.3 166.124 32.2263 166.498 32.079C166.883 31.9317 167.15 31.8183 167.297 31.739V33.507C166.957 33.6883 166.521 33.847 165.988 33.983C165.467 34.1077 164.86 34.17 164.169 34.17ZM162.69 29.223L165.24 28.883L164.985 27.625C164.906 27.5797 164.792 27.5457 164.645 27.523C164.509 27.5003 164.384 27.489 164.271 27.489C163.761 27.489 163.37 27.6703 163.098 28.033C162.826 28.3843 162.69 28.781 162.69 29.223ZM171.823 34.17C171.097 34.17 170.491 34.1077 170.004 33.983C169.528 33.8583 169.142 33.7167 168.848 33.558V31.552C169.256 31.7673 169.72 31.9543 170.242 32.113C170.774 32.2603 171.284 32.334 171.772 32.334C172.35 32.334 172.639 32.147 172.639 31.773C172.639 31.569 172.554 31.416 172.384 31.314C172.225 31.212 171.998 31.1213 171.704 31.042C171.42 30.9513 171.092 30.8437 170.718 30.719C170.072 30.4923 169.573 30.2033 169.222 29.852C168.87 29.5007 168.695 28.951 168.695 28.203C168.695 27.3983 168.972 26.7977 169.528 26.401C170.094 26.0043 170.837 25.806 171.755 25.806C172.129 25.806 172.446 25.8287 172.707 25.874C172.967 25.908 173.205 25.942 173.421 25.976L174.968 26.826L174.305 28.475L171.755 27.659C171.539 27.659 171.364 27.7043 171.228 27.795C171.103 27.8743 171.041 27.9877 171.041 28.135C171.041 28.373 171.16 28.5543 171.398 28.679C171.636 28.7923 171.981 28.917 172.435 29.053C173.353 29.325 174.027 29.6537 174.458 30.039C174.888 30.4243 175.104 30.991 175.104 31.739C175.104 32.4303 174.832 33.0083 174.288 33.473C173.755 33.9377 172.933 34.17 171.823 34.17Z" fill="#1C4570"/>
</svg>
