<svg width="42" height="42" viewBox="0 0 42 42" fill="none" xmlns="http://www.w3.org/2000/svg">
<rect width="42" height="42" rx="6" fill="#B1B1B1"/>
<path fill-rule="evenodd" clip-rule="evenodd" d="M6 0C2.68629 0 0 2.68629 0 6V36C0 39.3137 2.68629 42 6 42H36C39.3137 42 42 39.3137 42 36V6C42 2.68629 39.3137 0 36 0H6ZM31.6027 3L26.6712 4.45946L23 3.5L17.7945 3L10.8904 4.45946L4.9726 7.37838L3.9863 10.7838L4.9726 17.1081L3 21L4.9726 27.3243V36.5H9L13.3562 39L17.7945 37.0541L21.2466 38.027L26.6712 38.5135L31.6027 37.0541L34.5616 38.5135L37.5205 35.1081V30.2432L39 25.8649L38.5068 21V14.1892L36.5342 10.2973V5L33.5753 4.45946L31.6027 3Z" fill="#707070"/>
<path fill-rule="evenodd" clip-rule="evenodd" d="M20.7895 11C20.2372 11 19.7895 11.4477 19.7895 12V12.3684V14.1053V25.5961C19.3704 25.4497 18.9076 25.3684 18.4211 25.3684C16.5317 25.3684 15 26.5937 15 28.1053C15 29.6168 16.5317 30.8421 18.4211 30.8421C20.3104 30.8421 21.8421 29.6168 21.8421 28.1053V28.1038V15.1053H27C27.5523 15.1053 28 14.6575 28 14.1053V12C28 11.4477 27.5523 11 27 11H20.7895Z" fill="#707070"/>
<rect x="11.2998" y="15.4672" width="2.93125" height="21" transform="rotate(-53.0081 11.2998 15.4672)" fill="#707070" stroke="#B1B1B1"/>
</svg>
