<svg width="42" height="42" viewBox="0 0 42 42" fill="none" xmlns="http://www.w3.org/2000/svg">
<rect width="42" height="42" rx="6" fill="#B02323"/>
<path fill-rule="evenodd" clip-rule="evenodd" d="M6 0C2.68629 0 0 2.68629 0 6V36C0 39.3137 2.68629 42 6 42H36C39.3137 42 42 39.3137 42 36V6C42 2.68629 39.3137 0 36 0H6ZM31.6027 3L26.6712 4.45946L23 3.5L17.7945 3L10.8904 4.45946L4.9726 7.37838L3.9863 10.7838L4.9726 17.1081L3 21L4.9726 27.3243V36.5H9L13.3562 39L17.7945 37.0541L21.2466 38.027L26.6712 38.5135L31.6027 37.0541L34.5616 38.5135L37.5205 35.1081V30.2432L39 25.8649L38.5068 21V14.1892L36.5342 10.2973V5L33.5753 4.45946L31.6027 3Z" fill="#4B0000"/>
<path fill-rule="evenodd" clip-rule="evenodd" d="M20.7895 10.5789C20.2372 10.5789 19.7895 11.0267 19.7895 11.5789V11.9474V13.6842V25.1751C19.3704 25.0286 18.9076 24.9474 18.4211 24.9474C16.5317 24.9474 15 26.1727 15 27.6842C15 29.1957 16.5317 30.4211 18.4211 30.4211C20.3104 30.4211 21.8421 29.1957 21.8421 27.6842V27.6828V14.6842H27C27.5523 14.6842 28 14.2365 28 13.6842V11.5789C28 11.0267 27.5523 10.5789 27 10.5789H20.7895Z" fill="#4B0000"/>
</svg>
