<svg width="202" height="56" viewBox="0 0 202 56" fill="none" xmlns="http://www.w3.org/2000/svg">
<rect x="1" y="1" width="200" height="54" rx="7" fill="#FFFFF5"/>
<path fill-rule="evenodd" clip-rule="evenodd" d="M8 1C4.13401 1 1 4.13401 1 8V48C1 51.866 4.13401 55 8.00001 55H194C197.866 55 201 51.866 201 48V8C201 4.13401 197.866 1 194 1H8ZM8.30602 10.6695C8.12954 12.9669 8.09425 17.857 9.36488 19.0385C10.9532 20.5154 13.6004 24.4537 14.1298 28.392C14.5935 31.8416 12.2141 36.0464 10.9048 38.3603C10.7193 38.6882 10.5552 38.9781 10.4238 39.2225C10.2473 39.5506 10.0267 39.8925 9.7988 40.2457C8.65902 42.0121 7.33541 44.0633 10.4238 46.1146C14.1298 48.576 26.8362 49.5606 28.9539 49.5606H55.4255C57.5381 49.5606 60.1448 49.6525 62.9743 49.7522C71.4902 50.0523 82.0253 50.4236 87.1913 48.576C88.3485 48.1622 89.4158 47.7623 90.4211 47.3856C95.3949 45.522 98.8481 44.2282 104.133 44.6377C110.486 45.13 122.134 47.0991 126.899 48.576C129.74 49.4566 140.11 48.2369 149.704 47.1085C156.201 46.3445 162.341 45.6223 165.547 45.6223C173.489 45.6223 180.901 46.1146 185.666 46.6068C190.43 47.0991 193.078 40.6993 193.078 35.7764C193.078 34.2464 193.231 32.2884 193.395 30.198C193.758 25.5625 194.172 20.2759 193.078 17.5616C192.662 16.5315 192.428 15.1983 192.185 13.8174C191.5 9.91888 190.748 5.64061 185.666 6.73119C180.125 7.92001 172.184 8.15188 161.841 8.45387C159.335 8.52705 156.688 8.60434 153.9 8.70036C139.605 9.19265 120.546 8.70036 117.898 8.20807C117.096 8.05892 113.233 8.45204 107.942 8.99039C95.7689 10.2289 76.0418 12.2361 68.6612 10.1772C58.0726 7.22348 23.1302 4.26973 16.2475 7.22348C13.0393 8.60033 11.4415 8.58662 10.4891 8.57844C9.39829 8.56908 9.15393 8.56699 8.30602 10.6695Z" fill="#E0E0C7"/>
<rect x="1" y="1" width="200" height="54" rx="7" stroke="#1C4570" stroke-width="2" stroke-linecap="round"/>
<ellipse cx="36.567" cy="16.5" rx="2.57732" ry="2.5" fill="#E0E0C7"/>
<ellipse cx="57.1856" cy="40.5" rx="3.60825" ry="3.5" fill="#E0E0C7"/>
<ellipse cx="171.619" cy="16.5" rx="2.57732" ry="2.5" fill="#E0E0C7"/>
<ellipse cx="123.165" cy="29.5" rx="1.54639" ry="1.5" fill="#E0E0C7"/>
<path d="M68.8478 34V24.701L68.5078 23.001L68.8478 21.981H70.9048L75.0188 27.965L75.8348 29.376H76.0048V21.981H78.5038V23.001L78.3338 24.701V34H76.3788L71.3978 26.656H71.2278V27.676L71.3978 34H68.8478ZM83.8589 34.17C83.1223 34.17 82.4649 34.0397 81.8869 33.779C81.3089 33.5183 80.8556 33.082 80.5269 32.47C80.1983 31.858 80.0339 31.0307 80.0339 29.988C80.0339 28.9793 80.2096 28.169 80.5609 27.557C80.9123 26.945 81.3769 26.503 81.9549 26.231C82.5329 25.9477 83.1676 25.806 83.8589 25.806C84.6183 25.806 85.2133 25.891 85.6439 26.061C86.0859 26.231 86.4203 26.3953 86.6469 26.554L87.4969 29.257L87.1569 30.311H82.3969C82.4649 30.9117 82.6803 31.3933 83.0429 31.756C83.4056 32.1187 83.9609 32.3 84.7089 32.3C85.3209 32.3 85.8139 32.2263 86.1879 32.079C86.5733 31.9317 86.8396 31.8183 86.9869 31.739V33.507C86.6469 33.6883 86.2106 33.847 85.6779 33.983C85.1566 34.1077 84.5503 34.17 83.8589 34.17ZM82.3799 29.223L84.9299 28.883L84.6749 27.625C84.5956 27.5797 84.4823 27.5457 84.3349 27.523C84.1989 27.5003 84.0743 27.489 83.9609 27.489C83.4509 27.489 83.0599 27.6703 82.7879 28.033C82.5159 28.3843 82.3799 28.781 82.3799 29.223ZM91.1045 34.17C90.4245 34.17 89.8975 34.0397 89.5235 33.779C89.1608 33.5183 88.9058 33.1443 88.7585 32.657C88.6225 32.1583 88.5545 31.5633 88.5545 30.872V25.959H90.9345V30.94C90.9345 31.4047 91.0195 31.7447 91.1895 31.96C91.3708 32.1753 91.6712 32.283 92.0905 32.283C92.6232 32.283 93.0425 32.079 93.3485 31.671C93.6658 31.263 93.8245 30.787 93.8245 30.243V25.959H96.2045V31.263L96.5615 32.963L96.2045 34H94.0115V33.167L93.8415 33.082C93.6942 33.2293 93.4788 33.388 93.1955 33.558C92.9235 33.728 92.6062 33.8753 92.2435 34C91.8922 34.1133 91.5125 34.17 91.1045 34.17ZM100.876 34.17C100.15 34.17 99.5441 34.1077 99.0568 33.983C98.5808 33.8583 98.1955 33.7167 97.9008 33.558V31.552C98.3088 31.7673 98.7735 31.9543 99.2948 32.113C99.8275 32.2603 100.337 32.334 100.825 32.334C101.403 32.334 101.692 32.147 101.692 31.773C101.692 31.569 101.607 31.416 101.437 31.314C101.278 31.212 101.051 31.1213 100.757 31.042C100.473 30.9513 100.145 30.8437 99.7708 30.719C99.1248 30.4923 98.6261 30.2033 98.2748 29.852C97.9235 29.5007 97.7478 28.951 97.7478 28.203C97.7478 27.3983 98.0255 26.7977 98.5808 26.401C99.1475 26.0043 99.8898 25.806 100.808 25.806C101.182 25.806 101.499 25.8287 101.76 25.874C102.02 25.908 102.258 25.942 102.474 25.976L104.021 26.826L103.358 28.475L100.808 27.659C100.592 27.659 100.417 27.7043 100.281 27.795C100.156 27.8743 100.094 27.9877 100.094 28.135C100.094 28.373 100.213 28.5543 100.451 28.679C100.689 28.7923 101.034 28.917 101.488 29.053C102.406 29.325 103.08 29.6537 103.511 30.039C103.941 30.4243 104.157 30.991 104.157 31.739C104.157 32.4303 103.885 33.0083 103.341 33.473C102.808 33.9377 101.986 34.17 100.876 34.17ZM108.11 34.17C107.339 34.17 106.778 34 106.427 33.66C106.075 33.32 105.9 32.8043 105.9 32.113V27.557H104.829V26.452L105.73 25.619L106.937 23.511H108.263V25.976H110.473V27.676H108.263V32.334L110.473 32.317V33.66C110.473 33.66 110.382 33.7053 110.201 33.796C110.019 33.8753 109.753 33.9547 109.402 34.034C109.062 34.1247 108.631 34.17 108.11 34.17ZM114.048 34.17C113.289 34.17 112.643 33.9773 112.11 33.592C111.589 33.1953 111.328 32.5833 111.328 31.756C111.328 30.8833 111.606 30.2203 112.161 29.767C112.716 29.3023 113.459 29.07 114.388 29.07C115.068 29.07 115.584 29.1267 115.935 29.24C116.298 29.3533 116.536 29.4383 116.649 29.495L116.768 29.393C116.768 29.053 116.74 28.7527 116.683 28.492C116.626 28.2313 116.496 28.033 116.292 27.897C116.088 27.7497 115.771 27.676 115.34 27.676C114.569 27.676 113.878 27.7383 113.266 27.863C112.665 27.9877 112.189 28.101 111.838 28.203V26.333C112.189 26.2083 112.722 26.095 113.436 25.993C114.15 25.8797 114.921 25.823 115.748 25.823C116.451 25.823 117.023 25.9193 117.465 26.112C117.918 26.2933 118.264 26.5427 118.502 26.86C118.751 27.1773 118.921 27.5287 119.012 27.914C119.114 28.288 119.165 28.662 119.165 29.036V31.297L119.505 33.014L119.165 34.017H116.938V33.184L116.768 33.099C116.677 33.2123 116.519 33.354 116.292 33.524C116.077 33.694 115.782 33.847 115.408 33.983C115.045 34.1077 114.592 34.17 114.048 34.17ZM114.983 32.283C115.47 32.283 115.85 32.2377 116.122 32.147C116.405 32.0563 116.621 31.9657 116.768 31.875V31.552C116.768 31.3367 116.638 31.1213 116.377 30.906C116.128 30.6907 115.714 30.583 115.136 30.583C114.705 30.583 114.388 30.668 114.184 30.838C113.98 31.008 113.878 31.2233 113.878 31.484C113.878 31.756 113.974 31.96 114.167 32.096C114.36 32.2207 114.632 32.283 114.983 32.283ZM121.152 34V28.679L120.795 26.979L121.152 25.959H122.784L123.124 26.35C123.124 26.35 123.197 26.3047 123.345 26.214C123.503 26.112 123.724 26.0157 124.008 25.925C124.291 25.8343 124.637 25.789 125.045 25.789C125.271 25.789 125.498 25.806 125.725 25.84C125.951 25.874 126.127 25.9193 126.252 25.976L127.357 27.081L126.422 28.747L124.093 27.574L123.498 27.812V34H121.152ZM130.804 34.17C130.033 34.17 129.472 34 129.121 33.66C128.77 33.32 128.594 32.8043 128.594 32.113V27.557H127.523V26.452L128.424 25.619L129.631 23.511H130.957V25.976H133.167V27.676H130.957V32.334L133.167 32.317V33.66C133.167 33.66 133.076 33.7053 132.895 33.796C132.714 33.8753 132.447 33.9547 132.096 34.034C131.756 34.1247 131.325 34.17 130.804 34.17Z" fill="#1C4570"/>
</svg>
