<svg width="22" height="14" viewBox="0 0 22 14" fill="none" xmlns="http://www.w3.org/2000/svg">
<path d="M0.728652 13V3.701L0.388652 2.001L0.728652 0.981H3.46565L6.89965 5.605L7.71565 7.016H7.88565V0.981H11.0987V2.001L10.9287 3.701V13H8.25965L3.99265 7.016H3.82265V8.036L3.99265 13H0.728652ZM16.8957 13.17C15.513 13.17 14.442 12.8413 13.6827 12.184C12.9233 11.5267 12.5437 10.4613 12.5437 8.988C12.5437 7.50333 12.9233 6.438 13.6827 5.792C14.442 5.13467 15.513 4.806 16.8957 4.806C18.3123 4.806 19.3833 5.13467 20.1087 5.792C20.8453 6.438 21.2137 7.50333 21.2137 8.988C21.2137 10.4613 20.8453 11.5267 20.1087 12.184C19.3833 12.8413 18.3123 13.17 16.8957 13.17ZM16.8957 10.96C17.3603 10.96 17.6833 10.79 17.8647 10.45C18.046 10.0987 18.1367 9.61133 18.1367 8.988C18.1367 8.35333 18.046 7.866 17.8647 7.526C17.6833 7.186 17.3603 7.016 16.8957 7.016C16.4197 7.016 16.0853 7.186 15.8927 7.526C15.7113 7.866 15.6207 8.35333 15.6207 8.988C15.6207 9.61133 15.7113 10.0987 15.8927 10.45C16.0853 10.79 16.4197 10.96 16.8957 10.96Z" fill="#1C4570"/>
</svg>
