<svg width="202" height="56" viewBox="0 0 202 56" fill="none" xmlns="http://www.w3.org/2000/svg">
<rect x="1" y="1" width="200" height="54" rx="7" fill="#FFFFF5"/>
<path fill-rule="evenodd" clip-rule="evenodd" d="M8 1C4.13401 1 1 4.13401 1 8V48C1 51.866 4.13401 55 8.00001 55H194C197.866 55 201 51.866 201 48V8C201 4.13401 197.866 1 194 1H8ZM8.30602 10.6695C8.12954 12.9669 8.09425 17.857 9.36488 19.0385C10.9532 20.5154 13.6004 24.4537 14.1298 28.392C14.5935 31.8416 12.2141 36.0464 10.9048 38.3603C10.7193 38.6882 10.5552 38.9781 10.4238 39.2225C10.2473 39.5506 10.0267 39.8925 9.7988 40.2457C8.65902 42.0121 7.33541 44.0633 10.4238 46.1146C14.1298 48.576 26.8362 49.5606 28.9539 49.5606H55.4255C57.5381 49.5606 60.1448 49.6525 62.9743 49.7522C71.4902 50.0523 82.0253 50.4236 87.1913 48.576C88.3485 48.1622 89.4158 47.7623 90.4211 47.3856C95.3949 45.522 98.8481 44.2282 104.133 44.6377C110.486 45.13 122.134 47.0991 126.899 48.576C129.74 49.4566 140.11 48.2369 149.704 47.1085C156.201 46.3445 162.341 45.6223 165.547 45.6223C173.489 45.6223 180.901 46.1146 185.666 46.6068C190.43 47.0991 193.078 40.6993 193.078 35.7764C193.078 34.2464 193.231 32.2884 193.395 30.198C193.758 25.5625 194.172 20.2759 193.078 17.5616C192.662 16.5315 192.428 15.1983 192.185 13.8174C191.5 9.91888 190.748 5.64061 185.666 6.73119C180.125 7.92001 172.184 8.15188 161.841 8.45387C159.335 8.52705 156.688 8.60434 153.9 8.70036C139.605 9.19265 120.546 8.70036 117.898 8.20807C117.096 8.05892 113.233 8.45204 107.942 8.99039C95.7689 10.2289 76.0418 12.2361 68.6612 10.1772C58.0726 7.22348 23.1302 4.26973 16.2475 7.22348C13.0393 8.60033 11.4415 8.58662 10.4891 8.57844C9.39829 8.56908 9.15393 8.56699 8.30602 10.6695Z" fill="#E0E0C7"/>
<rect x="1" y="1" width="200" height="54" rx="7" stroke="#1C4570" stroke-width="2" stroke-linecap="round"/>
<ellipse cx="36.567" cy="16.5" rx="2.57732" ry="2.5" fill="#E0E0C7"/>
<ellipse cx="57.1856" cy="40.5" rx="3.60825" ry="3.5" fill="#E0E0C7"/>
<ellipse cx="171.619" cy="16.5" rx="2.57732" ry="2.5" fill="#E0E0C7"/>
<ellipse cx="123.165" cy="29.5" rx="1.54639" ry="1.5" fill="#E0E0C7"/>
<path d="M55.6227 34V24.684L55.2827 22.984L55.6227 21.964H60.0427C60.904 21.964 61.6464 22.066 62.2697 22.27C62.9044 22.4627 63.3974 22.78 63.7487 23.222C64.1 23.664 64.2757 24.2533 64.2757 24.99C64.2757 25.4433 64.1964 25.874 64.0377 26.282C63.8904 26.6787 63.6354 27.013 63.2727 27.285C63.9867 27.5343 64.5307 27.9083 64.9047 28.407C65.2787 28.9057 65.4657 29.5687 65.4657 30.396C65.4657 31.654 65.1144 32.572 64.4117 33.15C63.709 33.7167 62.6494 34 61.2327 34H55.6227ZM58.0027 26.809H60.3487C61.3007 26.809 61.7767 26.3897 61.7767 25.551C61.7767 25.1317 61.6804 24.7973 61.4877 24.548C61.295 24.2987 60.9154 24.174 60.3487 24.174H58.0027V26.809ZM58.0027 31.79H61.0627C61.6634 31.79 62.0997 31.654 62.3717 31.382C62.655 31.11 62.7967 30.7303 62.7967 30.243C62.7967 29.7783 62.6437 29.427 62.3377 29.189C62.043 28.951 61.5614 28.832 60.8927 28.832H58.0027V31.79ZM70.4844 34.17C69.7477 34.17 69.0904 34.0397 68.5124 33.779C67.9344 33.5183 67.4811 33.082 67.1524 32.47C66.8237 31.858 66.6594 31.0307 66.6594 29.988C66.6594 28.9793 66.8351 28.169 67.1864 27.557C67.5377 26.945 68.0024 26.503 68.5804 26.231C69.1584 25.9477 69.7931 25.806 70.4844 25.806C71.2437 25.806 71.8387 25.891 72.2694 26.061C72.7114 26.231 73.0457 26.3953 73.2724 26.554L74.1224 29.257L73.7824 30.311H69.0224C69.0904 30.9117 69.3057 31.3933 69.6684 31.756C70.0311 32.1187 70.5864 32.3 71.3344 32.3C71.9464 32.3 72.4394 32.2263 72.8134 32.079C73.1987 31.9317 73.4651 31.8183 73.6124 31.739V33.507C73.2724 33.6883 72.8361 33.847 72.3034 33.983C71.7821 34.1077 71.1757 34.17 70.4844 34.17ZM69.0054 29.223L71.5554 28.883L71.3004 27.625C71.2211 27.5797 71.1077 27.5457 70.9604 27.523C70.8244 27.5003 70.6997 27.489 70.5864 27.489C70.0764 27.489 69.6854 27.6703 69.4134 28.033C69.1414 28.3843 69.0054 28.781 69.0054 29.223ZM78.138 34.17C77.4127 34.17 76.8063 34.1077 76.319 33.983C75.843 33.8583 75.4577 33.7167 75.163 33.558V31.552C75.571 31.7673 76.0357 31.9543 76.557 32.113C77.0897 32.2603 77.5997 32.334 78.087 32.334C78.665 32.334 78.954 32.147 78.954 31.773C78.954 31.569 78.869 31.416 78.699 31.314C78.5403 31.212 78.3137 31.1213 78.019 31.042C77.7357 30.9513 77.407 30.8437 77.033 30.719C76.387 30.4923 75.8883 30.2033 75.537 29.852C75.1857 29.5007 75.01 28.951 75.01 28.203C75.01 27.3983 75.2877 26.7977 75.843 26.401C76.4097 26.0043 77.152 25.806 78.07 25.806C78.444 25.806 78.7613 25.8287 79.022 25.874C79.2827 25.908 79.5207 25.942 79.736 25.976L81.283 26.826L80.62 28.475L78.07 27.659C77.8547 27.659 77.679 27.7043 77.543 27.795C77.4183 27.8743 77.356 27.9877 77.356 28.135C77.356 28.373 77.475 28.5543 77.713 28.679C77.951 28.7923 78.2967 28.917 78.75 29.053C79.668 29.325 80.3423 29.6537 80.773 30.039C81.2037 30.4243 81.419 30.991 81.419 31.739C81.419 32.4303 81.147 33.0083 80.603 33.473C80.0703 33.9377 79.2487 34.17 78.138 34.17ZM85.3719 34.17C84.6012 34.17 84.0402 34 83.6889 33.66C83.3376 33.32 83.1619 32.8043 83.1619 32.113V27.557H82.0909V26.452L82.9919 25.619L84.1989 23.511H85.5249V25.976H87.7349V27.676H85.5249V32.334L87.7349 32.317V33.66C87.7349 33.66 87.6442 33.7053 87.4629 33.796C87.2816 33.8753 87.0152 33.9547 86.6639 34.034C86.3239 34.1247 85.8932 34.17 85.3719 34.17ZM92.4151 34.17C91.6784 34.17 91.0211 34.0397 90.4431 33.779C89.8651 33.5183 89.4117 33.082 89.0831 32.47C88.7544 31.858 88.5901 31.0307 88.5901 29.988C88.5901 28.9793 88.7657 28.169 89.1171 27.557C89.4684 26.945 89.9331 26.503 90.5111 26.231C91.0891 25.9477 91.7237 25.806 92.4151 25.806C93.1744 25.806 93.7694 25.891 94.2001 26.061C94.6421 26.231 94.9764 26.3953 95.2031 26.554L96.0531 29.257L95.7131 30.311H90.9531C91.0211 30.9117 91.2364 31.3933 91.5991 31.756C91.9617 32.1187 92.5171 32.3 93.2651 32.3C93.8771 32.3 94.3701 32.2263 94.7441 32.079C95.1294 31.9317 95.3957 31.8183 95.5431 31.739V33.507C95.2031 33.6883 94.7667 33.847 94.2341 33.983C93.7127 34.1077 93.1064 34.17 92.4151 34.17ZM90.9361 29.223L93.4861 28.883L93.2311 27.625C93.1517 27.5797 93.0384 27.5457 92.8911 27.523C92.7551 27.5003 92.6304 27.489 92.5171 27.489C92.0071 27.489 91.6161 27.6703 91.3441 28.033C91.0721 28.3843 90.9361 28.781 90.9361 29.223ZM101.875 34V24.701L101.535 23.001L101.875 21.981H103.932L108.046 27.965L108.862 29.376H109.032V21.981H111.531V23.001L111.361 24.701V34H109.406L104.425 26.656H104.255V27.676L104.425 34H101.875ZM117.073 34.17C115.69 34.17 114.676 33.8073 114.03 33.082C113.384 32.3567 113.061 31.3253 113.061 29.988C113.061 28.6393 113.384 27.608 114.03 26.894C114.676 26.1687 115.69 25.806 117.073 25.806C118.501 25.806 119.521 26.1687 120.133 26.894C120.756 27.608 121.068 28.6393 121.068 29.988C121.068 31.3253 120.756 32.3567 120.133 33.082C119.521 33.8073 118.501 34.17 117.073 34.17ZM117.073 32.47C117.537 32.47 117.917 32.2887 118.212 31.926C118.518 31.5633 118.671 30.9173 118.671 29.988C118.671 29.0587 118.518 28.4127 118.212 28.05C117.917 27.6873 117.537 27.506 117.073 27.506C116.597 27.506 116.206 27.6873 115.9 28.05C115.605 28.4127 115.458 29.0587 115.458 29.988C115.458 30.9173 115.611 31.5633 115.917 31.926C116.223 32.2887 116.608 32.47 117.073 32.47ZM125.033 34.17C124.262 34.17 123.701 34 123.35 33.66C122.999 33.32 122.823 32.8043 122.823 32.113V27.557H121.752V26.452L122.653 25.619L123.86 23.511H125.186V25.976H127.396V27.676H125.186V32.334L127.396 32.317V33.66C127.396 33.66 127.305 33.7053 127.124 33.796C126.943 33.8753 126.676 33.9547 126.325 34.034C125.985 34.1247 125.554 34.17 125.033 34.17ZM132.076 34.17C131.34 34.17 130.682 34.0397 130.104 33.779C129.526 33.5183 129.073 33.082 128.744 32.47C128.416 31.858 128.251 31.0307 128.251 29.988C128.251 28.9793 128.427 28.169 128.778 27.557C129.13 26.945 129.594 26.503 130.172 26.231C130.75 25.9477 131.385 25.806 132.076 25.806C132.836 25.806 133.431 25.891 133.861 26.061C134.303 26.231 134.638 26.3953 134.864 26.554L135.714 29.257L135.374 30.311H130.614C130.682 30.9117 130.898 31.3933 131.26 31.756C131.623 32.1187 132.178 32.3 132.926 32.3C133.538 32.3 134.031 32.2263 134.405 32.079C134.791 31.9317 135.057 31.8183 135.204 31.739V33.507C134.864 33.6883 134.428 33.847 133.895 33.983C133.374 34.1077 132.768 34.17 132.076 34.17ZM130.597 29.223L133.147 28.883L132.892 27.625C132.813 27.5797 132.7 27.5457 132.552 27.523C132.416 27.5003 132.292 27.489 132.178 27.489C131.668 27.489 131.277 27.6703 131.005 28.033C130.733 28.3843 130.597 28.781 130.597 29.223ZM137.112 34V28.883L136.772 27.013L137.299 25.976H139.152V26.707L139.305 26.809C139.429 26.6957 139.599 26.5653 139.815 26.418C140.041 26.2593 140.313 26.1177 140.631 25.993C140.948 25.8683 141.305 25.806 141.702 25.806C142.722 25.806 143.487 26.095 143.997 26.673C144.507 27.251 144.762 28.0613 144.762 29.104V31.263L145.119 32.963L144.762 34H142.382V29.036C142.382 28.6053 142.285 28.2767 142.093 28.05C141.911 27.812 141.622 27.693 141.226 27.693L139.492 28.016V34H137.112Z" fill="#1C4570"/>
</svg>
