<svg width="202" height="56" viewBox="0 0 202 56" fill="none" xmlns="http://www.w3.org/2000/svg">
<rect x="1" y="1" width="200" height="54" rx="7" fill="#FFFFF5"/>
<path fill-rule="evenodd" clip-rule="evenodd" d="M8 1C4.13401 1 1 4.13401 1 8V48C1 51.866 4.13401 55 8.00001 55H194C197.866 55 201 51.866 201 48V8C201 4.13401 197.866 1 194 1H8ZM8.30602 10.6695C8.12954 12.9669 8.09425 17.857 9.36488 19.0385C10.9532 20.5154 13.6004 24.4537 14.1298 28.392C14.5935 31.8416 12.2141 36.0464 10.9048 38.3603C10.7193 38.6882 10.5552 38.9781 10.4238 39.2225C10.2473 39.5506 10.0267 39.8925 9.7988 40.2457C8.65902 42.0121 7.33541 44.0633 10.4238 46.1146C14.1298 48.576 26.8362 49.5606 28.9539 49.5606H55.4255C57.5381 49.5606 60.1448 49.6525 62.9743 49.7522C71.4902 50.0523 82.0253 50.4236 87.1913 48.576C88.3485 48.1622 89.4158 47.7623 90.4211 47.3856C95.3949 45.522 98.8481 44.2282 104.133 44.6377C110.486 45.13 122.134 47.0991 126.899 48.576C129.74 49.4566 140.11 48.2369 149.704 47.1085C156.201 46.3445 162.341 45.6223 165.547 45.6223C173.489 45.6223 180.901 46.1146 185.666 46.6068C190.43 47.0991 193.078 40.6993 193.078 35.7764C193.078 34.2464 193.231 32.2884 193.395 30.198C193.758 25.5625 194.172 20.2759 193.078 17.5616C192.662 16.5315 192.428 15.1983 192.185 13.8174C191.5 9.91888 190.748 5.64061 185.666 6.73119C180.125 7.92001 172.184 8.15188 161.841 8.45387C159.335 8.52705 156.688 8.60434 153.9 8.70036C139.605 9.19265 120.546 8.70036 117.898 8.20807C117.096 8.05892 113.233 8.45204 107.942 8.99039C95.7689 10.2289 76.0418 12.2361 68.6612 10.1772C58.0726 7.22348 23.1302 4.26973 16.2475 7.22348C13.0393 8.60033 11.4415 8.58662 10.4891 8.57844C9.39829 8.56908 9.15393 8.56699 8.30602 10.6695Z" fill="#E0E0C7"/>
<rect x="1" y="1" width="200" height="54" rx="7" stroke="#1C4570" stroke-width="2" stroke-linecap="round"/>
<ellipse cx="36.567" cy="16.5" rx="2.57732" ry="2.5" fill="#E0E0C7"/>
<ellipse cx="57.1856" cy="40.5" rx="3.60825" ry="3.5" fill="#E0E0C7"/>
<ellipse cx="171.619" cy="16.5" rx="2.57732" ry="2.5" fill="#E0E0C7"/>
<ellipse cx="123.165" cy="29.5" rx="1.54639" ry="1.5" fill="#E0E0C7"/>
<path d="M57.5651 34V24.701L57.2251 22.984L57.5651 21.964H61.6451C62.4724 21.964 63.2147 22.0943 63.8721 22.355C64.5407 22.6043 65.0677 23.035 65.4531 23.647C65.8497 24.2477 66.0481 25.0807 66.0481 26.146C66.0481 27.2113 65.8384 28.0557 65.4191 28.679C64.9997 29.291 64.4161 29.7273 63.6681 29.988C62.9314 30.2487 62.0871 30.379 61.1351 30.379H59.9451V31.263L60.1151 32.963L59.9451 34H57.5651ZM59.9451 28.22H61.6111C62.3591 28.22 62.8691 28.0273 63.1411 27.642C63.4131 27.2453 63.5491 26.7467 63.5491 26.146C63.5491 25.5113 63.4017 25.024 63.1071 24.684C62.8237 24.344 62.3024 24.174 61.5431 24.174H59.7751L59.9451 28.22ZM69.0972 34.17C68.3379 34.17 67.6919 33.9773 67.1592 33.592C66.6379 33.1953 66.3772 32.5833 66.3772 31.756C66.3772 30.8833 66.6549 30.2203 67.2102 29.767C67.7655 29.3023 68.5079 29.07 69.4372 29.07C70.1172 29.07 70.6329 29.1267 70.9842 29.24C71.3469 29.3533 71.5849 29.4383 71.6982 29.495L71.8172 29.393C71.8172 29.053 71.7889 28.7527 71.7322 28.492C71.6755 28.2313 71.5452 28.033 71.3412 27.897C71.1372 27.7497 70.8199 27.676 70.3892 27.676C69.6185 27.676 68.9272 27.7383 68.3152 27.863C67.7145 27.9877 67.2385 28.101 66.8872 28.203V26.333C67.2385 26.2083 67.7712 26.095 68.4852 25.993C69.1992 25.8797 69.9699 25.823 70.7972 25.823C71.4999 25.823 72.0722 25.9193 72.5142 26.112C72.9675 26.2933 73.3132 26.5427 73.5512 26.86C73.8005 27.1773 73.9705 27.5287 74.0612 27.914C74.1632 28.288 74.2142 28.662 74.2142 29.036V31.297L74.5542 33.014L74.2142 34.017H71.9872V33.184L71.8172 33.099C71.7265 33.2123 71.5679 33.354 71.3412 33.524C71.1259 33.694 70.8312 33.847 70.4572 33.983C70.0945 34.1077 69.6412 34.17 69.0972 34.17ZM70.0322 32.283C70.5195 32.283 70.8992 32.2377 71.1712 32.147C71.4545 32.0563 71.6699 31.9657 71.8172 31.875V31.552C71.8172 31.3367 71.6869 31.1213 71.4262 30.906C71.1769 30.6907 70.7632 30.583 70.1852 30.583C69.7545 30.583 69.4372 30.668 69.2332 30.838C69.0292 31.008 68.9272 31.2233 68.9272 31.484C68.9272 31.756 69.0235 31.96 69.2162 32.096C69.4089 32.2207 69.6809 32.283 70.0322 32.283ZM76.2011 34V28.679L75.8441 26.979L76.2011 25.959H77.8331L78.1731 26.35C78.1731 26.35 78.2467 26.3047 78.3941 26.214C78.5527 26.112 78.7737 26.0157 79.0571 25.925C79.3404 25.8343 79.6861 25.789 80.0941 25.789C80.3207 25.789 80.5474 25.806 80.7741 25.84C81.0007 25.874 81.1764 25.9193 81.3011 25.976L82.4061 27.081L81.4711 28.747L79.1421 27.574L78.5471 27.812V34H76.2011ZM85.4663 34.17C84.707 34.17 84.061 33.9773 83.5283 33.592C83.007 33.1953 82.7463 32.5833 82.7463 31.756C82.7463 30.8833 83.024 30.2203 83.5793 29.767C84.1347 29.3023 84.877 29.07 85.8063 29.07C86.4863 29.07 87.002 29.1267 87.3533 29.24C87.716 29.3533 87.954 29.4383 88.0673 29.495L88.1863 29.393C88.1863 29.053 88.158 28.7527 88.1013 28.492C88.0447 28.2313 87.9143 28.033 87.7103 27.897C87.5063 27.7497 87.189 27.676 86.7583 27.676C85.9877 27.676 85.2963 27.7383 84.6843 27.863C84.0837 27.9877 83.6077 28.101 83.2563 28.203V26.333C83.6077 26.2083 84.1403 26.095 84.8543 25.993C85.5683 25.8797 86.339 25.823 87.1663 25.823C87.869 25.823 88.4413 25.9193 88.8833 26.112C89.3367 26.2933 89.6823 26.5427 89.9203 26.86C90.1697 27.1773 90.3397 27.5287 90.4303 27.914C90.5323 28.288 90.5833 28.662 90.5833 29.036V31.297L90.9233 33.014L90.5833 34.017H88.3563V33.184L88.1863 33.099C88.0957 33.2123 87.937 33.354 87.7103 33.524C87.495 33.694 87.2003 33.847 86.8263 33.983C86.4637 34.1077 86.0103 34.17 85.4663 34.17ZM86.4013 32.283C86.8887 32.283 87.2683 32.2377 87.5403 32.147C87.8237 32.0563 88.039 31.9657 88.1863 31.875V31.552C88.1863 31.3367 88.056 31.1213 87.7953 30.906C87.546 30.6907 87.1323 30.583 86.5543 30.583C86.1237 30.583 85.8063 30.668 85.6023 30.838C85.3983 31.008 85.2963 31.2233 85.2963 31.484C85.2963 31.756 85.3927 31.96 85.5853 32.096C85.778 32.2207 86.05 32.283 86.4013 32.283ZM92.2132 27.013L92.7402 25.976H94.5932V26.707L94.7462 26.809C94.8709 26.6957 95.0409 26.5653 95.2562 26.418C95.4829 26.2593 95.7549 26.1177 96.0722 25.993C96.3895 25.8683 96.7465 25.806 97.1432 25.806C98.3219 25.806 99.1662 26.197 99.6762 26.979C99.8689 26.6957 100.169 26.4293 100.577 26.18C100.997 25.9193 101.575 25.789 102.311 25.789C103.331 25.789 104.096 26.078 104.606 26.656C105.116 27.234 105.371 28.0443 105.371 29.087V31.263L105.728 32.963L105.371 34H103.008V29.019C103.008 28.5883 102.889 28.2597 102.651 28.033C102.425 27.795 102.096 27.676 101.665 27.676C101.223 27.676 100.866 27.8007 100.594 28.05C100.334 28.2993 100.203 28.628 100.203 29.036V29.104V34H97.8232V29.036C97.8232 28.6053 97.7269 28.2767 97.5342 28.05C97.3529 27.812 97.0639 27.693 96.6672 27.693L94.9332 28.016V34H92.5532V28.883L92.2132 27.013ZM110.677 34.17C109.94 34.17 109.283 34.0397 108.705 33.779C108.127 33.5183 107.673 33.082 107.345 32.47C107.016 31.858 106.852 31.0307 106.852 29.988C106.852 28.9793 107.027 28.169 107.379 27.557C107.73 26.945 108.195 26.503 108.773 26.231C109.351 25.9477 109.985 25.806 110.677 25.806C111.436 25.806 112.031 25.891 112.462 26.061C112.904 26.231 113.238 26.3953 113.465 26.554L114.315 29.257L113.975 30.311H109.215C109.283 30.9117 109.498 31.3933 109.861 31.756C110.223 32.1187 110.779 32.3 111.527 32.3C112.139 32.3 112.632 32.2263 113.006 32.079C113.391 31.9317 113.657 31.8183 113.805 31.739V33.507C113.465 33.6883 113.028 33.847 112.496 33.983C111.974 34.1077 111.368 34.17 110.677 34.17ZM109.198 29.223L111.748 28.883L111.493 27.625C111.413 27.5797 111.3 27.5457 111.153 27.523C111.017 27.5003 110.892 27.489 110.779 27.489C110.269 27.489 109.878 27.6703 109.606 28.033C109.334 28.3843 109.198 28.781 109.198 29.223ZM110.864 25.126L108.671 22.542V21.862H110.082L111.561 25.126H110.864ZM118.143 34.17C117.373 34.17 116.812 34 116.46 33.66C116.109 33.32 115.933 32.8043 115.933 32.113V27.557H114.862V26.452L115.763 25.619L116.97 23.511H118.296V25.976H120.506V27.676H118.296V32.334L120.506 32.317V33.66C120.506 33.66 120.416 33.7053 120.234 33.796C120.053 33.8753 119.787 33.9547 119.435 34.034C119.095 34.1247 118.665 34.17 118.143 34.17ZM121.889 34V28.679L121.532 26.979L121.889 25.959H123.521L123.861 26.35C123.861 26.35 123.934 26.3047 124.082 26.214C124.24 26.112 124.461 26.0157 124.745 25.925C125.028 25.8343 125.374 25.789 125.782 25.789C126.008 25.789 126.235 25.806 126.462 25.84C126.688 25.874 126.864 25.9193 126.989 25.976L128.094 27.081L127.159 28.747L124.83 27.574L124.235 27.812V34H121.889ZM132.358 34.17C131.622 34.17 130.964 34.0397 130.386 33.779C129.808 33.5183 129.355 33.082 129.026 32.47C128.698 31.858 128.533 31.0307 128.533 29.988C128.533 28.9793 128.709 28.169 129.06 27.557C129.412 26.945 129.876 26.503 130.454 26.231C131.032 25.9477 131.667 25.806 132.358 25.806C133.118 25.806 133.713 25.891 134.143 26.061C134.585 26.231 134.92 26.3953 135.146 26.554L135.996 29.257L135.656 30.311H130.896C130.964 30.9117 131.18 31.3933 131.542 31.756C131.905 32.1187 132.46 32.3 133.208 32.3C133.82 32.3 134.313 32.2263 134.687 32.079C135.073 31.9317 135.339 31.8183 135.486 31.739V33.507C135.146 33.6883 134.71 33.847 134.177 33.983C133.656 34.1077 133.05 34.17 132.358 34.17ZM130.879 29.223L133.429 28.883L133.174 27.625C133.095 27.5797 132.982 27.5457 132.834 27.523C132.698 27.5003 132.574 27.489 132.46 27.489C131.95 27.489 131.559 27.6703 131.287 28.033C131.015 28.3843 130.879 28.781 130.879 29.223ZM140.012 34.17C139.287 34.17 138.68 34.1077 138.193 33.983C137.717 33.8583 137.332 33.7167 137.037 33.558V31.552C137.445 31.7673 137.91 31.9543 138.431 32.113C138.964 32.2603 139.474 32.334 139.961 32.334C140.539 32.334 140.828 32.147 140.828 31.773C140.828 31.569 140.743 31.416 140.573 31.314C140.414 31.212 140.188 31.1213 139.893 31.042C139.61 30.9513 139.281 30.8437 138.907 30.719C138.261 30.4923 137.762 30.2033 137.411 29.852C137.06 29.5007 136.884 28.951 136.884 28.203C136.884 27.3983 137.162 26.7977 137.717 26.401C138.284 26.0043 139.026 25.806 139.944 25.806C140.318 25.806 140.635 25.8287 140.896 25.874C141.157 25.908 141.395 25.942 141.61 25.976L143.157 26.826L142.494 28.475L139.944 27.659C139.729 27.659 139.553 27.7043 139.417 27.795C139.292 27.8743 139.23 27.9877 139.23 28.135C139.23 28.373 139.349 28.5543 139.587 28.679C139.825 28.7923 140.171 28.917 140.624 29.053C141.542 29.325 142.216 29.6537 142.647 30.039C143.078 30.4243 143.293 30.991 143.293 31.739C143.293 32.4303 143.021 33.0083 142.477 33.473C141.944 33.9377 141.123 34.17 140.012 34.17Z" fill="#1C4570"/>
</svg>
