<svg width="57" height="56" viewBox="0 0 57 56" fill="none" xmlns="http://www.w3.org/2000/svg">
<rect x="1" y="1" width="55" height="54" rx="7" fill="#FFFFF5"/>
<circle cx="40.5" cy="15.5" r="1.5" fill="#E0E0C7"/>
<circle cx="13.5" cy="43.5" r="2.5" fill="#E0E0C7"/>
<circle cx="20" cy="29" r="1" fill="#E0E0C7"/>
<circle cx="40.5" cy="37.5" r="1.5" fill="#E0E0C7"/>
<circle cx="16" cy="15" r="1" fill="#E0E0C7"/>
<path fill-rule="evenodd" clip-rule="evenodd" d="M8 1C4.13401 1 1 4.13401 1 8V48C1 51.866 4.13401 55 8 55H49C52.866 55 56 51.866 56 48V8C56 4.13401 52.866 1 49 1H8ZM6.52153 10.7346C6.1776 10.7399 5.74253 10.7466 5.45124 12.5664C5.05812 15.0223 5.23556 19.9646 5.37719 23.9093C5.4047 24.6757 5.43087 25.4045 5.45123 26.0701C5.57641 30.161 5.70159 37.5283 5.45123 39.5738C5.20088 41.6193 4.57504 46.964 5.45125 49.5208C6.1916 51.6812 10.3516 50.921 11.926 50.6333C12.2149 50.5805 12.4167 50.5436 12.4943 50.5436C12.6612 50.5436 13.0791 50.3635 13.6363 50.1233C14.7506 49.643 16.422 48.9225 17.7572 48.9225C18.4994 48.9225 19.2028 49.3558 19.877 49.7711C21.0223 50.4765 22.0834 51.1302 23.1077 49.5208C24.5061 47.3236 27.5284 48.5252 29.3041 49.2311C29.5948 49.3467 29.852 49.4489 30.0632 49.5208C30.6827 49.7318 31.5502 49.5077 32.4347 49.2793C33.6948 48.9538 34.9895 48.6195 35.6514 49.5208C36.5937 50.804 41.2176 50.6561 43.8038 50.5734C44.3095 50.5573 44.7373 50.5436 45.0444 50.5436C48.7972 50.5436 51.7555 47.3499 51.5521 43.6026C51.4142 41.0633 51.2981 38.3057 51.2981 36.2253C51.2981 34.636 51.3343 32.6022 51.3731 30.4308C51.4589 25.6157 51.5569 20.1242 51.2981 17.3048C51.1701 15.9104 50.9257 14.1597 50.6593 12.4574C50.0758 8.73029 46.819 6.0547 43.0465 6.0547C42.5958 6.0547 42.146 6.09342 41.702 6.17042L33.579 7.57916L33.5777 7.57939C33.5412 7.58571 33.5103 7.59108 33.4736 7.59702C32.7532 7.71372 24.432 8.98923 22.0376 6.05469C21.2914 5.14022 20.1423 4.90714 18.8967 5.03051C18.3023 5.08939 17.6556 5.13718 16.981 5.18703C12.7402 5.50041 7.39958 5.89507 7.05636 9.63426C7.03726 10.7266 6.81187 10.7301 6.52153 10.7346Z" fill="#E0E0C7"/>
<rect x="1" y="1" width="55" height="54" rx="7" stroke="#1C4570" stroke-width="2" stroke-linecap="round"/>
<rect x="21" y="19" width="4" height="18" fill="#1C4570"/>
<rect x="32" y="19" width="4" height="18" fill="#1C4570"/>
</svg>
