<svg width="202" height="56" viewBox="0 0 202 56" fill="none" xmlns="http://www.w3.org/2000/svg">
<rect x="1" y="1" width="200" height="54" rx="7" fill="#FFFFF5"/>
<path fill-rule="evenodd" clip-rule="evenodd" d="M8 1C4.13401 1 1 4.13401 1 8V48C1 51.866 4.13401 55 8.00001 55H194C197.866 55 201 51.866 201 48V8C201 4.13401 197.866 1 194 1H8ZM8.30602 10.6695C8.12954 12.9669 8.09425 17.857 9.36488 19.0385C10.9532 20.5154 13.6004 24.4537 14.1298 28.392C14.5935 31.8416 12.2141 36.0464 10.9048 38.3603C10.7193 38.6882 10.5552 38.9781 10.4238 39.2225C10.2473 39.5506 10.0267 39.8925 9.7988 40.2457C8.65902 42.0121 7.33541 44.0633 10.4238 46.1146C14.1298 48.576 26.8362 49.5606 28.9539 49.5606H55.4255C57.5381 49.5606 60.1448 49.6525 62.9743 49.7522C71.4902 50.0523 82.0253 50.4236 87.1913 48.576C88.3485 48.1622 89.4158 47.7623 90.4211 47.3856C95.3949 45.522 98.8481 44.2282 104.133 44.6377C110.486 45.13 122.134 47.0991 126.899 48.576C129.74 49.4566 140.11 48.2369 149.704 47.1085C156.201 46.3445 162.341 45.6223 165.547 45.6223C173.489 45.6223 180.901 46.1146 185.666 46.6068C190.43 47.0991 193.078 40.6993 193.078 35.7764C193.078 34.2464 193.231 32.2884 193.395 30.198C193.758 25.5625 194.172 20.2759 193.078 17.5616C192.662 16.5315 192.428 15.1983 192.185 13.8174C191.5 9.91888 190.748 5.64061 185.666 6.73119C180.125 7.92001 172.184 8.15188 161.841 8.45387C159.335 8.52705 156.688 8.60434 153.9 8.70036C139.605 9.19265 120.546 8.70036 117.898 8.20807C117.096 8.05892 113.233 8.45204 107.942 8.99039C95.7689 10.2289 76.0418 12.2361 68.6612 10.1772C58.0726 7.22348 23.1302 4.26973 16.2475 7.22348C13.0393 8.60033 11.4415 8.58662 10.4891 8.57844C9.39829 8.56908 9.15393 8.56699 8.30602 10.6695Z" fill="#E0E0C7"/>
<rect x="1" y="1" width="200" height="54" rx="7" stroke="#1C4570" stroke-width="2" stroke-linecap="round"/>
<ellipse cx="36.567" cy="16.5" rx="2.57732" ry="2.5" fill="#E0E0C7"/>
<ellipse cx="57.1856" cy="40.5" rx="3.60825" ry="3.5" fill="#E0E0C7"/>
<ellipse cx="171.619" cy="16.5" rx="2.57732" ry="2.5" fill="#E0E0C7"/>
<ellipse cx="123.165" cy="29.5" rx="1.54639" ry="1.5" fill="#E0E0C7"/>
<path d="M85.632 35V25.701L85.292 23.984L85.632 22.964H89.712C90.5393 22.964 91.2816 23.0943 91.939 23.355C92.6076 23.6043 93.1346 24.035 93.52 24.647C93.9166 25.2477 94.115 26.0807 94.115 27.146C94.115 28.2113 93.9053 29.0557 93.486 29.679C93.0666 30.291 92.483 30.7273 91.735 30.988C90.9983 31.2487 90.154 31.379 89.202 31.379H88.012V32.263L88.182 33.963L88.012 35H85.632ZM88.012 29.22H89.678C90.426 29.22 90.936 29.0273 91.208 28.642C91.48 28.2453 91.616 27.7467 91.616 27.146C91.616 26.5113 91.4686 26.024 91.174 25.684C90.8906 25.344 90.3693 25.174 89.61 25.174H87.842L88.012 29.22ZM95.4177 35V25.684L95.0607 23.984L95.4177 22.964H97.7977V35H95.4177ZM101.995 35.17C101.236 35.17 100.59 34.9773 100.057 34.592C99.5358 34.1953 99.2751 33.5833 99.2751 32.756C99.2751 31.8833 99.5528 31.2203 100.108 30.767C100.663 30.3023 101.406 30.07 102.335 30.07C103.015 30.07 103.531 30.1267 103.882 30.24C104.245 30.3533 104.483 30.4383 104.596 30.495L104.715 30.393C104.715 30.053 104.687 29.7527 104.63 29.492C104.573 29.2313 104.443 29.033 104.239 28.897C104.035 28.7497 103.718 28.676 103.287 28.676C102.516 28.676 101.825 28.7383 101.213 28.863C100.612 28.9877 100.136 29.101 99.7851 29.203V27.333C100.136 27.2083 100.669 27.095 101.383 26.993C102.097 26.8797 102.868 26.823 103.695 26.823C104.398 26.823 104.97 26.9193 105.412 27.112C105.865 27.2933 106.211 27.5427 106.449 27.86C106.698 28.1773 106.868 28.5287 106.959 28.914C107.061 29.288 107.112 29.662 107.112 30.036V32.297L107.452 34.014L107.112 35.017H104.885V34.184L104.715 34.099C104.624 34.2123 104.466 34.354 104.239 34.524C104.024 34.694 103.729 34.847 103.355 34.983C102.992 35.1077 102.539 35.17 101.995 35.17ZM102.93 33.283C103.417 33.283 103.797 33.2377 104.069 33.147C104.352 33.0563 104.568 32.9657 104.715 32.875V32.552C104.715 32.3367 104.585 32.1213 104.324 31.906C104.075 31.6907 103.661 31.583 103.083 31.583C102.652 31.583 102.335 31.668 102.131 31.838C101.927 32.008 101.825 32.2233 101.825 32.484C101.825 32.756 101.921 32.96 102.114 33.096C102.307 33.2207 102.579 33.283 102.93 33.283ZM109.779 39.131L107.382 38.281L108.062 36.258L110.442 36.938C110.771 36.938 111.048 36.836 111.275 36.632C111.502 36.4393 111.689 36.19 111.836 35.884C111.995 35.5893 112.108 35.289 112.176 34.983H110.595L108.725 29.169L108.402 26.959H110.952L112.227 33.079H112.567L113.842 26.959H116.392C116.392 26.959 116.352 27.1403 116.273 27.503C116.205 27.8543 116.103 28.3247 115.967 28.914C115.842 29.5033 115.689 30.155 115.508 30.869C115.338 31.5717 115.157 32.2857 114.964 33.011C114.771 33.725 114.573 34.3823 114.369 34.983C114.063 35.9237 113.723 36.7 113.349 37.312C112.986 37.924 112.527 38.3773 111.972 38.672C111.417 38.978 110.686 39.131 109.779 39.131Z" fill="#1C4570"/>
</svg>
