<svg width="202" height="56" viewBox="0 0 202 56" fill="none" xmlns="http://www.w3.org/2000/svg">
<rect x="1" y="1" width="200" height="54" rx="7" fill="#FFFFF5"/>
<path fill-rule="evenodd" clip-rule="evenodd" d="M8 1C4.13401 1 1 4.13401 1 8V48C1 51.866 4.13401 55 8.00001 55H194C197.866 55 201 51.866 201 48V8C201 4.13401 197.866 1 194 1H8ZM8.30602 10.6695C8.12954 12.9669 8.09425 17.857 9.36488 19.0385C10.9532 20.5154 13.6004 24.4537 14.1298 28.392C14.5935 31.8416 12.2141 36.0464 10.9048 38.3603C10.7193 38.6882 10.5552 38.9781 10.4238 39.2225C10.2473 39.5506 10.0267 39.8925 9.7988 40.2457C8.65902 42.0121 7.33541 44.0633 10.4238 46.1146C14.1298 48.576 26.8362 49.5606 28.9539 49.5606H55.4255C57.5381 49.5606 60.1448 49.6525 62.9743 49.7522C71.4902 50.0523 82.0253 50.4236 87.1913 48.576C88.3485 48.1622 89.4158 47.7623 90.4211 47.3856C95.3949 45.522 98.8481 44.2282 104.133 44.6377C110.486 45.13 122.134 47.0991 126.899 48.576C129.74 49.4566 140.11 48.2369 149.704 47.1085C156.201 46.3445 162.341 45.6223 165.547 45.6223C173.489 45.6223 180.901 46.1146 185.666 46.6068C190.43 47.0991 193.078 40.6993 193.078 35.7764C193.078 34.2464 193.231 32.2884 193.395 30.198C193.758 25.5625 194.172 20.2759 193.078 17.5616C192.662 16.5315 192.428 15.1983 192.185 13.8174C191.5 9.91888 190.748 5.64061 185.666 6.73119C180.125 7.92001 172.184 8.15188 161.841 8.45387C159.335 8.52705 156.688 8.60434 153.9 8.70036C139.605 9.19265 120.546 8.70036 117.898 8.20807C117.096 8.05892 113.233 8.45204 107.942 8.99039C95.7689 10.2289 76.0418 12.2361 68.6612 10.1772C58.0726 7.22348 23.1302 4.26973 16.2475 7.22348C13.0393 8.60033 11.4415 8.58662 10.4891 8.57844C9.39829 8.56908 9.15393 8.56699 8.30602 10.6695Z" fill="#E0E0C7"/>
<rect x="1" y="1" width="200" height="54" rx="7" stroke="#1C4570" stroke-width="2" stroke-linecap="round"/>
<ellipse cx="36.567" cy="16.5" rx="2.57732" ry="2.5" fill="#E0E0C7"/>
<ellipse cx="57.1856" cy="40.5" rx="3.60825" ry="3.5" fill="#E0E0C7"/>
<ellipse cx="171.619" cy="16.5" rx="2.57732" ry="2.5" fill="#E0E0C7"/>
<ellipse cx="123.165" cy="29.5" rx="1.54639" ry="1.5" fill="#E0E0C7"/>
<path d="M45.6388 34V24.701L45.2988 23.001L45.6558 21.981H48.2228L51.8948 29.121H52.2348L55.3288 21.981H58.0318L58.2018 23.001L58.0318 24.633V34H55.6348L55.6858 32.555V26.452H55.4988L54.9208 27.863L52.9488 32.3H50.9088L48.1888 26.452H48.0188V27.829L48.1888 34H45.6388ZM63.5552 34.17C62.8185 34.17 62.1612 34.0397 61.5832 33.779C61.0052 33.5183 60.5519 33.082 60.2232 32.47C59.8945 31.858 59.7302 31.0307 59.7302 29.988C59.7302 28.9793 59.9059 28.169 60.2572 27.557C60.6085 26.945 61.0732 26.503 61.6512 26.231C62.2292 25.9477 62.8639 25.806 63.5552 25.806C64.3145 25.806 64.9095 25.891 65.3402 26.061C65.7822 26.231 66.1165 26.3953 66.3432 26.554L67.1932 29.257L66.8532 30.311H62.0932C62.1612 30.9117 62.3765 31.3933 62.7392 31.756C63.1019 32.1187 63.6572 32.3 64.4052 32.3C65.0172 32.3 65.5102 32.2263 65.8842 32.079C66.2695 31.9317 66.5359 31.8183 66.6832 31.739V33.507C66.3432 33.6883 65.9069 33.847 65.3742 33.983C64.8529 34.1077 64.2465 34.17 63.5552 34.17ZM62.0762 29.223L64.6262 28.883L64.3712 27.625C64.2919 27.5797 64.1785 27.5457 64.0312 27.523C63.8952 27.5003 63.7705 27.489 63.6572 27.489C63.1472 27.489 62.7562 27.6703 62.4842 28.033C62.2122 28.3843 62.0762 28.781 62.0762 29.223ZM68.5908 34V28.883L68.2508 27.013L68.7778 25.976H70.6308V26.707L70.7838 26.809C70.9085 26.6957 71.0785 26.5653 71.2938 26.418C71.5205 26.2593 71.7925 26.1177 72.1098 25.993C72.4271 25.8683 72.7841 25.806 73.1808 25.806C74.2008 25.806 74.9658 26.095 75.4758 26.673C75.9858 27.251 76.2408 28.0613 76.2408 29.104V31.263L76.5978 32.963L76.2408 34H73.8608V29.036C73.8608 28.6053 73.7645 28.2767 73.5718 28.05C73.3905 27.812 73.1015 27.693 72.7048 27.693L70.9708 28.016V34H68.5908ZM80.4463 34.17C79.7663 34.17 79.2393 34.0397 78.8653 33.779C78.5026 33.5183 78.2476 33.1443 78.1003 32.657C77.9643 32.1583 77.8963 31.5633 77.8963 30.872V25.959H80.2763V30.94C80.2763 31.4047 80.3613 31.7447 80.5313 31.96C80.7126 32.1753 81.013 32.283 81.4323 32.283C81.965 32.283 82.3843 32.079 82.6903 31.671C83.0076 31.263 83.1663 30.787 83.1663 30.243V25.959H85.5463V31.263L85.9033 32.963L85.5463 34H83.3533V33.167L83.1833 33.082C83.036 33.2293 82.8206 33.388 82.5373 33.558C82.2653 33.728 81.948 33.8753 81.5853 34C81.234 34.1133 80.8543 34.17 80.4463 34.17ZM91.6836 38.131V28.866L91.3436 26.996L91.8706 25.959H93.7236V26.69L93.8936 26.775C93.8936 26.775 93.9956 26.69 94.1996 26.52C94.4036 26.35 94.6812 26.1857 95.0326 26.027C95.3952 25.857 95.8146 25.772 96.2906 25.772C97.2992 25.772 98.0869 26.095 98.6536 26.741C99.2316 27.387 99.5206 28.407 99.5206 29.801C99.5206 30.8437 99.3732 31.688 99.0786 32.334C98.7952 32.9687 98.4099 33.4277 97.9226 33.711C97.4352 33.9943 96.8912 34.136 96.2906 34.136C95.7012 34.136 95.2139 34.085 94.8286 33.983C94.4432 33.8697 94.1882 33.7903 94.0636 33.745V38.131H91.6836ZM95.1856 32.334C95.6276 32.334 95.9789 32.2263 96.2396 32.011C96.5002 31.7843 96.6872 31.4897 96.8006 31.127C96.9139 30.7643 96.9706 30.3733 96.9706 29.954C96.9706 29.546 96.9252 29.1663 96.8346 28.815C96.7439 28.4637 96.5796 28.186 96.3416 27.982C96.1149 27.7667 95.7862 27.659 95.3556 27.659L94.0636 28.016V32.113C94.0636 32.113 94.1769 32.1527 94.4036 32.232C94.6416 32.3 94.9022 32.334 95.1856 32.334ZM101.064 34V28.679L100.707 26.979L101.064 25.959H102.696L103.036 26.35C103.036 26.35 103.11 26.3047 103.257 26.214C103.416 26.112 103.637 26.0157 103.92 25.925C104.203 25.8343 104.549 25.789 104.957 25.789C105.184 25.789 105.41 25.806 105.637 25.84C105.864 25.874 106.039 25.9193 106.164 25.976L107.269 27.081L106.334 28.747L104.005 27.574L103.41 27.812V34H101.064ZM109.475 25.126L107.656 23.307L109.475 21.488L111.277 23.307L109.475 25.126ZM108.285 34V28.373L107.928 27.013L108.268 25.976H110.648V34H108.285ZM112.535 34V28.883L112.195 27.013L112.722 25.976H114.575V26.707L114.728 26.809C114.853 26.6957 115.023 26.5653 115.238 26.418C115.465 26.2593 115.737 26.1177 116.054 25.993C116.371 25.8683 116.728 25.806 117.125 25.806C118.145 25.806 118.91 26.095 119.42 26.673C119.93 27.251 120.185 28.0613 120.185 29.104V31.263L120.542 32.963L120.185 34H117.805V29.036C117.805 28.6053 117.709 28.2767 117.516 28.05C117.335 27.812 117.046 27.693 116.649 27.693L114.915 28.016V34H112.535ZM125.326 34.17C124.634 34.17 124.011 34.0397 123.456 33.779C122.9 33.507 122.464 33.065 122.147 32.453C121.829 31.841 121.671 31.0193 121.671 29.988C121.671 28.934 121.846 28.1067 122.198 27.506C122.56 26.894 123.042 26.4577 123.643 26.197C124.255 25.9363 124.929 25.806 125.666 25.806C126.187 25.806 126.572 25.8287 126.822 25.874C127.082 25.908 127.303 25.9477 127.485 25.993L128.811 27.489L127.791 28.832L126.006 27.676C125.439 27.676 124.997 27.8743 124.68 28.271C124.362 28.6677 124.204 29.24 124.204 29.988C124.204 30.7813 124.374 31.365 124.714 31.739C125.054 32.113 125.541 32.3 126.176 32.3C126.595 32.3 126.969 32.2547 127.298 32.164C127.638 32.062 127.921 31.9543 128.148 31.841C128.374 31.7163 128.533 31.6257 128.624 31.569V33.507C128.34 33.6543 127.927 33.8017 127.383 33.949C126.85 34.0963 126.164 34.17 125.326 34.17ZM131.705 25.126L129.886 23.307L131.705 21.488L133.507 23.307L131.705 25.126ZM130.515 34V28.373L130.158 27.013L130.498 25.976H132.878V34H130.515ZM134.765 38.131V28.866L134.425 26.996L134.952 25.959H136.805V26.69L136.975 26.775C136.975 26.775 137.077 26.69 137.281 26.52C137.485 26.35 137.762 26.1857 138.114 26.027C138.476 25.857 138.896 25.772 139.372 25.772C140.38 25.772 141.168 26.095 141.735 26.741C142.313 27.387 142.602 28.407 142.602 29.801C142.602 30.8437 142.454 31.688 142.16 32.334C141.876 32.9687 141.491 33.4277 141.004 33.711C140.516 33.9943 139.972 34.136 139.372 34.136C138.782 34.136 138.295 34.085 137.91 33.983C137.524 33.8697 137.269 33.7903 137.145 33.745V38.131H134.765ZM138.267 32.334C138.709 32.334 139.06 32.2263 139.321 32.011C139.581 31.7843 139.768 31.4897 139.882 31.127C139.995 30.7643 140.052 30.3733 140.052 29.954C140.052 29.546 140.006 29.1663 139.916 28.815C139.825 28.4637 139.661 28.186 139.423 27.982C139.196 27.7667 138.867 27.659 138.437 27.659L137.145 28.016V32.113C137.145 32.113 137.258 32.1527 137.485 32.232C137.723 32.3 137.983 32.334 138.267 32.334ZM146.338 34.17C145.579 34.17 144.933 33.9773 144.4 33.592C143.879 33.1953 143.618 32.5833 143.618 31.756C143.618 30.8833 143.896 30.2203 144.451 29.767C145.006 29.3023 145.749 29.07 146.678 29.07C147.358 29.07 147.874 29.1267 148.225 29.24C148.588 29.3533 148.826 29.4383 148.939 29.495L149.058 29.393C149.058 29.053 149.03 28.7527 148.973 28.492C148.916 28.2313 148.786 28.033 148.582 27.897C148.378 27.7497 148.061 27.676 147.63 27.676C146.859 27.676 146.168 27.7383 145.556 27.863C144.955 27.9877 144.479 28.101 144.128 28.203V26.333C144.479 26.2083 145.012 26.095 145.726 25.993C146.44 25.8797 147.211 25.823 148.038 25.823C148.741 25.823 149.313 25.9193 149.755 26.112C150.208 26.2933 150.554 26.5427 150.792 26.86C151.041 27.1773 151.211 27.5287 151.302 27.914C151.404 28.288 151.455 28.662 151.455 29.036V31.297L151.795 33.014L151.455 34.017H149.228V33.184L149.058 33.099C148.967 33.2123 148.809 33.354 148.582 33.524C148.367 33.694 148.072 33.847 147.698 33.983C147.335 34.1077 146.882 34.17 146.338 34.17ZM147.273 32.283C147.76 32.283 148.14 32.2377 148.412 32.147C148.695 32.0563 148.911 31.9657 149.058 31.875V31.552C149.058 31.3367 148.928 31.1213 148.667 30.906C148.418 30.6907 148.004 30.583 147.426 30.583C146.995 30.583 146.678 30.668 146.474 30.838C146.27 31.008 146.168 31.2233 146.168 31.484C146.168 31.756 146.264 31.96 146.457 32.096C146.65 32.2207 146.922 32.283 147.273 32.283ZM153.374 34V24.684L153.017 22.984L153.374 21.964H155.754V34H153.374Z" fill="#1C4570"/>
</svg>
