<svg width="202" height="56" viewBox="0 0 202 56" fill="none" xmlns="http://www.w3.org/2000/svg">
<rect x="1" y="1" width="200" height="54" rx="7" fill="#FFFFF5"/>
<path fill-rule="evenodd" clip-rule="evenodd" d="M8 1C4.13401 1 1 4.13401 1 8V48C1 51.866 4.13401 55 8.00001 55H194C197.866 55 201 51.866 201 48V8C201 4.13401 197.866 1 194 1H8ZM8.30602 10.6695C8.12954 12.9669 8.09425 17.857 9.36488 19.0385C10.9532 20.5154 13.6004 24.4537 14.1298 28.392C14.5935 31.8416 12.2141 36.0464 10.9048 38.3603C10.7193 38.6882 10.5552 38.9781 10.4238 39.2225C10.2473 39.5506 10.0267 39.8925 9.7988 40.2457C8.65902 42.0121 7.33541 44.0633 10.4238 46.1146C14.1298 48.576 26.8362 49.5606 28.9539 49.5606H55.4255C57.5381 49.5606 60.1448 49.6525 62.9743 49.7522C71.4902 50.0523 82.0253 50.4236 87.1913 48.576C88.3485 48.1622 89.4158 47.7623 90.4211 47.3856C95.3949 45.522 98.8481 44.2282 104.133 44.6377C110.486 45.13 122.134 47.0991 126.899 48.576C129.74 49.4566 140.11 48.2369 149.704 47.1085C156.201 46.3445 162.341 45.6223 165.547 45.6223C173.489 45.6223 180.901 46.1146 185.666 46.6068C190.43 47.0991 193.078 40.6993 193.078 35.7764C193.078 34.2464 193.231 32.2884 193.395 30.198C193.758 25.5625 194.172 20.2759 193.078 17.5616C192.662 16.5315 192.428 15.1983 192.185 13.8174C191.5 9.91888 190.748 5.64061 185.666 6.73119C180.125 7.92001 172.184 8.15188 161.841 8.45387C159.335 8.52705 156.688 8.60434 153.9 8.70036C139.605 9.19265 120.546 8.70036 117.898 8.20807C117.096 8.05892 113.233 8.45204 107.942 8.99039C95.7689 10.2289 76.0418 12.2361 68.6612 10.1772C58.0726 7.22348 23.1302 4.26973 16.2475 7.22348C13.0393 8.60033 11.4415 8.58662 10.4891 8.57844C9.39829 8.56908 9.15393 8.56699 8.30602 10.6695Z" fill="#E0E0C7"/>
<rect x="1" y="1" width="200" height="54" rx="7" stroke="#1C4570" stroke-width="2" stroke-linecap="round"/>
<ellipse cx="36.567" cy="16.5" rx="2.57732" ry="2.5" fill="#E0E0C7"/>
<ellipse cx="57.1856" cy="40.5" rx="3.60825" ry="3.5" fill="#E0E0C7"/>
<ellipse cx="171.619" cy="16.5" rx="2.57732" ry="2.5" fill="#E0E0C7"/>
<ellipse cx="123.165" cy="29.5" rx="1.54639" ry="1.5" fill="#E0E0C7"/>
<path d="M56.4381 34V24.701L56.0981 22.984L56.4381 21.964H60.5181C61.3455 21.964 62.0878 22.0943 62.7451 22.355C63.4138 22.6043 63.9408 23.035 64.3261 23.647C64.7228 24.2477 64.9211 25.0807 64.9211 26.146C64.9211 27.1547 64.7285 27.9593 64.3431 28.56C63.9691 29.1607 63.4478 29.6083 62.7791 29.903L63.2721 30.345L64.7851 32.113L65.7541 32.98V34H62.6091L60.2291 30.379H58.8181V31.263L58.9881 32.963L58.8181 34H56.4381ZM58.8181 28.22H60.4841C61.2321 28.22 61.7421 28.0273 62.0141 27.642C62.2861 27.2453 62.4221 26.7467 62.4221 26.146C62.4221 25.5113 62.2748 25.024 61.9801 24.684C61.6968 24.344 61.1755 24.174 60.4161 24.174H58.6481L58.8181 28.22ZM69.9219 34.17C69.1852 34.17 68.5279 34.0397 67.9499 33.779C67.3719 33.5183 66.9186 33.082 66.5899 32.47C66.2612 31.858 66.0969 31.0307 66.0969 29.988C66.0969 28.9793 66.2726 28.169 66.6239 27.557C66.9752 26.945 67.4399 26.503 68.0179 26.231C68.5959 25.9477 69.2306 25.806 69.9219 25.806C70.6812 25.806 71.2762 25.891 71.7069 26.061C72.1489 26.231 72.4832 26.3953 72.7099 26.554L73.5599 29.257L73.2199 30.311H68.4599C68.5279 30.9117 68.7432 31.3933 69.1059 31.756C69.4686 32.1187 70.0239 32.3 70.7719 32.3C71.3839 32.3 71.8769 32.2263 72.2509 32.079C72.6362 31.9317 72.9026 31.8183 73.0499 31.739V33.507C72.7099 33.6883 72.2736 33.847 71.7409 33.983C71.2196 34.1077 70.6132 34.17 69.9219 34.17ZM68.4429 29.223L70.9929 28.883L70.7379 27.625C70.6586 27.5797 70.5452 27.5457 70.3979 27.523C70.2619 27.5003 70.1372 27.489 70.0239 27.489C69.5139 27.489 69.1229 27.6703 68.8509 28.033C68.5789 28.3843 68.4429 28.781 68.4429 29.223ZM77.6775 34.17C77.1448 34.17 76.6292 34.034 76.1305 33.762C75.6432 33.49 75.2408 33.0593 74.9235 32.47C74.6062 31.8807 74.4475 31.11 74.4475 30.158C74.4475 29.104 74.6175 28.2597 74.9575 27.625C75.2975 26.9903 75.7282 26.5313 76.2495 26.248C76.7822 25.9533 77.3148 25.806 77.8475 25.806C78.4142 25.806 78.8562 25.857 79.1735 25.959C79.4908 26.0497 79.7288 26.1347 79.8875 26.214L79.7175 23.001L79.8875 21.981H82.2845V31.28L82.6245 32.98L82.2845 34.017H80.0575V33.184L79.8875 33.099C79.8875 33.099 79.8025 33.1897 79.6325 33.371C79.4625 33.541 79.2132 33.7167 78.8845 33.898C78.5558 34.0793 78.1535 34.17 77.6775 34.17ZM78.6125 32.283L79.8875 32.045V28.543C79.8875 28.2823 79.7798 28.0783 79.5645 27.931C79.3492 27.7723 79.0318 27.693 78.6125 27.693C78.1818 27.693 77.8475 27.8007 77.6095 28.016C77.3828 28.22 77.2242 28.4977 77.1335 28.849C77.0428 29.189 76.9975 29.5687 76.9975 29.988C76.9975 30.6113 77.1222 31.1497 77.3715 31.603C77.6208 32.0563 78.0345 32.283 78.6125 32.283ZM87.8018 34.17C87.0651 34.17 86.4078 34.0397 85.8298 33.779C85.2518 33.5183 84.7985 33.082 84.4698 32.47C84.1411 31.858 83.9768 31.0307 83.9768 29.988C83.9768 28.9793 84.1525 28.169 84.5038 27.557C84.8551 26.945 85.3198 26.503 85.8978 26.231C86.4758 25.9477 87.1105 25.806 87.8018 25.806C88.5611 25.806 89.1561 25.891 89.5868 26.061C90.0288 26.231 90.3631 26.3953 90.5898 26.554L91.4398 29.257L91.0998 30.311H86.3398C86.4078 30.9117 86.6231 31.3933 86.9858 31.756C87.3485 32.1187 87.9038 32.3 88.6518 32.3C89.2638 32.3 89.7568 32.2263 90.1308 32.079C90.5161 31.9317 90.7825 31.8183 90.9298 31.739V33.507C90.5898 33.6883 90.1535 33.847 89.6208 33.983C89.0995 34.1077 88.4931 34.17 87.8018 34.17ZM86.3228 29.223L88.8728 28.883L88.6178 27.625C88.5385 27.5797 88.4251 27.5457 88.2778 27.523C88.1418 27.5003 88.0171 27.489 87.9038 27.489C87.3938 27.489 87.0028 27.6703 86.7308 28.033C86.4588 28.3843 86.3228 28.781 86.3228 29.223ZM86.8838 25.177L88.3458 21.913H89.7398V22.593L87.5638 25.177H86.8838ZM92.4974 27.013L93.0244 25.976H94.8774V26.707L95.0304 26.809C95.155 26.6957 95.325 26.5653 95.5404 26.418C95.767 26.2593 96.039 26.1177 96.3564 25.993C96.6737 25.8683 97.0307 25.806 97.4274 25.806C98.606 25.806 99.4504 26.197 99.9604 26.979C100.153 26.6957 100.453 26.4293 100.861 26.18C101.281 25.9193 101.859 25.789 102.595 25.789C103.615 25.789 104.38 26.078 104.89 26.656C105.4 27.234 105.655 28.0443 105.655 29.087V31.263L106.012 32.963L105.655 34H103.292V29.019C103.292 28.5883 103.173 28.2597 102.935 28.033C102.709 27.795 102.38 27.676 101.949 27.676C101.507 27.676 101.15 27.8007 100.878 28.05C100.618 28.2993 100.487 28.628 100.487 29.036V29.104V34H98.1074V29.036C98.1074 28.6053 98.011 28.2767 97.8184 28.05C97.637 27.812 97.348 27.693 96.9514 27.693L95.2174 28.016V34H92.8374V28.883L92.4974 27.013ZM109.856 34.17C109.097 34.17 108.451 33.9773 107.918 33.592C107.397 33.1953 107.136 32.5833 107.136 31.756C107.136 30.8833 107.414 30.2203 107.969 29.767C108.524 29.3023 109.267 29.07 110.196 29.07C110.876 29.07 111.392 29.1267 111.743 29.24C112.106 29.3533 112.344 29.4383 112.457 29.495L112.576 29.393C112.576 29.053 112.548 28.7527 112.491 28.492C112.434 28.2313 112.304 28.033 112.1 27.897C111.896 27.7497 111.579 27.676 111.148 27.676C110.377 27.676 109.686 27.7383 109.074 27.863C108.473 27.9877 107.997 28.101 107.646 28.203V26.333C107.997 26.2083 108.53 26.095 109.244 25.993C109.958 25.8797 110.729 25.823 111.556 25.823C112.259 25.823 112.831 25.9193 113.273 26.112C113.726 26.2933 114.072 26.5427 114.31 26.86C114.559 27.1773 114.729 27.5287 114.82 27.914C114.922 28.288 114.973 28.662 114.973 29.036V31.297L115.313 33.014L114.973 34.017H112.746V33.184L112.576 33.099C112.485 33.2123 112.327 33.354 112.1 33.524C111.885 33.694 111.59 33.847 111.216 33.983C110.853 34.1077 110.4 34.17 109.856 34.17ZM110.791 32.283C111.278 32.283 111.658 32.2377 111.93 32.147C112.213 32.0563 112.429 31.9657 112.576 31.875V31.552C112.576 31.3367 112.446 31.1213 112.185 30.906C111.936 30.6907 111.522 30.583 110.944 30.583C110.513 30.583 110.196 30.668 109.992 30.838C109.788 31.008 109.686 31.2233 109.686 31.484C109.686 31.756 109.782 31.96 109.975 32.096C110.168 32.2207 110.44 32.283 110.791 32.283ZM116.96 34V28.679L116.603 26.979L116.96 25.959H118.592L118.932 26.35C118.932 26.35 119.006 26.3047 119.153 26.214C119.312 26.112 119.533 26.0157 119.816 25.925C120.099 25.8343 120.445 25.789 120.853 25.789C121.08 25.789 121.306 25.806 121.533 25.84C121.76 25.874 121.935 25.9193 122.06 25.976L123.165 27.081L122.23 28.747L119.901 27.574L119.306 27.812V34H116.96ZM124.198 34V28.679L123.841 26.979L124.198 25.959H125.83L126.17 26.35C126.17 26.35 126.244 26.3047 126.391 26.214C126.55 26.112 126.771 26.0157 127.054 25.925C127.337 25.8343 127.683 25.789 128.091 25.789C128.318 25.789 128.544 25.806 128.771 25.84C128.998 25.874 129.173 25.9193 129.298 25.976L130.403 27.081L129.468 28.747L127.139 27.574L126.544 27.812V34H124.198ZM134.668 34.17C133.931 34.17 133.274 34.0397 132.696 33.779C132.118 33.5183 131.665 33.082 131.336 32.47C131.007 31.858 130.843 31.0307 130.843 29.988C130.843 28.9793 131.019 28.169 131.37 27.557C131.721 26.945 132.186 26.503 132.764 26.231C133.342 25.9477 133.977 25.806 134.668 25.806C135.427 25.806 136.022 25.891 136.453 26.061C136.895 26.231 137.229 26.3953 137.456 26.554L138.306 29.257L137.966 30.311H133.206C133.274 30.9117 133.489 31.3933 133.852 31.756C134.215 32.1187 134.77 32.3 135.518 32.3C136.13 32.3 136.623 32.2263 136.997 32.079C137.382 31.9317 137.649 31.8183 137.796 31.739V33.507C137.456 33.6883 137.02 33.847 136.487 33.983C135.966 34.1077 135.359 34.17 134.668 34.17ZM133.189 29.223L135.739 28.883L135.484 27.625C135.405 27.5797 135.291 27.5457 135.144 27.523C135.008 27.5003 134.883 27.489 134.77 27.489C134.26 27.489 133.869 27.6703 133.597 28.033C133.325 28.3843 133.189 28.781 133.189 29.223ZM139.721 34V28.679L139.364 26.979L139.721 25.959H141.353L141.693 26.35C141.693 26.35 141.766 26.3047 141.914 26.214C142.072 26.112 142.293 26.0157 142.577 25.925C142.86 25.8343 143.206 25.789 143.614 25.789C143.84 25.789 144.067 25.806 144.294 25.84C144.52 25.874 144.696 25.9193 144.821 25.976L145.926 27.081L144.991 28.747L142.662 27.574L142.067 27.812V34H139.721Z" fill="#1C4570"/>
</svg>
