<svg width="202" height="56" viewBox="0 0 202 56" fill="none" xmlns="http://www.w3.org/2000/svg">
<rect x="1" y="1" width="200" height="54" rx="7" fill="#FFFFF5"/>
<path fill-rule="evenodd" clip-rule="evenodd" d="M8 1C4.13401 1 1 4.13401 1 8V48C1 51.866 4.13401 55 8.00001 55H194C197.866 55 201 51.866 201 48V8C201 4.13401 197.866 1 194 1H8ZM8.30602 10.6695C8.12954 12.9669 8.09425 17.857 9.36488 19.0385C10.9532 20.5154 13.6004 24.4537 14.1298 28.392C14.5935 31.8416 12.2141 36.0464 10.9048 38.3603C10.7193 38.6882 10.5552 38.9781 10.4238 39.2225C10.2473 39.5506 10.0267 39.8925 9.7988 40.2457C8.65902 42.0121 7.33541 44.0633 10.4238 46.1146C14.1298 48.576 26.8362 49.5606 28.9539 49.5606H55.4255C57.5381 49.5606 60.1448 49.6525 62.9743 49.7522C71.4902 50.0523 82.0253 50.4236 87.1913 48.576C88.3485 48.1622 89.4158 47.7623 90.4211 47.3856C95.3949 45.522 98.8481 44.2282 104.133 44.6377C110.486 45.13 122.134 47.0991 126.899 48.576C129.74 49.4566 140.11 48.2369 149.704 47.1085C156.201 46.3445 162.341 45.6223 165.547 45.6223C173.489 45.6223 180.901 46.1146 185.666 46.6068C190.43 47.0991 193.078 40.6993 193.078 35.7764C193.078 34.2464 193.231 32.2884 193.395 30.198C193.758 25.5625 194.172 20.2759 193.078 17.5616C192.662 16.5315 192.428 15.1983 192.185 13.8174C191.5 9.91888 190.748 5.64061 185.666 6.73119C180.125 7.92001 172.184 8.15188 161.841 8.45387C159.335 8.52705 156.688 8.60434 153.9 8.70036C139.605 9.19265 120.546 8.70036 117.898 8.20807C117.096 8.05892 113.233 8.45204 107.942 8.99039C95.7689 10.2289 76.0418 12.2361 68.6612 10.1772C58.0726 7.22348 23.1302 4.26973 16.2475 7.22348C13.0393 8.60033 11.4415 8.58662 10.4891 8.57844C9.39829 8.56908 9.15393 8.56699 8.30602 10.6695Z" fill="#E0E0C7"/>
<rect x="1" y="1" width="200" height="54" rx="7" stroke="#1C4570" stroke-width="2" stroke-linecap="round"/>
<ellipse cx="36.567" cy="16.5" rx="2.57732" ry="2.5" fill="#E0E0C7"/>
<ellipse cx="57.1856" cy="40.5" rx="3.60825" ry="3.5" fill="#E0E0C7"/>
<ellipse cx="171.619" cy="16.5" rx="2.57732" ry="2.5" fill="#E0E0C7"/>
<ellipse cx="123.165" cy="29.5" rx="1.54639" ry="1.5" fill="#E0E0C7"/>
<path d="M73.7931 34V24.701L73.4531 22.984L73.7931 21.964H77.8731C78.7004 21.964 79.4428 22.0943 80.1001 22.355C80.7688 22.6043 81.2958 23.035 81.6811 23.647C82.0778 24.2477 82.2761 25.0807 82.2761 26.146C82.2761 27.1547 82.0834 27.9593 81.6981 28.56C81.3241 29.1607 80.8028 29.6083 80.1341 29.903L80.6271 30.345L82.1401 32.113L83.1091 32.98V34H79.9641L77.5841 30.379H76.1731V31.263L76.3431 32.963L76.1731 34H73.7931ZM76.1731 28.22H77.8391C78.5871 28.22 79.0971 28.0273 79.3691 27.642C79.6411 27.2453 79.7771 26.7467 79.7771 26.146C79.7771 25.5113 79.6298 25.024 79.3351 24.684C79.0518 24.344 78.5304 24.174 77.7711 24.174H76.0031L76.1731 28.22ZM87.2769 34.17C86.5402 34.17 85.8829 34.0397 85.3049 33.779C84.7269 33.5183 84.2736 33.082 83.9449 32.47C83.6162 31.858 83.4519 31.0307 83.4519 29.988C83.4519 28.9793 83.6276 28.169 83.9789 27.557C84.3302 26.945 84.7949 26.503 85.3729 26.231C85.9509 25.9477 86.5856 25.806 87.2769 25.806C88.0362 25.806 88.6312 25.891 89.0619 26.061C89.5039 26.231 89.8382 26.3953 90.0649 26.554L90.9149 29.257L90.5749 30.311H85.8149C85.8829 30.9117 86.0982 31.3933 86.4609 31.756C86.8236 32.1187 87.3789 32.3 88.1269 32.3C88.7389 32.3 89.2319 32.2263 89.6059 32.079C89.9912 31.9317 90.2576 31.8183 90.4049 31.739V33.507C90.0649 33.6883 89.6286 33.847 89.0959 33.983C88.5746 34.1077 87.9682 34.17 87.2769 34.17ZM85.7979 29.223L88.3479 28.883L88.0929 27.625C88.0136 27.5797 87.9002 27.5457 87.7529 27.523C87.6169 27.5003 87.4922 27.489 87.3789 27.489C86.8689 27.489 86.4779 27.6703 86.2059 28.033C85.9339 28.3843 85.7979 28.781 85.7979 29.223ZM94.9305 34.17C94.2051 34.17 93.5988 34.1077 93.1115 33.983C92.6355 33.8583 92.2501 33.7167 91.9555 33.558V31.552C92.3635 31.7673 92.8281 31.9543 93.3495 32.113C93.8821 32.2603 94.3921 32.334 94.8795 32.334C95.4575 32.334 95.7465 32.147 95.7465 31.773C95.7465 31.569 95.6615 31.416 95.4915 31.314C95.3328 31.212 95.1061 31.1213 94.8115 31.042C94.5281 30.9513 94.1995 30.8437 93.8255 30.719C93.1795 30.4923 92.6808 30.2033 92.3295 29.852C91.9781 29.5007 91.8025 28.951 91.8025 28.203C91.8025 27.3983 92.0801 26.7977 92.6355 26.401C93.2021 26.0043 93.9445 25.806 94.8625 25.806C95.2365 25.806 95.5538 25.8287 95.8145 25.874C96.0751 25.908 96.3131 25.942 96.5285 25.976L98.0755 26.826L97.4125 28.475L94.8625 27.659C94.6471 27.659 94.4715 27.7043 94.3355 27.795C94.2108 27.8743 94.1485 27.9877 94.1485 28.135C94.1485 28.373 94.2675 28.5543 94.5055 28.679C94.7435 28.7923 95.0891 28.917 95.5425 29.053C96.4605 29.325 97.1348 29.6537 97.5655 30.039C97.9961 30.4243 98.2115 30.991 98.2115 31.739C98.2115 32.4303 97.9395 33.0083 97.3955 33.473C96.8628 33.9377 96.0411 34.17 94.9305 34.17ZM102.164 34.17C101.394 34.17 100.833 34 100.481 33.66C100.13 33.32 99.9544 32.8043 99.9544 32.113V27.557H98.8834V26.452L99.7844 25.619L100.991 23.511H102.317V25.976H104.527V27.676H102.317V32.334L104.527 32.317V33.66C104.527 33.66 104.437 33.7053 104.255 33.796C104.074 33.8753 103.808 33.9547 103.456 34.034C103.116 34.1247 102.686 34.17 102.164 34.17ZM108.103 34.17C107.343 34.17 106.697 33.9773 106.165 33.592C105.643 33.1953 105.383 32.5833 105.383 31.756C105.383 30.8833 105.66 30.2203 106.216 29.767C106.771 29.3023 107.513 29.07 108.443 29.07C109.123 29.07 109.638 29.1267 109.99 29.24C110.352 29.3533 110.59 29.4383 110.704 29.495L110.823 29.393C110.823 29.053 110.794 28.7527 110.738 28.492C110.681 28.2313 110.551 28.033 110.347 27.897C110.143 27.7497 109.825 27.676 109.395 27.676C108.624 27.676 107.933 27.7383 107.321 27.863C106.72 27.9877 106.244 28.101 105.893 28.203V26.333C106.244 26.2083 106.777 26.095 107.491 25.993C108.205 25.8797 108.975 25.823 109.803 25.823C110.505 25.823 111.078 25.9193 111.52 26.112C111.973 26.2933 112.319 26.5427 112.557 26.86C112.806 27.1773 112.976 27.5287 113.067 27.914C113.169 28.288 113.22 28.662 113.22 29.036V31.297L113.56 33.014L113.22 34.017H110.993V33.184L110.823 33.099C110.732 33.2123 110.573 33.354 110.347 33.524C110.131 33.694 109.837 33.847 109.463 33.983C109.1 34.1077 108.647 34.17 108.103 34.17ZM109.038 32.283C109.525 32.283 109.905 32.2377 110.177 32.147C110.46 32.0563 110.675 31.9657 110.823 31.875V31.552C110.823 31.3367 110.692 31.1213 110.432 30.906C110.182 30.6907 109.769 30.583 109.191 30.583C108.76 30.583 108.443 30.668 108.239 30.838C108.035 31.008 107.933 31.2233 107.933 31.484C107.933 31.756 108.029 31.96 108.222 32.096C108.414 32.2207 108.686 32.283 109.038 32.283ZM115.206 34V28.679L114.849 26.979L115.206 25.959H116.838L117.178 26.35C117.178 26.35 117.252 26.3047 117.399 26.214C117.558 26.112 117.779 26.0157 118.062 25.925C118.346 25.8343 118.691 25.789 119.099 25.789C119.326 25.789 119.553 25.806 119.779 25.84C120.006 25.874 120.182 25.9193 120.306 25.976L121.411 27.081L120.476 28.747L118.147 27.574L117.552 27.812V34H115.206ZM124.859 34.17C124.088 34.17 123.527 34 123.176 33.66C122.824 33.32 122.649 32.8043 122.649 32.113V27.557H121.578V26.452L122.479 25.619L123.686 23.511H125.012V25.976H127.222V27.676H125.012V32.334L127.222 32.317V33.66C127.222 33.66 127.131 33.7053 126.95 33.796C126.768 33.8753 126.502 33.9547 126.151 34.034C125.811 34.1247 125.38 34.17 124.859 34.17Z" fill="#1C4570"/>
</svg>
