<svg width="202" height="56" viewBox="0 0 202 56" fill="none" xmlns="http://www.w3.org/2000/svg">
<rect x="1" y="1" width="200" height="54" rx="7" fill="#FFFFF5"/>
<path fill-rule="evenodd" clip-rule="evenodd" d="M8 1C4.13401 1 1 4.13401 1 8V48C1 51.866 4.13401 55 8.00001 55H194C197.866 55 201 51.866 201 48V8C201 4.13401 197.866 1 194 1H8ZM8.30602 10.6695C8.12954 12.9669 8.09425 17.857 9.36488 19.0385C10.9532 20.5154 13.6004 24.4537 14.1298 28.392C14.5935 31.8416 12.2141 36.0464 10.9048 38.3603C10.7193 38.6882 10.5552 38.9781 10.4238 39.2225C10.2473 39.5506 10.0267 39.8925 9.7988 40.2457C8.65902 42.0121 7.33541 44.0633 10.4238 46.1146C14.1298 48.576 26.8362 49.5606 28.9539 49.5606H55.4255C57.5381 49.5606 60.1448 49.6525 62.9743 49.7522C71.4902 50.0523 82.0253 50.4236 87.1913 48.576C88.3485 48.1622 89.4158 47.7623 90.4211 47.3856C95.3949 45.522 98.8481 44.2282 104.133 44.6377C110.486 45.13 122.134 47.0991 126.899 48.576C129.74 49.4566 140.11 48.2369 149.704 47.1085C156.201 46.3445 162.341 45.6223 165.547 45.6223C173.489 45.6223 180.901 46.1146 185.666 46.6068C190.43 47.0991 193.078 40.6993 193.078 35.7764C193.078 34.2464 193.231 32.2884 193.395 30.198C193.758 25.5625 194.172 20.2759 193.078 17.5616C192.662 16.5315 192.428 15.1983 192.185 13.8174C191.5 9.91888 190.748 5.64061 185.666 6.73119C180.125 7.92001 172.184 8.15188 161.841 8.45387C159.335 8.52705 156.688 8.60434 153.9 8.70036C139.605 9.19265 120.546 8.70036 117.898 8.20807C117.096 8.05892 113.233 8.45204 107.942 8.99039C95.7689 10.2289 76.0418 12.2361 68.6612 10.1772C58.0726 7.22348 23.1302 4.26973 16.2475 7.22348C13.0393 8.60033 11.4415 8.58662 10.4891 8.57844C9.39829 8.56908 9.15393 8.56699 8.30602 10.6695Z" fill="#E0E0C7"/>
<rect x="1" y="1" width="200" height="54" rx="7" stroke="#1C4570" stroke-width="2" stroke-linecap="round"/>
<ellipse cx="36.567" cy="16.5" rx="2.57732" ry="2.5" fill="#E0E0C7"/>
<ellipse cx="57.1856" cy="40.5" rx="3.60825" ry="3.5" fill="#E0E0C7"/>
<ellipse cx="171.619" cy="16.5" rx="2.57732" ry="2.5" fill="#E0E0C7"/>
<ellipse cx="123.165" cy="29.5" rx="1.54639" ry="1.5" fill="#E0E0C7"/>
<path d="M72.4586 35V25.701L72.1186 23.984L72.4586 22.964H76.5386C77.366 22.964 78.1083 23.0943 78.7656 23.355C79.4343 23.6043 79.9613 24.035 80.3466 24.647C80.7433 25.2477 80.9416 26.0807 80.9416 27.146C80.9416 28.1547 80.749 28.9593 80.3636 29.56C79.9896 30.1607 79.4683 30.6083 78.7996 30.903L79.2926 31.345L80.8056 33.113L81.7746 33.98V35H78.6296L76.2496 31.379H74.8386V32.263L75.0086 33.963L74.8386 35H72.4586ZM74.8386 29.22H76.5046C77.2526 29.22 77.7626 29.0273 78.0346 28.642C78.3066 28.2453 78.4426 27.7467 78.4426 27.146C78.4426 26.5113 78.2953 26.024 78.0006 25.684C77.7173 25.344 77.196 25.174 76.4366 25.174H74.6686L74.8386 29.22ZM85.9424 35.17C85.2058 35.17 84.5484 35.0397 83.9704 34.779C83.3924 34.5183 82.9391 34.082 82.6104 33.47C82.2818 32.858 82.1174 32.0307 82.1174 30.988C82.1174 29.9793 82.2931 29.169 82.6444 28.557C82.9958 27.945 83.4604 27.503 84.0384 27.231C84.6164 26.9477 85.2511 26.806 85.9424 26.806C86.7018 26.806 87.2968 26.891 87.7274 27.061C88.1694 27.231 88.5038 27.3953 88.7304 27.554L89.5804 30.257L89.2404 31.311H84.4804C84.5484 31.9117 84.7638 32.3933 85.1264 32.756C85.4891 33.1187 86.0444 33.3 86.7924 33.3C87.4044 33.3 87.8974 33.2263 88.2714 33.079C88.6568 32.9317 88.9231 32.8183 89.0704 32.739V34.507C88.7304 34.6883 88.2941 34.847 87.7614 34.983C87.2401 35.1077 86.6338 35.17 85.9424 35.17ZM84.4634 30.223L87.0134 29.883L86.7584 28.625C86.6791 28.5797 86.5658 28.5457 86.4184 28.523C86.2824 28.5003 86.1578 28.489 86.0444 28.489C85.5344 28.489 85.1434 28.6703 84.8714 29.033C84.5994 29.3843 84.4634 29.781 84.4634 30.223ZM93.596 35.17C92.8707 35.17 92.2643 35.1077 91.777 34.983C91.301 34.8583 90.9157 34.7167 90.621 34.558V32.552C91.029 32.7673 91.4937 32.9543 92.015 33.113C92.5477 33.2603 93.0577 33.334 93.545 33.334C94.123 33.334 94.412 33.147 94.412 32.773C94.412 32.569 94.327 32.416 94.157 32.314C93.9983 32.212 93.7717 32.1213 93.477 32.042C93.1937 31.9513 92.865 31.8437 92.491 31.719C91.845 31.4923 91.3463 31.2033 90.995 30.852C90.6437 30.5007 90.468 29.951 90.468 29.203C90.468 28.3983 90.7457 27.7977 91.301 27.401C91.8677 27.0043 92.61 26.806 93.528 26.806C93.902 26.806 94.2193 26.8287 94.48 26.874C94.7407 26.908 94.9787 26.942 95.194 26.976L96.741 27.826L96.078 29.475L93.528 28.659C93.3127 28.659 93.137 28.7043 93.001 28.795C92.8763 28.8743 92.814 28.9877 92.814 29.135C92.814 29.373 92.933 29.5543 93.171 29.679C93.409 29.7923 93.7547 29.917 94.208 30.053C95.126 30.325 95.8003 30.6537 96.231 31.039C96.6617 31.4243 96.877 31.991 96.877 32.739C96.877 33.4303 96.605 34.0083 96.061 34.473C95.5283 34.9377 94.7067 35.17 93.596 35.17ZM100.609 35.17C99.9289 35.17 99.4019 35.0397 99.0279 34.779C98.6652 34.5183 98.4102 34.1443 98.2629 33.657C98.1269 33.1583 98.0589 32.5633 98.0589 31.872V26.959H100.439V31.94C100.439 32.4047 100.524 32.7447 100.694 32.96C100.875 33.1753 101.176 33.283 101.595 33.283C102.128 33.283 102.547 33.079 102.853 32.671C103.17 32.263 103.329 31.787 103.329 31.243V26.959H105.709V32.263L106.066 33.963L105.709 35H103.516V34.167L103.346 34.082C103.199 34.2293 102.983 34.388 102.7 34.558C102.428 34.728 102.111 34.8753 101.748 35C101.397 35.1133 101.017 35.17 100.609 35.17ZM107.422 28.013L107.949 26.976H109.802V27.707L109.955 27.809C110.08 27.6957 110.25 27.5653 110.465 27.418C110.692 27.2593 110.964 27.1177 111.281 26.993C111.599 26.8683 111.956 26.806 112.352 26.806C113.531 26.806 114.375 27.197 114.885 27.979C115.078 27.6957 115.378 27.4293 115.786 27.18C116.206 26.9193 116.784 26.789 117.52 26.789C118.54 26.789 119.305 27.078 119.815 27.656C120.325 28.234 120.58 29.0443 120.58 30.087V32.263L120.937 33.963L120.58 35H118.217V30.019C118.217 29.5883 118.098 29.2597 117.86 29.033C117.634 28.795 117.305 28.676 116.874 28.676C116.432 28.676 116.075 28.8007 115.803 29.05C115.543 29.2993 115.412 29.628 115.412 30.036V30.104V35H113.032V30.036C113.032 29.6053 112.936 29.2767 112.743 29.05C112.562 28.812 112.273 28.693 111.876 28.693L110.142 29.016V35H107.762V29.883L107.422 28.013ZM125.886 35.17C125.149 35.17 124.492 35.0397 123.914 34.779C123.336 34.5183 122.882 34.082 122.554 33.47C122.225 32.858 122.061 32.0307 122.061 30.988C122.061 29.9793 122.236 29.169 122.588 28.557C122.939 27.945 123.404 27.503 123.982 27.231C124.56 26.9477 125.194 26.806 125.886 26.806C126.645 26.806 127.24 26.891 127.671 27.061C128.113 27.231 128.447 27.3953 128.674 27.554L129.524 30.257L129.184 31.311H124.424C124.492 31.9117 124.707 32.3933 125.07 32.756C125.432 33.1187 125.988 33.3 126.736 33.3C127.348 33.3 127.841 33.2263 128.215 33.079C128.6 32.9317 128.866 32.8183 129.014 32.739V34.507C128.674 34.6883 128.237 34.847 127.705 34.983C127.183 35.1077 126.577 35.17 125.886 35.17ZM124.407 30.223L126.957 29.883L126.702 28.625C126.622 28.5797 126.509 28.5457 126.362 28.523C126.226 28.5003 126.101 28.489 125.988 28.489C125.478 28.489 125.087 28.6703 124.815 29.033C124.543 29.3843 124.407 29.781 124.407 30.223Z" fill="#1C4570"/>
</svg>
