<svg width="202" height="56" viewBox="0 0 202 56" fill="none" xmlns="http://www.w3.org/2000/svg">
<rect x="1" y="1" width="200" height="54" rx="7" fill="#FFFFF5"/>
<path fill-rule="evenodd" clip-rule="evenodd" d="M8 1C4.13401 1 1 4.13401 1 8V48C1 51.866 4.13401 55 8.00001 55H194C197.866 55 201 51.866 201 48V8C201 4.13401 197.866 1 194 1H8ZM8.30602 10.6695C8.12954 12.9669 8.09425 17.857 9.36488 19.0385C10.9532 20.5154 13.6004 24.4537 14.1298 28.392C14.5935 31.8416 12.2141 36.0464 10.9048 38.3603C10.7193 38.6882 10.5552 38.9781 10.4238 39.2225C10.2473 39.5506 10.0267 39.8925 9.7988 40.2457C8.65902 42.0121 7.33541 44.0633 10.4238 46.1146C14.1298 48.576 26.8362 49.5606 28.9539 49.5606H55.4255C57.5381 49.5606 60.1448 49.6525 62.9743 49.7522C71.4902 50.0523 82.0253 50.4236 87.1913 48.576C88.3485 48.1622 89.4158 47.7623 90.4211 47.3856C95.3949 45.522 98.8481 44.2282 104.133 44.6377C110.486 45.13 122.134 47.0991 126.899 48.576C129.74 49.4566 140.11 48.2369 149.704 47.1085C156.201 46.3445 162.341 45.6223 165.547 45.6223C173.489 45.6223 180.901 46.1146 185.666 46.6068C190.43 47.0991 193.078 40.6993 193.078 35.7764C193.078 34.2464 193.231 32.2884 193.395 30.198C193.758 25.5625 194.172 20.2759 193.078 17.5616C192.662 16.5315 192.428 15.1983 192.185 13.8174C191.5 9.91888 190.748 5.64061 185.666 6.73119C180.125 7.92001 172.184 8.15188 161.841 8.45387C159.335 8.52705 156.688 8.60434 153.9 8.70036C139.605 9.19265 120.546 8.70036 117.898 8.20807C117.096 8.05892 113.233 8.45204 107.942 8.99039C95.7689 10.2289 76.0418 12.2361 68.6612 10.1772C58.0726 7.22348 23.1302 4.26973 16.2475 7.22348C13.0393 8.60033 11.4415 8.58662 10.4891 8.57844C9.39829 8.56908 9.15393 8.56699 8.30602 10.6695Z" fill="#E0E0C7"/>
<rect x="1" y="1" width="200" height="54" rx="7" stroke="#1C4570" stroke-width="2" stroke-linecap="round"/>
<ellipse cx="36.567" cy="16.5" rx="2.57732" ry="2.5" fill="#E0E0C7"/>
<ellipse cx="57.1856" cy="40.5" rx="3.60825" ry="3.5" fill="#E0E0C7"/>
<ellipse cx="171.619" cy="16.5" rx="2.57732" ry="2.5" fill="#E0E0C7"/>
<ellipse cx="123.165" cy="29.5" rx="1.54639" ry="1.5" fill="#E0E0C7"/>
<path d="M74.7075 34.17C73.8349 34.17 73.0925 34.0567 72.4805 33.83C71.8685 33.592 71.4095 33.3427 71.1035 33.082V30.736C71.5002 30.9627 72.0272 31.2007 72.6845 31.45C73.3532 31.6993 74.0899 31.824 74.8945 31.824C75.4159 31.824 75.8012 31.722 76.0505 31.518C76.3112 31.314 76.4415 31.0363 76.4415 30.685C76.4415 30.3677 76.3395 30.107 76.1355 29.903C75.9315 29.699 75.6255 29.512 75.2175 29.342C74.8095 29.172 74.2882 28.9737 73.6535 28.747C72.7469 28.4183 72.0442 27.9933 71.5455 27.472C71.0469 26.9507 70.7975 26.248 70.7975 25.364C70.7975 24.7407 70.9335 24.157 71.2055 23.613C71.4889 23.069 71.9252 22.6327 72.5145 22.304C73.1152 21.964 73.8802 21.794 74.8095 21.794C75.1722 21.794 75.5292 21.811 75.8805 21.845C76.2432 21.8677 76.5492 21.9017 76.7985 21.947L78.7195 23.358L77.8695 25.092L74.7585 23.987C74.3505 23.987 74.0105 24.089 73.7385 24.293C73.4779 24.4857 73.3475 24.7633 73.3475 25.126C73.3475 25.5793 73.5345 25.925 73.9085 26.163C74.2939 26.401 74.8322 26.6333 75.5235 26.86C76.8382 27.2907 77.7619 27.812 78.2945 28.424C78.8272 29.0247 79.0935 29.733 79.0935 30.549C79.0935 31.2063 78.9575 31.8127 78.6855 32.368C78.4135 32.912 77.9545 33.3483 77.3085 33.677C76.6739 34.0057 75.8069 34.17 74.7075 34.17ZM83.9668 34.17C83.2302 34.17 82.5728 34.0397 81.9948 33.779C81.4168 33.5183 80.9635 33.082 80.6348 32.47C80.3062 31.858 80.1418 31.0307 80.1418 29.988C80.1418 28.9793 80.3175 28.169 80.6688 27.557C81.0202 26.945 81.4848 26.503 82.0628 26.231C82.6408 25.9477 83.2755 25.806 83.9668 25.806C84.7262 25.806 85.3212 25.891 85.7518 26.061C86.1938 26.231 86.5282 26.3953 86.7548 26.554L87.6048 29.257L87.2648 30.311H82.5048C82.5728 30.9117 82.7882 31.3933 83.1508 31.756C83.5135 32.1187 84.0688 32.3 84.8168 32.3C85.4288 32.3 85.9218 32.2263 86.2958 32.079C86.6812 31.9317 86.9475 31.8183 87.0948 31.739V33.507C86.7548 33.6883 86.3185 33.847 85.7858 33.983C85.2645 34.1077 84.6582 34.17 83.9668 34.17ZM82.4878 29.223L85.0378 28.883L84.7828 27.625C84.7035 27.5797 84.5902 27.5457 84.4428 27.523C84.3068 27.5003 84.1822 27.489 84.0688 27.489C83.5588 27.489 83.1678 27.6703 82.8958 28.033C82.6238 28.3843 82.4878 28.781 82.4878 29.223ZM91.4334 34.17C90.6628 34.17 90.1018 34 89.7504 33.66C89.3991 33.32 89.2234 32.8043 89.2234 32.113V27.557H88.1524V26.452L89.0534 25.619L90.2604 23.511H91.5864V25.976H93.7964V27.676H91.5864V32.334L93.7964 32.317V33.66C93.7964 33.66 93.7058 33.7053 93.5244 33.796C93.3431 33.8753 93.0768 33.9547 92.7254 34.034C92.3854 34.1247 91.9548 34.17 91.4334 34.17ZM97.5926 34.17C96.8219 34.17 96.2609 34 95.9096 33.66C95.5583 33.32 95.3826 32.8043 95.3826 32.113V27.557H94.3116V26.452L95.2126 25.619L96.4196 23.511H97.7456V25.976H99.9556V27.676H97.7456V32.334L99.9556 32.317V33.66C99.9556 33.66 99.8649 33.7053 99.6836 33.796C99.5023 33.8753 99.2359 33.9547 98.8846 34.034C98.5446 34.1247 98.1139 34.17 97.5926 34.17ZM102.511 25.126L100.692 23.307L102.511 21.488L104.313 23.307L102.511 25.126ZM101.321 34V28.373L100.964 27.013L101.304 25.976H103.684V34H101.321ZM105.571 34V28.883L105.231 27.013L105.758 25.976H107.611V26.707L107.764 26.809C107.888 26.6957 108.058 26.5653 108.274 26.418C108.5 26.2593 108.772 26.1177 109.09 25.993C109.407 25.8683 109.764 25.806 110.161 25.806C111.181 25.806 111.946 26.095 112.456 26.673C112.966 27.251 113.221 28.0613 113.221 29.104V31.263L113.578 32.963L113.221 34H110.841V29.036C110.841 28.6053 110.744 28.2767 110.552 28.05C110.37 27.812 110.081 27.693 109.685 27.693L107.951 28.016V34H105.571ZM118.633 38.131C118.35 38.131 118.027 38.1197 117.664 38.097C117.302 38.0857 117.007 38.0687 116.78 38.046L114.876 37.043L115.556 35.36L118.225 36.227C119.733 36.227 120.486 35.5413 120.486 34.17V33.49L120.316 33.405C120.18 33.5183 119.931 33.6713 119.568 33.864C119.217 34.0453 118.673 34.136 117.936 34.136C117.404 34.136 116.888 34.0057 116.389 33.745C115.891 33.473 115.483 33.0423 115.165 32.453C114.859 31.8637 114.706 31.0987 114.706 30.158C114.706 29.104 114.865 28.2597 115.182 27.625C115.5 26.979 115.902 26.5087 116.389 26.214C116.888 25.9193 117.404 25.772 117.936 25.772C118.526 25.772 119.007 25.857 119.381 26.027C119.767 26.197 120.022 26.3613 120.146 26.52V25.959H122.543L122.713 26.979L122.526 27.999L122.543 33.983C122.543 35.2977 122.237 36.3177 121.625 37.043C121.013 37.7683 120.016 38.131 118.633 38.131ZM118.871 32.266C119.075 32.266 119.302 32.2377 119.551 32.181C119.801 32.1243 119.999 32.0733 120.146 32.028V27.812C120.033 27.778 119.874 27.744 119.67 27.71C119.466 27.676 119.257 27.659 119.041 27.659C118.554 27.659 118.18 27.7667 117.919 27.982C117.659 28.186 117.483 28.4637 117.392 28.815C117.302 29.1663 117.256 29.5517 117.256 29.971C117.256 30.3903 117.296 30.7757 117.375 31.127C117.466 31.467 117.63 31.7447 117.868 31.96C118.106 32.164 118.441 32.266 118.871 32.266ZM127.032 34.17C126.306 34.17 125.7 34.1077 125.213 33.983C124.737 33.8583 124.351 33.7167 124.057 33.558V31.552C124.465 31.7673 124.929 31.9543 125.451 32.113C125.983 32.2603 126.493 32.334 126.981 32.334C127.559 32.334 127.848 32.147 127.848 31.773C127.848 31.569 127.763 31.416 127.593 31.314C127.434 31.212 127.207 31.1213 126.913 31.042C126.629 30.9513 126.301 30.8437 125.927 30.719C125.281 30.4923 124.782 30.2033 124.431 29.852C124.079 29.5007 123.904 28.951 123.904 28.203C123.904 27.3983 124.181 26.7977 124.737 26.401C125.303 26.0043 126.046 25.806 126.964 25.806C127.338 25.806 127.655 25.8287 127.916 25.874C128.176 25.908 128.414 25.942 128.63 25.976L130.177 26.826L129.514 28.475L126.964 27.659C126.748 27.659 126.573 27.7043 126.437 27.795C126.312 27.8743 126.25 27.9877 126.25 28.135C126.25 28.373 126.369 28.5543 126.607 28.679C126.845 28.7923 127.19 28.917 127.644 29.053C128.562 29.325 129.236 29.6537 129.667 30.039C130.097 30.4243 130.313 30.991 130.313 31.739C130.313 32.4303 130.041 33.0083 129.497 33.473C128.964 33.9377 128.142 34.17 127.032 34.17Z" fill="#1C4570"/>
</svg>
