<svg width="42" height="42" viewBox="0 0 42 42" fill="none" xmlns="http://www.w3.org/2000/svg">
<rect width="42" height="42" rx="6" fill="#B02323"/>
<path fill-rule="evenodd" clip-rule="evenodd" d="M6 0C2.68629 0 0 2.68629 0 6V36C0 39.3137 2.68629 42 6 42H36C39.3137 42 42 39.3137 42 36V6C42 2.68629 39.3137 0 36 0H6ZM31.6027 3L26.6712 4.45946L23 3.5L17.7945 3L10.8904 4.45946L4.9726 7.37838L3.9863 10.7838L4.9726 17.1081L3 21L4.9726 27.3243V36.5H9L13.3562 39L17.7945 37.0541L21.2466 38.027L26.6712 38.5135L31.6027 37.0541L34.5616 38.5135L37.5205 35.1081V30.2432L39 25.8649L38.5068 21V14.1892L36.5342 10.2973V5L33.5753 4.45946L31.6027 3Z" fill="#4B0000"/>
<path fill-rule="evenodd" clip-rule="evenodd" d="M16.7595 17.1772L23.0253 13V28.038L16.7595 23.8608H13V17.1772H16.7595ZM24.2543 15.7147C24.2546 15.7147 24.255 15.7147 24.2784 15.0886C24.3019 14.4625 24.3023 14.4625 24.3027 14.4625L24.3036 14.4625L24.3056 14.4626L24.3109 14.4628L24.3266 14.4636C24.3393 14.4644 24.3563 14.4654 24.3773 14.467C24.4194 14.4702 24.4777 14.4755 24.5501 14.4841C24.6946 14.5013 24.8961 14.5321 25.1358 14.5868C25.6131 14.6957 26.2551 14.9026 26.9021 15.297C28.232 16.1079 29.5 17.6653 29.5 20.519C29.5 23.3727 28.232 24.9301 26.9021 25.7409C26.2551 26.1354 25.6131 26.3422 25.1358 26.4511C24.8961 26.5059 24.6946 26.5366 24.5501 26.5538C24.4777 26.5625 24.4194 26.5677 24.3773 26.5709C24.3563 26.5725 24.3393 26.5736 24.3266 26.5743L24.3109 26.5751L24.3056 26.5753L24.3036 26.5754L24.3027 26.5755C24.3023 26.5755 24.3019 26.5755 24.2784 25.9494C24.255 25.3232 24.2546 25.3232 24.2543 25.3232L24.2566 25.3231C24.2613 25.3228 24.2702 25.3223 24.2828 25.3213C24.308 25.3194 24.3484 25.3159 24.4017 25.3095C24.5085 25.2968 24.666 25.273 24.857 25.2294C25.2413 25.1417 25.748 24.9768 26.2497 24.6709C27.2173 24.081 28.2468 22.9232 28.2468 20.519C28.2468 18.1147 27.2173 16.9569 26.2497 16.367C25.748 16.0611 25.2413 15.8963 24.857 15.8086C24.666 15.765 24.5085 15.7412 24.4017 15.7284C24.3484 15.7221 24.308 15.7185 24.2828 15.7166C24.2702 15.7157 24.2613 15.7151 24.2566 15.7148L24.2543 15.7147ZM24.2784 22.6076C24.8324 22.6076 25.3636 22.3875 25.7553 21.9958C26.147 21.6042 26.3671 21.0729 26.3671 20.519C26.3671 19.965 26.147 19.4338 25.7553 19.0421C25.3636 18.6504 24.8324 18.4304 24.2784 18.4304V22.6076Z" fill="#4B0000"/>
</svg>
