<svg width="202" height="56" viewBox="0 0 202 56" fill="none" xmlns="http://www.w3.org/2000/svg">
<rect x="1" y="1" width="200" height="54" rx="7" fill="#FFFFF5"/>
<path fill-rule="evenodd" clip-rule="evenodd" d="M8 1C4.13401 1 1 4.13401 1 8V48C1 51.866 4.13401 55 8.00001 55H194C197.866 55 201 51.866 201 48V8C201 4.13401 197.866 1 194 1H8ZM8.30602 10.6695C8.12954 12.9669 8.09425 17.857 9.36488 19.0385C10.9532 20.5154 13.6004 24.4537 14.1298 28.392C14.5935 31.8416 12.2141 36.0464 10.9048 38.3603C10.7193 38.6882 10.5552 38.9781 10.4238 39.2225C10.2473 39.5506 10.0267 39.8925 9.7988 40.2457C8.65902 42.0121 7.33541 44.0633 10.4238 46.1146C14.1298 48.576 26.8362 49.5606 28.9539 49.5606H55.4255C57.5381 49.5606 60.1448 49.6525 62.9743 49.7522C71.4902 50.0523 82.0253 50.4236 87.1913 48.576C88.3485 48.1622 89.4158 47.7623 90.4211 47.3856C95.3949 45.522 98.8481 44.2282 104.133 44.6377C110.486 45.13 122.134 47.0991 126.899 48.576C129.74 49.4566 140.11 48.2369 149.704 47.1085C156.201 46.3445 162.341 45.6223 165.547 45.6223C173.489 45.6223 180.901 46.1146 185.666 46.6068C190.43 47.0991 193.078 40.6993 193.078 35.7764C193.078 34.2464 193.231 32.2884 193.395 30.198C193.758 25.5625 194.172 20.2759 193.078 17.5616C192.662 16.5315 192.428 15.1983 192.185 13.8174C191.5 9.91888 190.748 5.64061 185.666 6.73119C180.125 7.92001 172.184 8.15188 161.841 8.45387C159.335 8.52705 156.688 8.60434 153.9 8.70036C139.605 9.19265 120.546 8.70036 117.898 8.20807C117.096 8.05892 113.233 8.45204 107.942 8.99039C95.7689 10.2289 76.0418 12.2361 68.6612 10.1772C58.0726 7.22348 23.1302 4.26973 16.2475 7.22348C13.0393 8.60033 11.4415 8.58662 10.4891 8.57844C9.39829 8.56908 9.15393 8.56699 8.30602 10.6695Z" fill="#E0E0C7"/>
<rect x="1" y="1" width="200" height="54" rx="7" stroke="#1C4570" stroke-width="2" stroke-linecap="round"/>
<ellipse cx="36.567" cy="16.5" rx="2.57732" ry="2.5" fill="#E0E0C7"/>
<ellipse cx="57.1856" cy="40.5" rx="3.60825" ry="3.5" fill="#E0E0C7"/>
<ellipse cx="171.619" cy="16.5" rx="2.57732" ry="2.5" fill="#E0E0C7"/>
<ellipse cx="123.165" cy="29.5" rx="1.54639" ry="1.5" fill="#E0E0C7"/>
<path d="M77.6607 35.17C76.788 35.17 76.0457 35.0567 75.4337 34.83C74.8217 34.592 74.3627 34.3427 74.0567 34.082V31.736C74.4533 31.9627 74.9803 32.2007 75.6377 32.45C76.3063 32.6993 77.043 32.824 77.8477 32.824C78.369 32.824 78.7543 32.722 79.0037 32.518C79.2643 32.314 79.3947 32.0363 79.3947 31.685C79.3947 31.3677 79.2927 31.107 79.0887 30.903C78.8847 30.699 78.5787 30.512 78.1707 30.342C77.7627 30.172 77.2413 29.9737 76.6067 29.747C75.7 29.4183 74.9973 28.9933 74.4987 28.472C74 27.9507 73.7507 27.248 73.7507 26.364C73.7507 25.7407 73.8867 25.157 74.1587 24.613C74.442 24.069 74.8783 23.6327 75.4677 23.304C76.0683 22.964 76.8333 22.794 77.7627 22.794C78.1253 22.794 78.4823 22.811 78.8337 22.845C79.1963 22.8677 79.5023 22.9017 79.7517 22.947L81.6727 24.358L80.8227 26.092L77.7117 24.987C77.3037 24.987 76.9637 25.089 76.6917 25.293C76.431 25.4857 76.3007 25.7633 76.3007 26.126C76.3007 26.5793 76.4877 26.925 76.8617 27.163C77.247 27.401 77.7853 27.6333 78.4767 27.86C79.7913 28.2907 80.715 28.812 81.2477 29.424C81.7803 30.0247 82.0467 30.733 82.0467 31.549C82.0467 32.2063 81.9107 32.8127 81.6387 33.368C81.3667 33.912 80.9077 34.3483 80.2617 34.677C79.627 35.0057 78.76 35.17 77.6607 35.17ZM83.605 39.131V29.866L83.265 27.996L83.792 26.959H85.645V27.69L85.815 27.775C85.815 27.775 85.917 27.69 86.121 27.52C86.325 27.35 86.6026 27.1857 86.954 27.027C87.3166 26.857 87.736 26.772 88.212 26.772C89.2206 26.772 90.0083 27.095 90.575 27.741C91.153 28.387 91.442 29.407 91.442 30.801C91.442 31.8437 91.2946 32.688 91 33.334C90.7166 33.9687 90.3313 34.4277 89.844 34.711C89.3566 34.9943 88.8126 35.136 88.212 35.136C87.6226 35.136 87.1353 35.085 86.75 34.983C86.3646 34.8697 86.1096 34.7903 85.985 34.745V39.131H83.605ZM87.107 33.334C87.549 33.334 87.9003 33.2263 88.161 33.011C88.4216 32.7843 88.6086 32.4897 88.722 32.127C88.8353 31.7643 88.892 31.3733 88.892 30.954C88.892 30.546 88.8466 30.1663 88.756 29.815C88.6653 29.4637 88.501 29.186 88.263 28.982C88.0363 28.7667 87.7076 28.659 87.277 28.659L85.985 29.016V33.113C85.985 33.113 86.0983 33.1527 86.325 33.232C86.563 33.3 86.8236 33.334 87.107 33.334ZM94.1582 26.126L92.3392 24.307L94.1582 22.488L95.9602 24.307L94.1582 26.126ZM92.9682 35V29.373L92.6112 28.013L92.9512 26.976H95.3312V35H92.9682ZM100.533 35.17C99.7966 35.17 99.1392 35.0397 98.5612 34.779C97.9832 34.5183 97.5299 34.082 97.2012 33.47C96.8726 32.858 96.7082 32.0307 96.7082 30.988C96.7082 29.9793 96.8839 29.169 97.2352 28.557C97.5866 27.945 98.0512 27.503 98.6292 27.231C99.2072 26.9477 99.8419 26.806 100.533 26.806C101.293 26.806 101.888 26.891 102.318 27.061C102.76 27.231 103.095 27.3953 103.321 27.554L104.171 30.257L103.831 31.311H99.0712C99.1392 31.9117 99.3546 32.3933 99.7172 32.756C100.08 33.1187 100.635 33.3 101.383 33.3C101.995 33.3 102.488 33.2263 102.862 33.079C103.248 32.9317 103.514 32.8183 103.661 32.739V34.507C103.321 34.6883 102.885 34.847 102.352 34.983C101.831 35.1077 101.225 35.17 100.533 35.17ZM99.0542 30.223L101.604 29.883L101.349 28.625C101.27 28.5797 101.157 28.5457 101.009 28.523C100.873 28.5003 100.749 28.489 100.635 28.489C100.125 28.489 99.7342 28.6703 99.4622 29.033C99.1902 29.3843 99.0542 29.781 99.0542 30.223ZM105.518 35V25.684L105.161 23.984L105.518 22.964H107.898V35H105.518ZM113.2 35.17C112.464 35.17 111.806 35.0397 111.228 34.779C110.65 34.5183 110.197 34.082 109.868 33.47C109.54 32.858 109.375 32.0307 109.375 30.988C109.375 29.9793 109.551 29.169 109.902 28.557C110.254 27.945 110.718 27.503 111.296 27.231C111.874 26.9477 112.509 26.806 113.2 26.806C113.96 26.806 114.555 26.891 114.985 27.061C115.427 27.231 115.762 27.3953 115.988 27.554L116.838 30.257L116.498 31.311H111.738C111.806 31.9117 112.022 32.3933 112.384 32.756C112.747 33.1187 113.302 33.3 114.05 33.3C114.662 33.3 115.155 33.2263 115.529 33.079C115.915 32.9317 116.181 32.8183 116.328 32.739V34.507C115.988 34.6883 115.552 34.847 115.019 34.983C114.498 35.1077 113.892 35.17 113.2 35.17ZM111.721 30.223L114.271 29.883L114.016 28.625C113.937 28.5797 113.824 28.5457 113.676 28.523C113.54 28.5003 113.416 28.489 113.302 28.489C112.792 28.489 112.401 28.6703 112.129 29.033C111.857 29.3843 111.721 29.781 111.721 30.223ZM118.236 35V29.883L117.896 28.013L118.423 26.976H120.276V27.707L120.429 27.809C120.553 27.6957 120.723 27.5653 120.939 27.418C121.165 27.2593 121.437 27.1177 121.755 26.993C122.072 26.8683 122.429 26.806 122.826 26.806C123.846 26.806 124.611 27.095 125.121 27.673C125.631 28.251 125.886 29.0613 125.886 30.104V32.263L126.243 33.963L125.886 35H123.506V30.036C123.506 29.6053 123.409 29.2767 123.217 29.05C123.035 28.812 122.746 28.693 122.35 28.693L120.616 29.016V35H118.236Z" fill="#1C4570"/>
</svg>
