<svg width="202" height="56" viewBox="0 0 202 56" fill="none" xmlns="http://www.w3.org/2000/svg">
<rect x="1" y="1" width="200" height="54" rx="7" fill="#FFFFF5"/>
<path fill-rule="evenodd" clip-rule="evenodd" d="M8 1C4.13401 1 1 4.13401 1 8V48C1 51.866 4.13401 55 8.00001 55H194C197.866 55 201 51.866 201 48V8C201 4.13401 197.866 1 194 1H8ZM8.30602 10.6695C8.12954 12.9669 8.09425 17.857 9.36488 19.0385C10.9532 20.5154 13.6004 24.4537 14.1298 28.392C14.5935 31.8416 12.2141 36.0464 10.9048 38.3603C10.7193 38.6882 10.5552 38.9781 10.4238 39.2225C10.2473 39.5506 10.0267 39.8925 9.7988 40.2457C8.65902 42.0121 7.33541 44.0633 10.4238 46.1146C14.1298 48.576 26.8362 49.5606 28.9539 49.5606H55.4255C57.5381 49.5606 60.1448 49.6525 62.9743 49.7522C71.4902 50.0523 82.0253 50.4236 87.1913 48.576C88.3485 48.1622 89.4158 47.7623 90.4211 47.3856C95.3949 45.522 98.8481 44.2282 104.133 44.6377C110.486 45.13 122.134 47.0991 126.899 48.576C129.74 49.4566 140.11 48.2369 149.704 47.1085C156.201 46.3445 162.341 45.6223 165.547 45.6223C173.489 45.6223 180.901 46.1146 185.666 46.6068C190.43 47.0991 193.078 40.6993 193.078 35.7764C193.078 34.2464 193.231 32.2884 193.395 30.198C193.758 25.5625 194.172 20.2759 193.078 17.5616C192.662 16.5315 192.428 15.1983 192.185 13.8174C191.5 9.91888 190.748 5.64061 185.666 6.73119C180.125 7.92001 172.184 8.15188 161.841 8.45387C159.335 8.52705 156.688 8.60434 153.9 8.70036C139.605 9.19265 120.546 8.70036 117.898 8.20807C117.096 8.05892 113.233 8.45204 107.942 8.99039C95.7689 10.2289 76.0418 12.2361 68.6612 10.1772C58.0726 7.22348 23.1302 4.26973 16.2475 7.22348C13.0393 8.60033 11.4415 8.58662 10.4891 8.57844C9.39829 8.56908 9.15393 8.56699 8.30602 10.6695Z" fill="#E0E0C7"/>
<rect x="1" y="1" width="200" height="54" rx="7" stroke="#1C4570" stroke-width="2" stroke-linecap="round"/>
<ellipse cx="36.567" cy="16.5" rx="2.57732" ry="2.5" fill="#E0E0C7"/>
<ellipse cx="57.1856" cy="40.5" rx="3.60825" ry="3.5" fill="#E0E0C7"/>
<ellipse cx="171.619" cy="16.5" rx="2.57732" ry="2.5" fill="#E0E0C7"/>
<ellipse cx="123.165" cy="29.5" rx="1.54639" ry="1.5" fill="#E0E0C7"/>
<path d="M48.9126 35.17C48.04 35.17 47.2976 35.0567 46.6856 34.83C46.0736 34.592 45.6146 34.3427 45.3086 34.082V31.736C45.7053 31.9627 46.2323 32.2007 46.8896 32.45C47.5583 32.6993 48.295 32.824 49.0996 32.824C49.621 32.824 50.0063 32.722 50.2556 32.518C50.5163 32.314 50.6466 32.0363 50.6466 31.685C50.6466 31.3677 50.5446 31.107 50.3406 30.903C50.1366 30.699 49.8306 30.512 49.4226 30.342C49.0146 30.172 48.4933 29.9737 47.8586 29.747C46.952 29.4183 46.2493 28.9933 45.7506 28.472C45.252 27.9507 45.0026 27.248 45.0026 26.364C45.0026 25.7407 45.1386 25.157 45.4106 24.613C45.694 24.069 46.1303 23.6327 46.7196 23.304C47.3203 22.964 48.0853 22.794 49.0146 22.794C49.3773 22.794 49.7343 22.811 50.0856 22.845C50.4483 22.8677 50.7543 22.9017 51.0036 22.947L52.9246 24.358L52.0746 26.092L48.9636 24.987C48.5556 24.987 48.2156 25.089 47.9436 25.293C47.683 25.4857 47.5526 25.7633 47.5526 26.126C47.5526 26.5793 47.7396 26.925 48.1136 27.163C48.499 27.401 49.0373 27.6333 49.7286 27.86C51.0433 28.2907 51.967 28.812 52.4996 29.424C53.0323 30.0247 53.2986 30.733 53.2986 31.549C53.2986 32.2063 53.1626 32.8127 52.8906 33.368C52.6186 33.912 52.1596 34.3483 51.5136 34.677C50.879 35.0057 50.012 35.17 48.9126 35.17ZM57.0669 35.17C56.3869 35.17 55.8599 35.0397 55.4859 34.779C55.1232 34.5183 54.8682 34.1443 54.7209 33.657C54.5849 33.1583 54.5169 32.5633 54.5169 31.872V26.959H56.8969V31.94C56.8969 32.4047 56.9819 32.7447 57.1519 32.96C57.3332 33.1753 57.6336 33.283 58.0529 33.283C58.5856 33.283 59.0049 33.079 59.3109 32.671C59.6282 32.263 59.7869 31.787 59.7869 31.243V26.959H62.1669V32.263L62.5239 33.963L62.1669 35H59.9739V34.167L59.8039 34.082C59.6566 34.2293 59.4412 34.388 59.1579 34.558C58.8859 34.728 58.5686 34.8753 58.2059 35C57.8546 35.1133 57.4749 35.17 57.0669 35.17ZM64.2202 39.131V29.866L63.8802 27.996L64.4072 26.959H66.2602V27.69L66.4302 27.775C66.4302 27.775 66.5322 27.69 66.7362 27.52C66.9402 27.35 67.2179 27.1857 67.5692 27.027C67.9319 26.857 68.3512 26.772 68.8272 26.772C69.8359 26.772 70.6235 27.095 71.1902 27.741C71.7682 28.387 72.0572 29.407 72.0572 30.801C72.0572 31.8437 71.9099 32.688 71.6152 33.334C71.3319 33.9687 70.9465 34.4277 70.4592 34.711C69.9719 34.9943 69.4279 35.136 68.8272 35.136C68.2379 35.136 67.7505 35.085 67.3652 34.983C66.9799 34.8697 66.7249 34.7903 66.6002 34.745V39.131H64.2202ZM67.7222 33.334C68.1642 33.334 68.5155 33.2263 68.7762 33.011C69.0369 32.7843 69.2239 32.4897 69.3372 32.127C69.4505 31.7643 69.5072 31.3733 69.5072 30.954C69.5072 30.546 69.4619 30.1663 69.3712 29.815C69.2805 29.4637 69.1162 29.186 68.8782 28.982C68.6515 28.7667 68.3229 28.659 67.8922 28.659L66.6002 29.016V33.113C66.6002 33.113 66.7135 33.1527 66.9402 33.232C67.1782 33.3 67.4389 33.334 67.7222 33.334ZM73.5835 39.131V29.866L73.2435 27.996L73.7705 26.959H75.6235V27.69L75.7935 27.775C75.7935 27.775 75.8955 27.69 76.0995 27.52C76.3035 27.35 76.5811 27.1857 76.9325 27.027C77.2951 26.857 77.7145 26.772 78.1905 26.772C79.1991 26.772 79.9868 27.095 80.5535 27.741C81.1315 28.387 81.4205 29.407 81.4205 30.801C81.4205 31.8437 81.2731 32.688 80.9785 33.334C80.6951 33.9687 80.3098 34.4277 79.8225 34.711C79.3351 34.9943 78.7911 35.136 78.1905 35.136C77.6011 35.136 77.1138 35.085 76.7285 34.983C76.3431 34.8697 76.0881 34.7903 75.9635 34.745V39.131H73.5835ZM77.0855 33.334C77.5275 33.334 77.8788 33.2263 78.1395 33.011C78.4001 32.7843 78.5871 32.4897 78.7005 32.127C78.8138 31.7643 78.8705 31.3733 78.8705 30.954C78.8705 30.546 78.8251 30.1663 78.7345 29.815C78.6438 29.4637 78.4795 29.186 78.2415 28.982C78.0148 28.7667 77.6861 28.659 77.2555 28.659L75.9635 29.016V33.113C75.9635 33.113 76.0768 33.1527 76.3035 33.232C76.5415 33.3 76.8021 33.334 77.0855 33.334ZM82.9638 35V29.679L82.6068 27.979L82.9638 26.959H84.5958L84.9358 27.35C84.9358 27.35 85.0094 27.3047 85.1568 27.214C85.3154 27.112 85.5364 27.0157 85.8198 26.925C86.1031 26.8343 86.4488 26.789 86.8568 26.789C87.0834 26.789 87.3101 26.806 87.5368 26.84C87.7634 26.874 87.9391 26.9193 88.0638 26.976L89.1688 28.081L88.2338 29.747L85.9048 28.574L85.3098 28.812V35H82.9638ZM91.375 26.126L89.556 24.307L91.375 22.488L93.177 24.307L91.375 26.126ZM90.185 35V29.373L89.828 28.013L90.168 26.976H92.548V35H90.185ZM94.095 28.013L94.622 26.976H96.475V27.707L96.628 27.809C96.7527 27.6957 96.9227 27.5653 97.138 27.418C97.3647 27.2593 97.6367 27.1177 97.954 26.993C98.2714 26.8683 98.6284 26.806 99.025 26.806C100.204 26.806 101.048 27.197 101.558 27.979C101.751 27.6957 102.051 27.4293 102.459 27.18C102.878 26.9193 103.456 26.789 104.193 26.789C105.213 26.789 105.978 27.078 106.488 27.656C106.998 28.234 107.253 29.0443 107.253 30.087V32.263L107.61 33.963L107.253 35H104.89V30.019C104.89 29.5883 104.771 29.2597 104.533 29.033C104.306 28.795 103.978 28.676 103.547 28.676C103.105 28.676 102.748 28.8007 102.476 29.05C102.215 29.2993 102.085 29.628 102.085 30.036V30.104V35H99.705V30.036C99.705 29.6053 99.6087 29.2767 99.416 29.05C99.2347 28.812 98.9457 28.693 98.549 28.693L96.815 29.016V35H94.435V29.883L94.095 28.013ZM112.559 35.17C111.822 35.17 111.165 35.0397 110.587 34.779C110.009 34.5183 109.555 34.082 109.227 33.47C108.898 32.858 108.734 32.0307 108.734 30.988C108.734 29.9793 108.909 29.169 109.261 28.557C109.612 27.945 110.077 27.503 110.655 27.231C111.233 26.9477 111.867 26.806 112.559 26.806C113.318 26.806 113.913 26.891 114.344 27.061C114.786 27.231 115.12 27.3953 115.347 27.554L116.197 30.257L115.857 31.311H111.097C111.165 31.9117 111.38 32.3933 111.743 32.756C112.105 33.1187 112.661 33.3 113.409 33.3C114.021 33.3 114.514 33.2263 114.888 33.079C115.273 32.9317 115.539 32.8183 115.687 32.739V34.507C115.347 34.6883 114.91 34.847 114.378 34.983C113.856 35.1077 113.25 35.17 112.559 35.17ZM111.08 30.223L113.63 29.883L113.375 28.625C113.295 28.5797 113.182 28.5457 113.035 28.523C112.899 28.5003 112.774 28.489 112.661 28.489C112.151 28.489 111.76 28.6703 111.488 29.033C111.216 29.3843 111.08 29.781 111.08 30.223ZM117.611 35V29.679L117.254 27.979L117.611 26.959H119.243L119.583 27.35C119.583 27.35 119.657 27.3047 119.804 27.214C119.963 27.112 120.184 27.0157 120.467 26.925C120.751 26.8343 121.096 26.789 121.504 26.789C121.731 26.789 121.958 26.806 122.184 26.84C122.411 26.874 122.587 26.9193 122.711 26.976L123.816 28.081L122.881 29.747L120.552 28.574L119.957 28.812V35H117.611ZM131.347 35.17C130.577 35.17 130.016 35 129.664 34.66C129.313 34.32 129.137 33.8043 129.137 33.113V28.557H128.066V27.452L128.967 26.619L130.174 24.511H131.5V26.976H133.71V28.676H131.5V33.334L133.71 33.317V34.66C133.71 34.66 133.62 34.7053 133.438 34.796C133.257 34.8753 132.991 34.9547 132.639 35.034C132.299 35.1247 131.869 35.17 131.347 35.17ZM138.578 35.17C137.195 35.17 136.181 34.8073 135.535 34.082C134.889 33.3567 134.566 32.3253 134.566 30.988C134.566 29.6393 134.889 28.608 135.535 27.894C136.181 27.1687 137.195 26.806 138.578 26.806C140.006 26.806 141.026 27.1687 141.638 27.894C142.261 28.608 142.573 29.6393 142.573 30.988C142.573 32.3253 142.261 33.3567 141.638 34.082C141.026 34.8073 140.006 35.17 138.578 35.17ZM138.578 33.47C139.042 33.47 139.422 33.2887 139.717 32.926C140.023 32.5633 140.176 31.9173 140.176 30.988C140.176 30.0587 140.023 29.4127 139.717 29.05C139.422 28.6873 139.042 28.506 138.578 28.506C138.102 28.506 137.711 28.6873 137.405 29.05C137.11 29.4127 136.963 30.0587 136.963 30.988C136.963 31.9173 137.116 32.5633 137.422 32.926C137.728 33.2887 138.113 33.47 138.578 33.47ZM146.317 35.17C145.637 35.17 145.11 35.0397 144.736 34.779C144.373 34.5183 144.118 34.1443 143.971 33.657C143.835 33.1583 143.767 32.5633 143.767 31.872V26.959H146.147V31.94C146.147 32.4047 146.232 32.7447 146.402 32.96C146.583 33.1753 146.884 33.283 147.303 33.283C147.836 33.283 148.255 33.079 148.561 32.671C148.878 32.263 149.037 31.787 149.037 31.243V26.959H151.417V32.263L151.774 33.963L151.417 35H149.224V34.167L149.054 34.082C148.907 34.2293 148.691 34.388 148.408 34.558C148.136 34.728 147.819 34.8753 147.456 35C147.105 35.1133 146.725 35.17 146.317 35.17ZM155.901 35.17C155.131 35.17 154.57 35 154.218 34.66C153.867 34.32 153.691 33.8043 153.691 33.113V28.557H152.62V27.452L153.521 26.619L154.728 24.511H156.054V26.976H158.264V28.676H156.054V33.334L158.264 33.317V34.66C158.264 34.66 158.174 34.7053 157.992 34.796C157.811 34.8753 157.545 34.9547 157.193 35.034C156.853 35.1247 156.423 35.17 155.901 35.17Z" fill="#1C4570"/>
</svg>
