<svg width="26" height="14" viewBox="0 0 26 14" fill="none" xmlns="http://www.w3.org/2000/svg">
<path d="M4.57942 13V7.9L0.720422 1.984V0.964H3.57642L5.61642 5.316H5.95642L7.97942 0.964H10.8694V1.984L6.87442 8.002L6.97642 9.719V13H4.57942ZM14.0811 13.17C13.3444 13.17 12.6871 13.0397 12.1091 12.779C11.5311 12.5183 11.0778 12.082 10.7491 11.47C10.4204 10.858 10.2561 10.0307 10.2561 8.988C10.2561 7.97933 10.4318 7.169 10.7831 6.557C11.1344 5.945 11.5991 5.503 12.1771 5.231C12.7551 4.94767 13.3898 4.806 14.0811 4.806C14.8404 4.806 15.4354 4.891 15.8661 5.061C16.3081 5.231 16.6424 5.39533 16.8691 5.554L17.7191 8.257L17.3791 9.311H12.6191C12.6871 9.91167 12.9024 10.3933 13.2651 10.756C13.6278 11.1187 14.1831 11.3 14.9311 11.3C15.5431 11.3 16.0361 11.2263 16.4101 11.079C16.7954 10.9317 17.0618 10.8183 17.2091 10.739V12.507C16.8691 12.6883 16.4328 12.847 15.9001 12.983C15.3788 13.1077 14.7724 13.17 14.0811 13.17ZM12.6021 8.223L15.1521 7.883L14.8971 6.625C14.8178 6.57967 14.7044 6.54567 14.5571 6.523C14.4211 6.50033 14.2964 6.489 14.1831 6.489C13.6731 6.489 13.2821 6.67033 13.0101 7.033C12.7381 7.38433 12.6021 7.781 12.6021 8.223ZM21.7347 13.17C21.0093 13.17 20.403 13.1077 19.9157 12.983C19.4397 12.8583 19.0543 12.7167 18.7597 12.558V10.552C19.1677 10.7673 19.6323 10.9543 20.1537 11.113C20.6863 11.2603 21.1963 11.334 21.6837 11.334C22.2617 11.334 22.5507 11.147 22.5507 10.773C22.5507 10.569 22.4657 10.416 22.2957 10.314C22.137 10.212 21.9103 10.1213 21.6157 10.042C21.3323 9.95133 21.0037 9.84367 20.6297 9.719C19.9837 9.49233 19.485 9.20333 19.1337 8.852C18.7823 8.50067 18.6067 7.951 18.6067 7.203C18.6067 6.39833 18.8843 5.79767 19.4397 5.401C20.0063 5.00433 20.7487 4.806 21.6667 4.806C22.0407 4.806 22.358 4.82867 22.6187 4.874C22.8793 4.908 23.1173 4.942 23.3327 4.976L24.8797 5.826L24.2167 7.475L21.6667 6.659C21.4513 6.659 21.2757 6.70433 21.1397 6.795C21.015 6.87433 20.9527 6.98767 20.9527 7.135C20.9527 7.373 21.0717 7.55433 21.3097 7.679C21.5477 7.79233 21.8933 7.917 22.3467 8.053C23.2647 8.325 23.939 8.65367 24.3697 9.039C24.8003 9.42433 25.0157 9.991 25.0157 10.739C25.0157 11.4303 24.7437 12.0083 24.1997 12.473C23.667 12.9377 22.8453 13.17 21.7347 13.17Z" fill="#1C4570"/>
</svg>
